<svg width="33" height="33" viewBox="0 0 33 33" fill="none" xmlns="http://www.w3.org/2000/svg">
<rect x="0.627502" y="0.0125122" width="32" height="32" rx="12" fill="#36B37E" fill-opacity="0.16"/>
<path fill-rule="evenodd" clip-rule="evenodd" d="M6.6275 16.0125C6.6275 10.4897 11.1047 6.01251 16.6275 6.01251C19.2797 6.01251 21.8232 7.06608 23.6986 8.94144C25.5739 10.8168 26.6275 13.3603 26.6275 16.0125C26.6275 21.5354 22.1504 26.0125 16.6275 26.0125C11.1047 26.0125 6.6275 21.5354 6.6275 16.0125ZM16.3575 19.6225L20.9275 13.6225V13.5925C21.1454 13.3067 21.1943 12.9263 21.0558 12.5947C20.9172 12.2631 20.6123 12.0305 20.2558 11.9847C19.8993 11.9389 19.5454 12.0867 19.3275 12.3725L15.5475 17.3725L13.9175 15.2925C13.6978 15.0103 13.3442 14.8667 12.9899 14.9159C12.6356 14.965 12.3345 15.1995 12.1999 15.5309C12.0653 15.8623 12.1178 16.2403 12.3375 16.5225L14.7775 19.6325C14.9683 19.874 15.2597 20.0142 15.5675 20.0125C15.877 20.0118 16.1687 19.8678 16.3575 19.6225Z" fill="#36B37E"/>
</svg>
