<svg width="33" height="32" viewBox="0 0 33 32" fill="none" xmlns="http://www.w3.org/2000/svg">
<path opacity="0.4" d="M11.5075 8.86664H21.7341C22.5875 8.86664 23.2808 9.55997 23.2808 10.4133V12.12C23.2808 12.7466 22.8941 13.52 22.5075 13.9066L19.1741 16.8533C18.7075 17.24 18.4008 18.0133 18.4008 18.64V21.9733C18.4008 22.44 18.0941 23.0533 17.7075 23.2933L16.6275 23.9733C15.6141 24.6 14.2275 23.8933 14.2275 22.6533V18.5466C14.2275 18 13.9208 17.3066 13.6008 16.92L10.6541 13.8133C10.2675 13.44 9.96082 12.7333 9.96082 12.2666V10.4933C9.96082 9.55997 10.6541 8.86664 11.5075 8.86664Z" stroke="#292D32" stroke-width="1.5" stroke-miterlimit="10" stroke-linecap="round" stroke-linejoin="round"/>
<path d="M12.6274 29.3334H20.6274C27.2941 29.3334 29.9607 26.6667 29.9607 20V12C29.9607 5.33335 27.2941 2.66669 20.6274 2.66669H12.6274C5.96073 2.66669 3.29407 5.33335 3.29407 12V20C3.29407 26.6667 5.96073 29.3334 12.6274 29.3334Z" stroke="#292D32" stroke-width="1.5" stroke-linecap="round" stroke-linejoin="round"/>
</svg>
