<?xml version="1.0" encoding="UTF-8"?>
<svg version="1.1" xmlns="http://www.w3.org/2000/svg" width="512" height="512">
<path d="M0 0 C1.3958431 -0.00461769 2.79168133 -0.0109764 4.18750954 -0.01890898 C7.99528633 -0.03550658 11.80265877 -0.02740003 15.61043644 -0.0149641 C19.72776501 -0.0058764 23.84502631 -0.0199017 27.96234131 -0.03088379 C36.01714488 -0.04863406 44.07179904 -0.04484464 52.12660837 -0.03323323 C58.67517729 -0.0241854 65.22370445 -0.02298073 71.77227783 -0.02732849 C73.17238647 -0.02824789 73.17238647 -0.02824789 74.60078013 -0.02918586 C76.49720622 -0.03046481 78.3936323 -0.03176167 80.29005837 -0.03307623 C98.05664433 -0.04447179 115.82314762 -0.03138439 133.58972001 -0.00987476 C148.82141072 0.00799529 164.05297946 0.00489089 179.28466797 -0.0135498 C196.98936405 -0.0349746 214.69398775 -0.04337325 232.39869499 -0.03110075 C234.2879931 -0.02982661 236.17729122 -0.02856912 238.06658936 -0.02732849 C238.99606593 -0.02671139 239.9255425 -0.02609429 240.88318503 -0.02545848 C247.42094073 -0.02201042 253.95865036 -0.02782221 260.49639893 -0.0372467 C268.46797544 -0.04848596 276.43939448 -0.04538621 284.41095304 -0.02412373 C288.47516511 -0.01363917 292.53911499 -0.00944692 296.60332489 -0.02272034 C300.32916259 -0.03470427 304.0544969 -0.02798403 307.78028941 -0.00681013 C309.75496347 -0.00027757 311.72967291 -0.01322632 313.70430946 -0.02703905 C325.71953106 0.07805954 335.14451836 3.13112514 343.91943359 11.50793457 C355.7992979 23.95238648 355.52235139 37.56142709 355.52880859 53.80090332 C355.54380747 55.95995819 355.56053817 58.11900166 355.57891846 60.2780304 C355.62241224 65.9282792 355.64255117 71.57837327 355.65765381 77.22875977 C355.67728986 83.00745729 355.71925246 88.78598929 355.75927734 94.5645752 C355.8343847 105.87897703 355.88479391 117.19334147 355.91943359 128.50793457 C356.65838867 128.75970459 357.39734375 129.01147461 358.15869141 129.27087402 C359.13676758 129.61336182 360.11484375 129.95584961 361.12255859 130.30871582 C362.08838867 130.64298584 363.05421875 130.97725586 364.04931641 131.32165527 C372.82946408 134.95067344 380.03587357 142.43560441 384.08785582 150.96845055 C386.72612288 157.85606251 387.49117494 163.81786421 387.42736816 171.15881348 C387.43672811 172.83960967 387.43672811 172.83960967 387.44627714 174.55436134 C387.46213738 178.28129204 387.4496296 182.00756238 387.43701172 185.73449707 C387.44243593 188.41776415 387.44941643 191.10098686 387.45825195 193.78424072 C387.47598018 200.29899377 387.47222277 206.81356183 387.46060139 213.32832193 C387.45154479 218.62594011 387.45035266 223.92350667 387.45469666 229.22113037 C387.45530959 229.97691301 387.45592252 230.73269565 387.45655403 231.51138079 C387.45783301 233.04703889 387.45912986 234.58269697 387.46044439 236.11835504 C387.47183349 250.49710068 387.45876276 264.8757441 387.43724293 279.25447297 C387.41937344 291.57533946 387.42247802 303.89605517 387.44091797 316.21691895 C387.46235426 330.54640622 387.47073501 344.87580403 387.45846891 359.2053051 C387.4571948 360.73511631 387.45593732 362.26492753 387.45469666 363.79473877 C387.453771 364.92359904 387.453771 364.92359904 387.45282665 366.07526457 C387.44938201 371.362678 387.45518291 376.65003438 387.46461487 381.93743896 C387.47586697 388.38656067 387.47272773 394.83548779 387.45149189 401.28458738 C387.44102426 404.57113591 387.43896156 407.8572961 387.4500885 411.14385223 C387.46106275 414.71524014 387.44725603 418.28572487 387.42736816 421.85705566 C387.44075249 423.39691855 387.44075249 423.39691855 387.45440722 424.96788979 C387.33361315 436.19578846 383.68656531 445.37167184 375.91943359 453.50793457 C365.17966979 463.76045011 353.70356534 465.10281565 339.40917969 465.01586914 C337.7493504 465.02048433 336.08952521 465.02684138 334.42970848 465.03477812 C329.89225296 465.05140977 325.35513582 465.04325325 320.81767941 465.03083324 C315.91507156 465.02175975 311.01252073 465.03576387 306.10992432 465.04675293 C296.51506653 465.06451821 286.92033406 465.06070703 277.3254714 465.04910237 C269.5259508 465.04006049 261.72646526 465.03884731 253.92694092 465.04319763 C252.2603976 465.04411703 252.2603976 465.04411703 250.56018674 465.045055 C248.30299265 465.04633393 246.04579857 465.04763079 243.7886045 465.04894537 C222.63417579 465.06034533 201.47981648 465.0472466 180.32539916 465.0257439 C162.1828811 465.00787347 144.04046543 465.01097774 125.89794922 465.02941895 C104.81804278 465.05083594 83.73819713 465.05924675 62.65828133 465.04696989 C60.40949632 465.04569572 58.1607113 465.04443824 55.91192627 465.04319763 C54.80554664 465.04258053 53.69916701 465.04196343 52.55926073 465.04132763 C44.77116139 465.03787722 36.98310068 465.04369641 29.19500732 465.05311584 C19.7009716 465.0643464 10.20706812 465.0612735 0.7130475 465.03999287 C-4.1288528 465.02949674 -8.97053278 465.02533615 -13.81243134 465.03858948 C-18.24880249 465.05054894 -22.68475004 465.04389247 -27.12108302 465.02267927 C-28.72187723 465.01822823 -30.32270758 465.02044563 -31.92347836 465.03018242 C-45.43342191 465.10602415 -56.0552098 463.07845459 -66.08056641 453.50793457 C-74.83624721 444.3361422 -77.69688049 434.32608343 -77.58850098 421.85705566 C-77.59474094 420.73652487 -77.6009809 419.61599407 -77.60740995 418.4615078 C-77.62327019 414.7345771 -77.61076241 411.00830676 -77.59814453 407.28137207 C-77.60356874 404.59810499 -77.61054925 401.91488228 -77.61938477 399.23162842 C-77.63711299 392.71687537 -77.63335558 386.20230731 -77.6217342 379.68754721 C-77.6126776 374.38992903 -77.61148547 369.09236247 -77.61582947 363.79473877 C-77.61674887 362.66106481 -77.61674887 362.66106481 -77.61768684 361.50448835 C-77.61896582 359.96883025 -77.62026267 358.43317217 -77.6215772 356.8975141 C-77.63296631 342.51876846 -77.61989558 328.14012505 -77.59837574 313.76139617 C-77.58050626 301.44052968 -77.58361083 289.11981397 -77.60205078 276.7989502 C-77.62348707 262.46946292 -77.63186783 248.14006511 -77.61960173 233.81056404 C-77.61832761 232.28075283 -77.61707013 230.75094161 -77.61582947 229.22113037 C-77.61521237 228.46855686 -77.61459526 227.71598334 -77.61395946 226.94060457 C-77.61051482 221.65319114 -77.61631572 216.36583476 -77.62574768 211.07843018 C-77.63699978 204.62930847 -77.63386054 198.18038135 -77.6126247 191.73128176 C-77.60215707 188.44473323 -77.60009438 185.15857304 -77.61122131 181.87201691 C-77.62219556 178.300629 -77.60838885 174.73014427 -77.58850098 171.15881348 C-77.59742386 170.13223822 -77.60634675 169.10566296 -77.61554003 168.04797935 C-77.49474596 156.82008069 -73.84769812 147.6441973 -66.08056641 139.50793457 C-61.56547217 135.19768393 -57.19730928 132.35539588 -51.28369141 130.30871582 C-50.30561523 129.96622803 -49.32753906 129.62374023 -48.31982422 129.27087402 C-47.58086914 129.019104 -46.84191406 128.76733398 -46.08056641 128.50793457 C-46.07692078 127.31713791 -46.07327515 126.12634125 -46.06951904 124.89945984 C-46.03248294 113.64487375 -45.97461617 102.3905591 -45.89666367 91.13617992 C-45.85725414 85.35098875 -45.82503358 79.56594832 -45.80957031 73.78063965 C-45.7943609 68.19130616 -45.75983903 62.60238724 -45.71225739 57.01323891 C-45.69748777 54.88718595 -45.68952795 52.7610738 -45.68868256 50.63496971 C-45.67653262 35.39222964 -45.14000571 23.09297099 -34.08056641 11.50793457 C-24.06751614 1.94916258 -13.50028556 -0.09443548 0 0 Z M-22.08056641 23.50793457 C-29.93044062 32.63291526 -29.36790179 44.09289113 -29.30761719 55.48278809 C-29.30700359 57.00575468 -29.30727307 58.52872185 -29.3083477 60.05168819 C-29.30879682 64.10792054 -29.29725597 68.16403343 -29.28312683 72.22023773 C-29.27168597 76.03484956 -29.27119783 79.84943323 -29.26977539 83.6640625 C-29.25930586 94.7995355 -29.23138336 105.93498657 -29.20556641 117.07043457 C-29.16431641 141.96480957 -29.12306641 166.85918457 -29.08056641 192.50793457 C29.98943359 192.50793457 89.05943359 192.50793457 149.91943359 192.50793457 C157.50943359 177.32793457 165.09943359 162.14793457 172.91943359 146.50793457 C183.06055818 135.24001836 183.06055818 135.24001836 188.23193359 132.94543457 C189.21806641 132.49039551 190.20419922 132.03535645 191.22021484 131.56652832 C195.53634944 129.87380404 199.10568236 129.37866078 203.75335693 129.34971619 C204.94525131 129.33992737 206.13714569 129.33013855 207.36515808 129.3200531 C209.32126762 129.31141991 209.32126762 129.31141991 211.31689453 129.3026123 C212.70663238 129.29303014 214.09636733 129.28301985 215.48609924 129.27261353 C219.25638476 129.24559509 223.02668276 129.22456897 226.79701138 129.20461154 C230.73817146 129.18273309 234.67929321 129.1553535 238.62042236 129.1285553 C246.08241248 129.07865355 253.5444239 129.03370538 261.00645566 128.99053293 C269.50217989 128.94113904 277.99786566 128.88622889 286.49355268 128.83085334 C303.96881076 128.71707195 321.44410455 128.61022454 338.91943359 128.50793457 C338.96587043 117.18961359 339.00136038 105.87131545 339.02305794 94.55291843 C339.03347413 89.29675991 339.04759373 84.04066679 339.0703125 78.7845459 C339.09211814 73.70763955 339.10401849 68.63079594 339.10918808 63.55384636 C339.11287 61.62146963 339.12005974 59.68909616 339.13089371 57.75674629 C339.14551132 55.04035268 339.14740726 52.32421499 339.14648438 49.60778809 C339.15367493 48.81728058 339.16086548 48.02677307 339.16827393 47.21231079 C339.13688148 38.61647297 337.85014309 30.07309206 331.91943359 23.50793457 C322.44524022 16.12127533 313.5455645 16.35953635 301.98977661 16.3742218 C300.68340897 16.37195625 299.37704134 16.36969069 298.0310868 16.36735648 C294.41576779 16.36125354 290.80047194 16.36137029 287.18514895 16.36255085 C283.28185595 16.36275524 279.37857032 16.35723254 275.47528076 16.35249329 C267.83239941 16.34419471 260.18952577 16.34143881 252.54664029 16.34088091 C246.33359155 16.34040542 240.12054535 16.33834906 233.90749741 16.33518028 C216.28643503 16.32637629 198.66537875 16.32176057 181.04431416 16.32251076 C180.09479791 16.32255071 179.14528166 16.32259067 178.16699219 16.32263184 C176.74097605 16.32269316 176.74097605 16.32269316 175.28615151 16.32275572 C159.87646706 16.32316224 144.46680703 16.31359055 129.05712964 16.29949347 C113.22877913 16.28512778 97.40044054 16.27822337 81.57208335 16.27908725 C72.68795927 16.27941912 63.8038608 16.27667605 54.91974258 16.26590919 C47.35649049 16.25680172 39.79327563 16.25463103 32.23002042 16.26141862 C28.37272318 16.26468241 24.51549737 16.26474555 20.65820694 16.25606537 C16.47310325 16.24674448 12.28816479 16.25297997 8.10305786 16.26069641 C6.2818883 16.25298107 6.2818883 16.25298107 4.42392743 16.24510986 C-5.27277354 16.28463266 -14.44372814 16.93825274 -22.08056641 23.50793457 Z M188.91943359 152.50793457 C181.05174322 164.17585987 175.3560647 177.50748802 169.17578125 190.11169434 C167.85837104 192.79445922 166.53381757 195.47360267 165.20849609 198.15246582 C164.80643951 198.97833694 164.40438293 199.80420807 163.99014282 200.65510559 C163.61570038 201.41067245 163.24125793 202.16623932 162.85546875 202.94470215 C162.52874176 203.61085037 162.20201477 204.2769986 161.86538696 204.96333313 C160.91943359 206.50793457 160.91943359 206.50793457 158.91943359 207.50793457 C156.37036412 207.61129551 153.84815397 207.65400618 151.29856873 207.6526947 C150.1049662 207.65798497 150.1049662 207.65798497 148.88725048 207.66338211 C146.20583373 207.67410436 143.52445247 207.67775626 140.84301758 207.68151855 C138.92631377 207.68782134 137.00961143 207.69458683 135.09291077 207.70178223 C130.95683027 207.71647447 126.82075551 207.72819037 122.68465996 207.73773003 C116.14163933 207.75316164 109.59866739 207.77711243 103.05567932 207.80262756 C84.44673744 207.87387993 65.83776725 207.9335485 47.22875977 207.98474121 C36.9575899 208.01307242 26.68646806 208.04847232 16.41534859 208.09139496 C9.91486399 208.11813288 3.41443375 208.13605981 -3.08609498 208.14743221 C-7.13893181 208.15657978 -11.19170292 208.17395248 -15.24450111 208.19361115 C-17.11934115 208.2010641 -18.99419808 208.20516634 -20.86905289 208.20560646 C-23.43643663 208.20669546 -26.00348928 208.22000101 -28.57081604 208.2361908 C-29.67338512 208.23226551 -29.67338512 208.23226551 -30.79822832 208.22826093 C-39.34960712 208.31199554 -47.45869927 209.81139385 -54.08056641 215.50793457 C-60.2854991 222.72077512 -61.39212515 231.59277836 -61.33453369 240.81872559 C-61.33765367 241.60410737 -61.34077365 242.38948915 -61.34398818 243.19867039 C-61.35189943 245.80313926 -61.34567164 248.40737065 -61.33935547 251.01184082 C-61.34206839 252.89016861 -61.34563101 254.76849534 -61.34997559 256.64682007 C-61.35906602 261.72940065 -61.35556914 266.81189972 -61.34921741 271.89448166 C-61.34414009 277.22339847 -61.34885368 282.55230849 -61.35198975 287.88122559 C-61.35562434 296.82874805 -61.35084358 305.77623745 -61.34130859 314.72375488 C-61.33042503 325.05581976 -61.33395097 335.38780569 -61.3449614 345.71986866 C-61.35404871 354.60420054 -61.35531249 363.48850871 -61.35008407 372.37284374 C-61.34697231 377.67318706 -61.34653318 382.97349332 -61.35315704 388.27383423 C-61.35895086 393.25776983 -61.35489638 398.24160403 -61.34336853 403.22552872 C-61.34073283 405.05039426 -61.34146834 406.87526839 -61.34589386 408.70013046 C-61.35139397 411.19924853 -61.34446152 413.69804569 -61.33453369 416.19714355 C-61.33899513 416.91185098 -61.34345658 417.6265584 -61.34805322 418.36292362 C-61.2829773 426.86230651 -59.73662608 434.93312408 -54.08056641 441.50793457 C-44.81141726 449.48183143 -33.01775041 448.79849459 -21.48071289 448.76190186 C-19.89543483 448.7642085 -18.31015784 448.76738639 -16.72488308 448.77135634 C-12.38435912 448.77968499 -8.04392341 448.77558785 -3.70339918 448.76938391 C0.98378114 448.76485252 5.67094645 448.77184659 10.35812378 448.77734375 C19.53411793 448.78623205 28.71007935 448.78431824 37.88607478 448.77851847 C45.34431015 448.77399978 52.80253636 448.77338998 60.26077271 448.7755661 C61.32269351 448.77587257 62.38461431 448.77617903 63.47871453 448.77649479 C65.63605714 448.77713424 67.79339975 448.77778267 69.95074236 448.77843997 C90.17514038 448.78414161 110.39952027 448.77758796 130.62391531 448.76683924 C147.97340705 448.75790388 165.32287203 448.75945597 182.67236328 448.76867676 C202.82491846 448.7793823 222.97745775 448.78359231 243.13001537 448.77745223 C245.27937507 448.77681514 247.42873478 448.7761864 249.57809448 448.7755661 C250.63559153 448.77525755 251.69308857 448.774949 252.78263098 448.7746311 C260.23099656 448.77290501 267.67935205 448.7758174 275.12771606 448.78052521 C284.20607016 448.78613719 293.28438967 448.78461089 302.3627398 448.77396372 C306.99369602 448.76871131 311.6245946 448.76664297 316.25555038 448.77326202 C320.49687186 448.77923245 324.73808239 448.77592831 328.97939384 448.76530692 C330.51157518 448.76307753 332.04376595 448.7641988 333.57594121 448.7690585 C348.69589997 449.03942334 348.69589997 449.03942334 361.91943359 442.50793457 C370.34160256 434.02517446 371.07153923 425.67828024 371.05314636 414.1282196 C371.05541192 413.08405374 371.05767748 412.03988788 371.06001168 410.96408063 C371.06634083 407.46591067 371.06552301 403.96777955 371.06469727 400.46960449 C371.06768943 397.96118622 371.07109209 395.4527684 371.07487488 392.9443512 C371.08279515 386.83805058 371.08592928 380.73176419 371.08648726 374.62545892 C371.08696288 369.66047924 371.08901995 364.69550274 371.09218788 359.73052406 C371.10099184 345.64515504 371.10560767 331.55979362 371.10485741 317.47442182 C371.10481745 316.71550788 371.1047775 315.95659395 371.10473633 315.17468262 C371.10469545 314.41483904 371.10465457 313.65499546 371.10461245 312.87212632 C371.10420606 300.55984181 371.11377444 288.24758789 371.12787469 275.93531223 C371.1422479 263.28458782 371.14914436 250.63387832 371.14828092 237.98314553 C371.14794927 230.8841738 371.15068212 223.78523413 371.16145897 216.68626976 C371.17153073 210.00912693 371.17121896 203.33206301 371.16394234 196.65491295 C371.16289653 194.20598756 371.16525917 191.75705796 371.1713028 189.3081398 C371.17902603 185.96154713 371.17437551 182.61518815 371.16667175 179.26860046 C371.1743871 177.81993876 371.1743871 177.81993876 371.18225831 176.34201115 C371.13931873 167.88286101 370.45457902 160.2398682 364.91943359 153.50793457 C355.26436712 144.12293989 346.42051619 144.35802964 333.41601562 144.3626709 C332.05029204 144.3596751 330.6845693 144.3562716 329.31884766 144.35249329 C325.62455626 144.34369259 321.93028805 144.34131685 318.23598719 144.3406775 C315.92407524 144.33996484 313.61216913 144.33782646 311.30025864 144.33518028 C303.22393166 144.32594035 295.14762115 144.32184376 287.07128906 144.32263184 C279.56013576 144.32323249 272.0490543 144.31267968 264.53791916 144.29688817 C258.07399317 144.28378583 251.61009059 144.27844906 245.14615142 144.27908725 C241.29223403 144.27934141 237.43838056 144.27653529 233.58447647 144.26590919 C229.95812806 144.25618255 226.33190411 144.2561801 222.70555115 144.26342583 C220.75237419 144.26495912 218.79919713 144.25665722 216.84603882 144.24798584 C206.30589597 144.28544484 196.92196779 145.0298669 188.91943359 152.50793457 Z M-53.74072266 152.15637207 C-60.17412254 159.3959228 -61.21778786 166.30034193 -61.17822266 175.87512207 C-61.17680771 176.55470978 -61.17539276 177.23429749 -61.17393494 177.93447876 C-61.16838159 180.08401069 -61.1558381 182.23343465 -61.14306641 184.38293457 C-61.13804536 185.84907889 -61.13348352 187.31522486 -61.12939453 188.78137207 C-61.11842752 192.3569274 -61.10119559 195.93242043 -61.08056641 199.50793457 C-60.34451172 199.1702002 -59.60845703 198.83246582 -58.85009766 198.48449707 C-57.87427734 198.03848145 -56.89845703 197.59246582 -55.89306641 197.13293457 C-54.93013672 196.6920752 -53.96720703 196.25121582 -52.97509766 195.79699707 C-50.37090941 194.63723712 -47.72743175 193.56668071 -45.08056641 192.50793457 C-45.08056641 177.32793457 -45.08056641 162.14793457 -45.08056641 146.50793457 C-48.16898106 146.50793457 -51.65329921 150.08368338 -53.74072266 152.15637207 Z " fill="#000000" transform="translate(101.08056640625,23.4920654296875)"/>
<path d="M0 0 C0.96574331 -0.00679667 0.96574331 -0.00679667 1.95099658 -0.01373065 C4.10035462 -0.02635324 6.24945857 -0.0247557 8.39884949 -0.02310181 C9.94324061 -0.02908844 11.48762873 -0.0358943 13.03201294 -0.04345703 C17.22221905 -0.06111142 21.41234346 -0.0658122 25.60258317 -0.0670886 C28.22236557 -0.06851118 30.84212727 -0.07278283 33.46190453 -0.07808304 C42.6069152 -0.0965821 51.7518676 -0.10475389 60.89689636 -0.10317993 C69.41239357 -0.10197886 77.92763718 -0.12307478 86.44307023 -0.15466726 C93.76129432 -0.18084749 101.07943567 -0.19154648 108.39770621 -0.19026911 C112.765328 -0.18975995 117.13272443 -0.19541748 121.50029945 -0.21662521 C125.61015651 -0.23603691 129.71957392 -0.23611227 133.82944679 -0.22159195 C135.33383834 -0.21950631 136.83825762 -0.22419021 138.34260178 -0.23631287 C147.49883263 -0.30529126 154.50132179 -0.07287525 161.69645691 6.23226929 C162.23528503 6.88324585 162.77411316 7.53422241 163.32926941 8.20492554 C163.88356628 8.85332397 164.43786316 9.50172241 165.00895691 10.16976929 C168.85508002 15.75184526 168.77490554 20.96931331 168.79020691 27.53695679 C168.80019211 29.0294117 168.80019211 29.0294117 168.81037903 30.55201721 C168.82048839 32.65415605 168.82519658 34.75632687 168.82487488 36.85848999 C168.82924018 40.05849726 168.86555702 43.25711592 168.90348816 46.45687866 C168.9093584 48.50440001 168.9133264 50.55192788 168.91520691 52.59945679 C168.92957794 53.54867508 168.94394897 54.49789337 168.95875549 55.47587585 C168.90956543 62.70427969 167.29466085 68.02610409 162.48942566 73.50961304 C161.8384491 74.04844116 161.18747253 74.58726929 160.51676941 75.14242554 C159.86837097 75.69672241 159.21997253 76.25101929 158.55192566 76.82211304 C154.09712639 79.8915278 150.26885854 80.51923035 144.90853882 80.53485107 C144.26470995 80.53938219 143.62088108 80.5439133 142.95754224 80.54858172 C140.8081842 80.56120432 138.65908025 80.55960677 136.50968933 80.55795288 C134.96529821 80.56393952 133.42091008 80.57074538 131.87652588 80.57830811 C127.68631976 80.59596249 123.49619536 80.60066327 119.30595565 80.60193968 C116.68617324 80.60336226 114.06641155 80.6076339 111.44663429 80.61293411 C102.30162362 80.63143317 93.15667122 80.63960496 84.01164246 80.63803101 C75.49614525 80.63682993 66.98090164 80.65792585 58.46546859 80.68951833 C51.1472445 80.71569857 43.82910315 80.72639756 36.51083261 80.72512019 C32.14321081 80.72461103 27.77581439 80.73026856 23.40823936 80.75147629 C19.2983823 80.77088799 15.1889649 80.77096335 11.07909203 80.75644302 C9.57470047 80.75435738 8.0702812 80.75904128 6.56593704 80.77116394 C-2.59029381 80.84014234 -9.59278297 80.60772633 -16.78791809 74.30258179 C-17.32674622 73.65160522 -17.86557434 73.00062866 -18.42073059 72.32992554 C-18.97502747 71.6815271 -19.52932434 71.03312866 -20.10041809 70.36508179 C-23.9465412 64.78300581 -23.86636673 59.56553777 -23.88166809 52.99789429 C-23.88832489 52.00292435 -23.89498169 51.00795441 -23.90184021 49.98283386 C-23.91194957 47.88069502 -23.91665776 45.77852421 -23.91633606 43.67636108 C-23.92070136 40.47635382 -23.9570182 37.27773516 -23.99494934 34.07797241 C-24.00081958 32.03045106 -24.00478759 29.98292319 -24.00666809 27.93539429 C-24.02822464 26.51156685 -24.02822464 26.51156685 -24.05021667 25.05897522 C-24.00102661 17.83057139 -22.38612203 12.50874698 -17.58088684 7.02523804 C-16.92991028 6.48640991 -16.27893372 5.94758179 -15.60823059 5.39242554 C-14.95983215 4.83812866 -14.31143372 4.28383179 -13.64338684 3.71273804 C-9.18858757 0.64332327 -5.36031972 0.01562072 0 0 Z M-5.54573059 19.26742554 C-8.88241194 24.76048601 -7.88008992 31.75633252 -7.86140442 37.98690796 C-7.85824501 40.19484869 -7.88172722 42.40144708 -7.90705872 44.60922241 C-7.90933219 46.02523636 -7.91003498 47.44125388 -7.90901184 48.85726929 C-7.9119928 50.13464966 -7.91497375 51.41203003 -7.91804504 52.7281189 C-7.50625174 56.64272053 -6.74015183 59.00378146 -4.54573059 62.26742554 C-0.80639386 64.19147827 2.31162717 64.51996461 6.48196411 64.52812195 C8.29672493 64.53874916 8.29672493 64.53874916 10.14814758 64.54959106 C12.12680313 64.54587494 12.12680313 64.54587494 14.14543152 64.54208374 C15.55513783 64.54643315 16.96484179 64.55161706 18.37454224 64.55757141 C22.19686787 64.57094783 26.01909454 64.57154162 29.84143901 64.56900811 C33.03477922 64.56793752 36.22809948 64.57282401 39.42143542 64.57761353 C46.95607694 64.58870393 54.4906686 64.5891487 62.02531433 64.58309937 C69.79327908 64.57705853 77.56106274 64.58937437 85.3289966 64.61066943 C92.00345766 64.62829275 98.67786111 64.63428566 105.35234457 64.63103169 C109.33644731 64.62921992 113.32042086 64.63184445 117.30450249 64.64574623 C121.05152456 64.65833197 124.79826457 64.65637361 128.54528236 64.64333534 C130.57181663 64.63984655 132.59835953 64.65114192 134.62486267 64.66290283 C135.83752304 64.65588852 137.05018341 64.64887421 138.29959106 64.64164734 C139.87441206 64.64189895 139.87441206 64.64189895 141.48104763 64.64215565 C145.00944796 64.19745359 147.41410513 63.08712802 150.45426941 61.26742554 C153.79095076 55.77436506 152.78862874 48.77851856 152.76994324 42.54794312 C152.76678383 40.34000239 152.79026604 38.133404 152.81559753 35.92562866 C152.81787101 34.50961471 152.8185738 33.09359719 152.81755066 31.67758179 C152.82053162 30.40020142 152.82351257 29.12282104 152.82658386 27.80673218 C152.41479056 23.89213055 151.64869064 21.53106961 149.45426941 18.26742554 C145.71493268 16.34337281 142.59691165 16.01488647 138.42657471 16.00672913 C136.61181389 15.99610191 136.61181389 15.99610191 134.76039124 15.98526001 C132.78173569 15.98897614 132.78173569 15.98897614 130.7631073 15.99276733 C129.35340098 15.98841793 127.94369703 15.98323401 126.53399658 15.97727966 C122.71167095 15.96390324 118.88944428 15.96330945 115.06709981 15.96584296 C111.8737596 15.96691355 108.68043934 15.96202707 105.4871034 15.95723754 C97.95246188 15.94614714 90.41787022 15.94570238 82.88322449 15.95175171 C75.11525974 15.95779254 67.34747607 15.94547671 59.57954222 15.92418164 C52.90508116 15.90655833 46.23067771 15.90056541 39.55619425 15.90381938 C35.57209151 15.90563116 31.58811796 15.90300663 27.60403633 15.88910484 C23.85701426 15.87651911 20.11027425 15.87847747 16.36325645 15.89151573 C14.33672219 15.89500453 12.31017929 15.88370916 10.28367615 15.87194824 C9.07101578 15.87896255 7.85835541 15.88597687 6.60894775 15.89320374 C5.03412675 15.89295212 5.03412675 15.89295212 3.42749119 15.89269543 C-0.10090914 16.33739749 -2.50556632 17.44772306 -5.54573059 19.26742554 Z " fill="#000000" transform="translate(95.54573059082031,359.7325744628906)"/>
<path d="M0 0 C1.55487373 -0.01564648 1.55487373 -0.01564648 3.14115906 -0.03160906 C4.27849991 -0.02268617 5.41584076 -0.01376328 6.58764648 -0.00457001 C8.40163689 -0.01392995 8.40163689 -0.01392995 10.25227356 -0.02347898 C13.61069497 -0.0366909 16.96822396 -0.03191306 20.32659149 -0.01953411 C23.94765828 -0.01049813 27.56864608 -0.02444609 31.18969727 -0.0354538 C38.28392102 -0.05325923 45.37797568 -0.04939009 52.47220612 -0.03780323 C58.2367746 -0.02877711 64.00129562 -0.02754134 69.76586914 -0.0318985 C70.99558425 -0.0328179 70.99558425 -0.0328179 72.2501421 -0.03375587 C73.91546505 -0.03503474 75.58078799 -0.0363316 77.24611092 -0.03764623 C92.869301 -0.04905796 108.49239727 -0.03592906 124.11557198 -0.01444477 C137.52688339 0.00342676 150.93805632 0.00032282 164.34936523 -0.01811981 C179.91587098 -0.03951609 195.48229447 -0.04795927 211.04881287 -0.03567076 C212.70807901 -0.03439653 214.36734516 -0.03313905 216.02661133 -0.0318985 C216.84304517 -0.0312814 217.65947901 -0.03066429 218.50065327 -0.03002849 C224.25965153 -0.02657186 230.0185977 -0.03241067 235.77758789 -0.04181671 C242.7939737 -0.0530243 249.81018047 -0.05002293 256.82654572 -0.02869374 C260.40784054 -0.01816643 263.98883664 -0.01408969 267.57012939 -0.02729034 C271.44853395 -0.04137015 275.32644715 -0.02458196 279.20483398 -0.00457001 C280.91084526 -0.01795434 280.91084526 -0.01795434 282.65132141 -0.03160906 C283.6879039 -0.02117807 284.72448639 -0.01074708 285.79248047 0 C286.68797104 0.00064941 287.58346161 0.00129882 288.50608826 0.00196791 C291.66799033 0.66525925 292.87852395 2.03916874 294.89624023 4.50336456 C295.42749023 6.50336456 295.42749023 6.50336456 295.39624023 8.50336456 C295.41170898 9.49336456 295.41170898 9.49336456 295.42749023 10.50336456 C294.65578106 13.40862264 293.18379681 14.59542407 290.89624023 16.50336456 C288.50608826 17.00476122 288.50608826 17.00476122 285.79248047 17.00672913 C284.23760674 17.02237561 284.23760674 17.02237561 282.65132141 17.03833818 C281.51398056 17.0294153 280.37663971 17.02049241 279.20483398 17.01129913 C277.39084358 17.02065908 277.39084358 17.02065908 275.54020691 17.03020811 C272.1817855 17.04342003 268.82425651 17.03864218 265.46588898 17.02626324 C261.84482218 17.01722725 258.22383439 17.03117522 254.6027832 17.04218292 C247.50855945 17.05998835 240.41450478 17.05611922 233.32027435 17.04453236 C227.55570587 17.03550624 221.79118484 17.03427047 216.02661133 17.03862762 C214.79689621 17.03954702 214.79689621 17.03954702 213.54233837 17.04048499 C211.87701542 17.04176387 210.21169248 17.04306072 208.54636955 17.04437536 C192.92317947 17.05578708 177.30008319 17.04265819 161.67690849 17.02117389 C148.26559708 17.00330236 134.85442415 17.0064063 121.44311523 17.02484894 C105.87660948 17.04624522 90.310186 17.05468839 74.7436676 17.04239988 C73.08440146 17.04112566 71.42513531 17.03986818 69.76586914 17.03862762 C68.9494353 17.03801052 68.13300146 17.03739342 67.2918272 17.03675762 C61.53282894 17.03330098 55.77388277 17.0391398 50.01489258 17.04854584 C42.99850677 17.05975342 35.9823 17.05675205 28.96593475 17.03542286 C25.38463993 17.02489556 21.80364383 17.02081882 18.22235107 17.03401947 C14.34394652 17.04809928 10.46603332 17.03131108 6.58764648 17.01129913 C4.88163521 17.02468346 4.88163521 17.02468346 3.14115906 17.03833818 C2.10457657 17.0279072 1.06799408 17.01747621 0 17.00672913 C-0.89549057 17.00607972 -1.79098114 17.00543031 -2.71360779 17.00476122 C-5.87550986 16.34146987 -7.08604348 14.96756039 -9.10375977 12.50336456 C-9.63500977 10.50336456 -9.63500977 10.50336456 -9.60375977 8.50336456 C-9.61922852 7.51336456 -9.61922852 7.51336456 -9.63500977 6.50336456 C-8.3147142 1.53284008 -4.78633225 0.00347105 0 0 Z " fill="#000000" transform="translate(113.103759765625,71.49663543701172)"/>
<path d="M0 0 C1.02994835 -0.00935994 1.02994835 -0.00935994 2.08070374 -0.01890898 C4.38097496 -0.03486111 6.68018972 -0.02222711 8.98046875 -0.00964355 C10.62972634 -0.01506373 12.27897909 -0.0221858 13.92822266 -0.03088379 C18.40757091 -0.04913268 22.886551 -0.04204323 27.36590576 -0.02936745 C32.05123901 -0.01924786 36.73654052 -0.02863023 41.421875 -0.03491211 C49.29042222 -0.04219156 57.15881932 -0.03259303 65.02734375 -0.0135498 C74.12742646 0.00821953 83.22715071 0.00116837 92.32722473 -0.02085543 C100.13710094 -0.03900097 107.94686917 -0.0415719 115.75675964 -0.03110075 C120.42269772 -0.02486116 125.08846725 -0.02404295 129.75439453 -0.0372467 C134.14085692 -0.04879232 138.52685669 -0.0408033 142.91326904 -0.01766968 C144.52414176 -0.01237565 146.13505333 -0.01390823 147.74591064 -0.02272034 C149.94311376 -0.03363283 152.13882949 -0.01996683 154.3359375 0 C156.18094849 0.00226215 156.18094849 0.00226215 158.06323242 0.00457001 C161.74951554 0.60221956 162.92356627 1.58295559 165.16796875 4.50793457 C165.69921875 6.50793457 165.69921875 6.50793457 165.66796875 8.50793457 C165.6834375 9.49793457 165.6834375 9.49793457 165.69921875 10.50793457 C164.91138424 13.47389977 163.55732468 14.60472758 161.16796875 16.50793457 C158.06323242 17.01129913 158.06323242 17.01129913 154.3359375 17.01586914 C153.64930527 17.0221091 152.96267303 17.02834907 152.25523376 17.03477812 C149.95496254 17.05073025 147.65574778 17.03809625 145.35546875 17.0255127 C143.70621116 17.03093287 142.05695841 17.03805494 140.40771484 17.04675293 C135.92836659 17.06500182 131.4493865 17.05791237 126.97003174 17.04523659 C122.28469849 17.035117 117.59939698 17.04449937 112.9140625 17.05078125 C105.04551528 17.0580607 97.17711818 17.04846217 89.30859375 17.02941895 C80.20851104 17.00764961 71.10878679 17.01470078 62.00871277 17.03672457 C54.19883656 17.05487011 46.38906833 17.05744104 38.57917786 17.04696989 C33.91323978 17.0407303 29.24747025 17.03991209 24.58154297 17.05311584 C20.19508058 17.06466146 15.80908081 17.05667244 11.42266846 17.03353882 C9.81179574 17.02824479 8.20088417 17.02977737 6.59002686 17.03858948 C4.39282374 17.04950197 2.19710801 17.03583597 0 17.01586914 C-1.84501099 17.01360699 -1.84501099 17.01360699 -3.72729492 17.01129913 C-7.41357804 16.41364958 -8.58762877 15.43291355 -10.83203125 12.50793457 C-11.36328125 10.50793457 -11.36328125 10.50793457 -11.33203125 8.50793457 C-11.3475 7.51793457 -11.3475 7.51793457 -11.36328125 6.50793457 C-9.79278824 0.59549028 -5.4395476 0.00666939 0 0 Z " fill="#000000" transform="translate(114.83203125,119.4920654296875)"/>
<path d="M0 0 C1.0094165 -0.0112793 2.01883301 -0.02255859 3.05883789 -0.03417969 C4.16026123 -0.02608276 5.26168457 -0.01798584 6.39648438 -0.00964355 C7.56107178 -0.01665283 8.72565918 -0.02366211 9.92553711 -0.03088379 C13.78067771 -0.04850975 17.63508612 -0.03682384 21.49023438 -0.02331543 C24.1653739 -0.026009 26.84049107 -0.02988396 29.515625 -0.03491211 C35.12442987 -0.0421874 40.733024 -0.03260414 46.34179688 -0.0135498 C52.82441344 0.008219 59.30652679 0.00116752 65.78913116 -0.02085543 C71.35700027 -0.03901302 76.92471797 -0.04156609 82.49260712 -0.03110075 C85.81719107 -0.02486765 89.14148689 -0.02559741 92.46606445 -0.0372467 C96.17238595 -0.04738291 99.87773545 -0.03195028 103.58398438 -0.00964355 C104.68540771 -0.01774048 105.78683105 -0.0258374 106.92163086 -0.03417969 C108.43575562 -0.01726074 108.43575562 -0.01726074 109.98046875 0 C110.85650757 0.0015081 111.73254639 0.0030162 112.63513184 0.00457001 C115.76922829 0.67443175 116.98468568 2.06729702 118.99023438 4.50793457 C119.52148438 6.50793457 119.52148438 6.50793457 119.49023438 8.50793457 C119.50570312 9.49793457 119.50570312 9.49793457 119.52148438 10.50793457 C118.75060311 13.41007581 117.27232168 14.5993654 114.99023438 16.50793457 C112.63513184 17.01129913 112.63513184 17.01129913 109.98046875 17.01586914 C108.97105225 17.02714844 107.96163574 17.03842773 106.92163086 17.05004883 C105.82020752 17.0419519 104.71878418 17.03385498 103.58398438 17.0255127 C102.41939697 17.03252197 101.25480957 17.03953125 100.05493164 17.04675293 C96.19979104 17.06437889 92.34538263 17.05269298 88.49023438 17.03918457 C85.81509485 17.04187814 83.13997768 17.0457531 80.46484375 17.05078125 C74.85603888 17.05805654 69.24744475 17.04847328 63.63867188 17.02941895 C57.15605531 17.00765014 50.67394196 17.01470162 44.19133759 17.03672457 C38.62346848 17.05488216 33.05575078 17.05743523 27.48786163 17.04696989 C24.16327768 17.04073679 20.83898186 17.04146655 17.5144043 17.05311584 C13.8080828 17.06325205 10.1027333 17.04781942 6.39648438 17.0255127 C5.29506104 17.03360962 4.1936377 17.04170654 3.05883789 17.05004883 C1.54471313 17.03312988 1.54471313 17.03312988 0 17.01586914 C-0.87603882 17.01436104 -1.75207764 17.01285294 -2.65466309 17.01129913 C-5.78875954 16.34143739 -7.00421693 14.94857212 -9.00976562 12.50793457 C-9.54101562 10.50793457 -9.54101562 10.50793457 -9.50976562 8.50793457 C-9.52523437 7.51793457 -9.52523437 7.51793457 -9.54101562 6.50793457 C-8.23625145 1.59588121 -4.74608273 0.00817039 0 0 Z " fill="#000000" transform="translate(113.009765625,391.4920654296875)"/>
<path d="M0 0 C1.0094165 -0.0112793 2.01883301 -0.02255859 3.05883789 -0.03417969 C4.16026123 -0.02608276 5.26168457 -0.01798584 6.39648438 -0.00964355 C7.56107178 -0.01665283 8.72565918 -0.02366211 9.92553711 -0.03088379 C13.78067771 -0.04850975 17.63508612 -0.03682384 21.49023438 -0.02331543 C24.1653739 -0.026009 26.84049107 -0.02988396 29.515625 -0.03491211 C35.12442987 -0.0421874 40.733024 -0.03260414 46.34179688 -0.0135498 C52.82441344 0.008219 59.30652679 0.00116752 65.78913116 -0.02085543 C71.35700027 -0.03901302 76.92471797 -0.04156609 82.49260712 -0.03110075 C85.81719107 -0.02486765 89.14148689 -0.02559741 92.46606445 -0.0372467 C96.17238595 -0.04738291 99.87773545 -0.03195028 103.58398438 -0.00964355 C104.68540771 -0.01774048 105.78683105 -0.0258374 106.92163086 -0.03417969 C108.43575562 -0.01726074 108.43575562 -0.01726074 109.98046875 0 C110.85650757 0.0015081 111.73254639 0.0030162 112.63513184 0.00457001 C115.76922829 0.67443175 116.98468568 2.06729702 118.99023438 4.50793457 C119.52148438 6.50793457 119.52148438 6.50793457 119.49023438 8.50793457 C119.50570312 9.49793457 119.50570312 9.49793457 119.52148438 10.50793457 C118.75060311 13.41007581 117.27232168 14.5993654 114.99023438 16.50793457 C112.63513184 17.01129913 112.63513184 17.01129913 109.98046875 17.01586914 C108.97105225 17.02714844 107.96163574 17.03842773 106.92163086 17.05004883 C105.82020752 17.0419519 104.71878418 17.03385498 103.58398438 17.0255127 C102.41939697 17.03252197 101.25480957 17.03953125 100.05493164 17.04675293 C96.19979104 17.06437889 92.34538263 17.05269298 88.49023438 17.03918457 C85.81509485 17.04187814 83.13997768 17.0457531 80.46484375 17.05078125 C74.85603888 17.05805654 69.24744475 17.04847328 63.63867188 17.02941895 C57.15605531 17.00765014 50.67394196 17.01470162 44.19133759 17.03672457 C38.62346848 17.05488216 33.05575078 17.05743523 27.48786163 17.04696989 C24.16327768 17.04073679 20.83898186 17.04146655 17.5144043 17.05311584 C13.8080828 17.06325205 10.1027333 17.04781942 6.39648438 17.0255127 C5.29506104 17.03360962 4.1936377 17.04170654 3.05883789 17.05004883 C1.54471313 17.03312988 1.54471313 17.03312988 0 17.01586914 C-0.87603882 17.01436104 -1.75207764 17.01285294 -2.65466309 17.01129913 C-5.78875954 16.34143739 -7.00421693 14.94857212 -9.00976562 12.50793457 C-9.54101562 10.50793457 -9.54101562 10.50793457 -9.50976562 8.50793457 C-9.52523437 7.51793457 -9.52523437 7.51793457 -9.54101562 6.50793457 C-8.23625145 1.59588121 -4.74608273 0.00817039 0 0 Z " fill="#000000" transform="translate(113.009765625,167.4920654296875)"/>
<path d="M0 0 C1.00853027 -0.00700928 2.01706055 -0.01401855 3.05615234 -0.02124023 C6.39188114 -0.03885406 9.72676248 -0.02718497 13.0625 -0.01367188 C15.37890791 -0.0163658 17.69531472 -0.02024739 20.01171875 -0.02526855 C24.86729698 -0.03116822 29.72258096 -0.02258526 34.578125 -0.00390625 C40.80614646 0.01888316 47.03347845 0.00576265 53.26147461 -0.01819611 C58.04497485 -0.0326412 62.82831127 -0.02805393 67.61181641 -0.01768494 C69.90836671 -0.0150141 72.20493183 -0.01829988 74.50146484 -0.02760315 C77.7097114 -0.03774714 80.91683706 -0.02229671 84.125 0 C85.55271729 -0.01214539 85.55271729 -0.01214539 87.00927734 -0.02453613 C93.43945009 0.05837271 93.43945009 0.05837271 96.65039062 2.42492676 C98.17562415 4.68522053 98.60471773 5.81564333 98.5625 8.51757812 C98.57796875 9.50757813 98.57796875 9.50757813 98.59375 10.51757812 C97.77143622 13.61334764 96.65975504 14.60332765 94.0625 16.51757812 C90.75626211 17.12830568 87.47912473 17.06368931 84.125 17.03515625 C83.11646973 17.04216553 82.10793945 17.0491748 81.06884766 17.05639648 C77.73311886 17.07401031 74.39823752 17.06234122 71.0625 17.04882812 C68.74609209 17.05152205 66.42968528 17.05540364 64.11328125 17.0604248 C59.25770302 17.06632447 54.40241904 17.05774151 49.546875 17.0390625 C43.31885354 17.01627309 37.09152155 17.0293936 30.86352539 17.05335236 C26.08002515 17.06779745 21.29668873 17.06321018 16.51318359 17.05284119 C14.21663329 17.05017035 11.92006817 17.05345613 9.62353516 17.0627594 C6.4152886 17.07290339 3.20816294 17.05745296 0 17.03515625 C-0.95181152 17.04325317 -1.90362305 17.0513501 -2.88427734 17.05969238 C-9.31445009 16.97678354 -9.31445009 16.97678354 -12.52539062 14.61022949 C-14.05062415 12.34993572 -14.47971773 11.21951292 -14.4375 8.51757812 C-14.45296875 7.52757813 -14.45296875 7.52757813 -14.46875 6.51757812 C-12.53367962 -0.76739273 -6.18858895 -0.05264544 0 0 Z " fill="#000000" transform="translate(309.9375,119.482421875)"/>
</svg>
