<svg width="25" height="24" viewBox="0 0 25 24" fill="none" xmlns="http://www.w3.org/2000/svg">
<path d="M15.5 22.75H9.5C4.07 22.75 1.75 20.43 1.75 15V9C1.75 3.57 4.07 1.25 9.5 1.25H15.5C20.93 1.25 23.25 3.57 23.25 9V15C23.25 20.43 20.93 22.75 15.5 22.75ZM9.5 2.75C4.89 2.75 3.25 4.39 3.25 9V15C3.25 19.61 4.89 21.25 9.5 21.25H15.5C20.11 21.25 21.75 19.61 21.75 15V9C21.75 4.39 20.11 2.75 15.5 2.75H9.5Z" fill="#637381"/>
<path d="M14.5 17.75H10.5C8.43 17.75 6.75 16.07 6.75 14V10C6.75 7.93 8.43 6.25 10.5 6.25H14.5C16.57 6.25 18.25 7.93 18.25 10V14C18.25 16.07 16.57 17.75 14.5 17.75ZM10.5 7.75C9.26 7.75 8.25 8.76 8.25 10V14C8.25 15.24 9.26 16.25 10.5 16.25H14.5C15.74 16.25 16.75 15.24 16.75 14V10C16.75 8.76 15.74 7.75 14.5 7.75H10.5Z" fill="#637381"/>
<path d="M12.5 17.75C12.09 17.75 11.75 17.41 11.75 17V7C11.75 6.59 12.09 6.25 12.5 6.25C12.91 6.25 13.25 6.59 13.25 7V17C13.25 17.41 12.91 17.75 12.5 17.75Z" fill="#637381"/>
<path d="M17.5 12.75H7.5C7.09 12.75 6.75 12.41 6.75 12C6.75 11.59 7.09 11.25 7.5 11.25H17.5C17.91 11.25 18.25 11.59 18.25 12C18.25 12.41 17.91 12.75 17.5 12.75Z" fill="#637381"/>
</svg>
