<svg width="21" height="21" viewBox="0 0 21 21" fill="none" xmlns="http://www.w3.org/2000/svg">
<path fill-rule="evenodd" clip-rule="evenodd" d="M14.8034 14.2443L17.6426 17.0751C17.8007 17.2319 17.8896 17.4454 17.8896 17.668C17.8896 17.8907 17.8007 18.1041 17.6426 18.2609C17.4858 18.419 17.2724 18.508 17.0497 18.508C16.8271 18.508 16.6136 18.419 16.4568 18.2609L13.6259 15.4217C12.4589 16.3378 11.0177 16.8348 9.5341 16.833C5.84453 16.833 2.85355 13.842 2.85355 10.1524C2.85355 6.46285 5.84453 3.47186 9.5341 3.47186C13.2237 3.47186 16.2147 6.46285 16.2147 10.1524C16.2165 11.636 15.7194 13.0772 14.8034 14.2443ZM9.5341 5.142C6.76692 5.142 4.52368 7.38524 4.52368 10.1524C4.52368 12.9196 6.76692 15.1628 9.5341 15.1628C12.3013 15.1628 14.5445 12.9196 14.5445 10.1524C14.5445 7.38524 12.3013 5.142 9.5341 5.142Z" fill="#637381"/>
</svg>
