<svg width="33" height="33" viewBox="0 0 33 33" fill="none" xmlns="http://www.w3.org/2000/svg">
<rect x="0.627502" y="0.0125122" width="32" height="32" rx="12" fill="#B145B3" fill-opacity="0.16"/>
<path d="M8.62756 16.0267C8.62756 14.5773 8.98991 13.2345 9.70749 12.0054C10.4251 10.7763 11.3984 9.80292 12.6276 9.08534C13.8567 8.36775 15.1924 8.01251 16.6347 8.01251C17.7146 8.01251 18.7519 8.22566 19.7395 8.64484C20.727 9.06402 21.5725 9.63951 22.2901 10.35C23.0077 11.0605 23.5761 11.913 23.9952 12.9077C24.4144 13.9024 24.6276 14.9326 24.6276 16.0267C24.6276 17.1067 24.4144 18.144 23.9952 19.1315C23.5761 20.1191 23.0006 20.9717 22.2901 21.6821C21.5796 22.3926 20.727 22.961 19.7395 23.3802C18.7519 23.7994 17.7217 24.0125 16.6347 24.0125C15.5476 24.0125 14.5032 23.7994 13.5157 23.3802C12.5281 22.961 11.6755 22.3855 10.9579 21.675C10.2404 20.9646 9.67907 20.112 9.25279 19.1315C8.8265 18.1511 8.62756 17.1138 8.62756 16.0267ZM10.3896 16.0267C10.3896 17.7106 11.0006 19.1741 12.2297 20.4175C13.4588 21.6466 14.9224 22.2576 16.6347 22.2576C17.7572 22.2576 18.8016 21.9805 19.7537 21.4193C20.7057 20.858 21.473 20.1049 22.0343 19.1457C22.5956 18.1866 22.8798 17.1493 22.8798 16.0267C22.8798 14.9042 22.5956 13.8598 22.0343 12.9006C21.473 11.9415 20.7128 11.1813 19.7537 10.62C18.7945 10.0587 17.7572 9.78161 16.6347 9.78161C15.5121 9.78161 14.4677 10.0587 13.5157 10.62C12.5636 11.1813 11.7963 11.9415 11.2279 12.9006C10.6595 13.8598 10.3896 14.9042 10.3896 16.0267ZM16.0166 16.0267V11.2949C16.0166 11.1315 16.0734 10.9894 16.1871 10.8757C16.3007 10.7621 16.4428 10.7052 16.6062 10.7052C16.7697 10.7052 16.9118 10.7621 17.0254 10.8757C17.1391 10.9894 17.1959 11.1315 17.1959 11.2949V15.8562L18.7235 18.5844C18.8087 18.7336 18.8229 18.89 18.7803 19.0463C18.7377 19.2026 18.6453 19.3233 18.5032 19.4086C18.4132 19.4545 18.3129 19.4765 18.2119 19.4725C17.9775 19.4725 17.7999 19.3731 17.6933 19.1813L16.1302 16.4104C16.0556 16.2964 16.0161 16.163 16.0166 16.0267Z" fill="#9035A6"/>
</svg>
