<svg width="16" height="17" viewBox="0 0 16 17" fill="none" xmlns="http://www.w3.org/2000/svg">
<path d="M5.33337 15.3799C5.14671 15.3799 4.95336 15.3332 4.78003 15.2399C4.40003 15.0399 4.16671 14.6399 4.16671 14.2132V13.2666C2.15337 13.0599 0.833374 11.5799 0.833374 9.45988V5.45992C0.833374 3.16659 2.37337 1.62659 4.66671 1.62659H11.3334C13.6267 1.62659 15.1667 3.16659 15.1667 5.45992V9.45988C15.1667 11.7532 13.6267 13.2932 11.3334 13.2932H8.82003L5.98002 15.1866C5.78669 15.3133 5.56004 15.3799 5.33337 15.3799ZM4.66671 2.61991C2.94671 2.61991 1.83337 3.73325 1.83337 5.45325V9.45329C1.83337 11.1733 2.94671 12.2866 4.66671 12.2866C4.94004 12.2866 5.16671 12.5133 5.16671 12.7866V14.2066C5.16671 14.2933 5.22004 14.3333 5.25338 14.3533C5.28671 14.3733 5.35338 14.3933 5.42672 14.3466L8.39339 12.3733C8.47339 12.32 8.57338 12.2866 8.67338 12.2866H11.34C13.06 12.2866 14.1734 11.1733 14.1734 9.45329V5.45325C14.1734 3.73325 13.06 2.61991 11.34 2.61991H4.66671V2.61991Z" fill="#1038FA"/>
<path d="M7.99984 8.57336C7.7265 8.57336 7.49984 8.3467 7.49984 8.07336V7.93339C7.49984 7.16006 8.06649 6.78005 8.27983 6.63338C8.52649 6.46672 8.60649 6.35339 8.60649 6.18005C8.60649 5.84672 8.33317 5.57336 7.99984 5.57336C7.6665 5.57336 7.39319 5.84672 7.39319 6.18005C7.39319 6.45339 7.16652 6.68005 6.89319 6.68005C6.61986 6.68005 6.39319 6.45339 6.39319 6.18005C6.39319 5.29339 7.11317 4.57336 7.99984 4.57336C8.8865 4.57336 9.60649 5.29339 9.60649 6.18005C9.60649 6.94005 9.04651 7.32004 8.83984 7.46004C8.57984 7.63338 8.49984 7.74672 8.49984 7.93339V8.07336C8.49984 8.35336 8.27317 8.57336 7.99984 8.57336Z" fill="#1038FA"/>
<path d="M8 10.2333C7.72 10.2333 7.5 10.0066 7.5 9.73328C7.5 9.45994 7.72667 9.23328 8 9.23328C8.27333 9.23328 8.5 9.45994 8.5 9.73328C8.5 10.0066 8.28 10.2333 8 10.2333Z" fill="#1038FA"/>
</svg>
