<svg width="25" height="24" viewBox="0 0 25 24" fill="none" xmlns="http://www.w3.org/2000/svg">
<path d="M12.9954 20.53C10.6654 20.53 8.3354 20.16 6.1254 19.42C5.2854 19.13 4.6454 18.54 4.3654 17.77C4.0754 17 4.1754 16.15 4.6354 15.39L5.7854 13.48C6.0254 13.08 6.2454 12.28 6.2454 11.81V8.91998C6.2454 5.19998 9.2754 2.16998 12.9954 2.16998C16.7154 2.16998 19.7454 5.19998 19.7454 8.91998V11.81C19.7454 12.27 19.9654 13.08 20.2054 13.49L21.3454 15.39C21.7754 16.11 21.8554 16.98 21.5654 17.77C21.2754 18.56 20.6454 19.16 19.8554 19.42C17.6554 20.16 15.3254 20.53 12.9954 20.53ZM12.9954 3.66998C10.1054 3.66998 7.7454 6.01998 7.7454 8.91998V11.81C7.7454 12.54 7.4454 13.62 7.0754 14.25L5.9254 16.16C5.7054 16.53 5.6454 16.92 5.7754 17.25C5.8954 17.59 6.1954 17.85 6.6054 17.99C10.7854 19.39 15.2154 19.39 19.3954 17.99C19.7554 17.87 20.0354 17.6 20.1654 17.24C20.2954 16.88 20.2654 16.49 20.0654 16.16L18.9154 14.25C18.5354 13.6 18.2454 12.53 18.2454 11.8V8.91998C18.2454 6.01998 15.8954 3.66998 12.9954 3.66998Z" fill="#353535"/>
<path d="M14.8554 3.93999C14.7854 3.93999 14.7154 3.92999 14.6454 3.90999C14.3554 3.82999 14.0754 3.76999 13.8054 3.72999C12.9554 3.61999 12.1354 3.67999 11.3654 3.90999C11.0854 3.99999 10.7854 3.90999 10.5954 3.69999C10.4054 3.48999 10.3454 3.18999 10.4554 2.91999C10.8654 1.86999 11.8654 1.17999 13.0054 1.17999C14.1454 1.17999 15.1454 1.85999 15.5554 2.91999C15.6554 3.18999 15.6054 3.48999 15.4154 3.69999C15.2654 3.85999 15.0554 3.93999 14.8554 3.93999Z" fill="#353535"/>
<path d="M12.9954 22.81C12.0054 22.81 11.0454 22.41 10.3454 21.71C9.64541 21.01 9.24541 20.05 9.24541 19.06H10.7454C10.7454 19.65 10.9854 20.23 11.4054 20.65C11.8254 21.07 12.4054 21.31 12.9954 21.31C14.2354 21.31 15.2454 20.3 15.2454 19.06H16.7454C16.7454 21.13 15.0654 22.81 12.9954 22.81Z" fill="#353535"/>
</svg>
