<svg width="25" height="24" viewBox="0 0 25 24" fill="none" xmlns="http://www.w3.org/2000/svg">
<path d="M12.9504 15.75C10.8804 15.75 9.20041 14.07 9.20041 12C9.20041 9.93 10.8804 8.25 12.9504 8.25C15.0204 8.25 16.7004 9.93 16.7004 12C16.7004 14.07 15.0204 15.75 12.9504 15.75ZM12.9504 9.75C11.7104 9.75 10.7004 10.76 10.7004 12C10.7004 13.24 11.7104 14.25 12.9504 14.25C14.1904 14.25 15.2004 13.24 15.2004 12C15.2004 10.76 14.1904 9.75 12.9504 9.75Z" fill="#353535"/>
<path d="M16.1604 22.19C15.9504 22.19 15.7404 22.16 15.5304 22.11C14.9104 21.94 14.3904 21.55 14.0604 21L13.9404 20.8C13.3504 19.78 12.5404 19.78 11.9504 20.8L11.8404 20.99C11.5104 21.55 10.9904 21.95 10.3704 22.11C9.74041 22.28 9.09041 22.19 8.54041 21.86L6.82041 20.87C6.21041 20.52 5.77041 19.95 5.58041 19.26C5.40041 18.57 5.49041 17.86 5.84041 17.25C6.13041 16.74 6.21041 16.28 6.04041 15.99C5.87041 15.7 5.44041 15.53 4.85041 15.53C3.39041 15.53 2.20041 14.34 2.20041 12.88V11.12C2.20041 9.65998 3.39041 8.46998 4.85041 8.46998C5.44041 8.46998 5.87041 8.29998 6.04041 8.00998C6.21041 7.71998 6.14041 7.25998 5.84041 6.74998C5.49041 6.13998 5.40041 5.41998 5.58041 4.73998C5.76041 4.04998 6.20041 3.47998 6.82041 3.12998L8.55041 2.13998C9.68041 1.46998 11.1704 1.85998 11.8504 3.00998L11.9704 3.20998C12.5604 4.22998 13.3704 4.22998 13.9604 3.20998L14.0704 3.01998C14.7504 1.85998 16.2404 1.46998 17.3804 2.14998L19.1004 3.13998C19.7104 3.48998 20.1504 4.05998 20.3404 4.74998C20.5204 5.43998 20.4304 6.14998 20.0804 6.75998C19.7904 7.26998 19.7104 7.72998 19.8804 8.01998C20.0504 8.30998 20.4804 8.47998 21.0704 8.47998C22.5304 8.47998 23.7204 9.66998 23.7204 11.13V12.89C23.7204 14.35 22.5304 15.54 21.0704 15.54C20.4804 15.54 20.0504 15.71 19.8804 16C19.7104 16.29 19.7804 16.75 20.0804 17.26C20.4304 17.87 20.5304 18.59 20.3404 19.27C20.1604 19.96 19.7204 20.53 19.1004 20.88L17.3704 21.87C16.9904 22.08 16.5804 22.19 16.1604 22.19ZM12.9504 18.49C13.8404 18.49 14.6704 19.05 15.2404 20.04L15.3504 20.23C15.4704 20.44 15.6704 20.59 15.9104 20.65C16.1504 20.71 16.3904 20.68 16.5904 20.56L18.3204 19.56C18.5804 19.41 18.7804 19.16 18.8604 18.86C18.9404 18.56 18.9004 18.25 18.7504 17.99C18.1804 17.01 18.1104 16 18.5504 15.23C18.9904 14.46 19.9004 14.02 21.0404 14.02C21.6804 14.02 22.1904 13.51 22.1904 12.87V11.11C22.1904 10.48 21.6804 9.95998 21.0404 9.95998C19.9004 9.95998 18.9904 9.51998 18.5504 8.74998C18.1104 7.97998 18.1804 6.96998 18.7504 5.98998C18.9004 5.72998 18.9404 5.41998 18.8604 5.11998C18.7804 4.81998 18.5904 4.57998 18.3304 4.41998L16.6004 3.42998C16.1704 3.16998 15.6004 3.31998 15.3404 3.75998L15.2304 3.94998C14.6604 4.93998 13.8304 5.49998 12.9404 5.49998C12.0504 5.49998 11.2204 4.93998 10.6504 3.94998L10.5404 3.74998C10.2904 3.32998 9.73041 3.17998 9.30041 3.42998L7.57041 4.42998C7.31041 4.57998 7.11041 4.82998 7.03041 5.12998C6.95041 5.42998 6.99041 5.73998 7.14041 5.99998C7.71041 6.97998 7.78041 7.98998 7.34041 8.75998C6.90041 9.52998 5.99041 9.96998 4.85041 9.96998C4.21041 9.96998 3.70041 10.48 3.70041 11.12V12.88C3.70041 13.51 4.21041 14.03 4.85041 14.03C5.99041 14.03 6.90041 14.47 7.34041 15.24C7.78041 16.01 7.71041 17.02 7.14041 18C6.99041 18.26 6.95041 18.57 7.03041 18.87C7.11041 19.17 7.30041 19.41 7.56041 19.57L9.29041 20.56C9.50041 20.69 9.75041 20.72 9.98041 20.66C10.2204 20.6 10.4204 20.44 10.5504 20.23L10.6604 20.04C11.2304 19.06 12.0604 18.49 12.9504 18.49Z" fill="#353535"/>
</svg>
