<svg width="24" height="24" viewBox="0 0 24 24" fill="none" xmlns="http://www.w3.org/2000/svg">
<path opacity="0.5" d="M22 12C22 16.714 22 19.071 20.535 20.535C19.072 22 16.714 22 12 22C7.286 22 4.929 22 3.464 20.535C2 19.072 2 16.714 2 12C2 7.286 2 4.929 3.464 3.464C4.93 2 7.286 2 12 2C16.714 2 19.071 2 20.535 3.464C22 4.93 22 7.286 22 12Z" fill="#637381"/>
<path d="M22 5C22 5.79565 21.6839 6.55871 21.1213 7.12132C20.5587 7.68393 19.7956 8 19 8C18.2044 8 17.4413 7.68393 16.8787 7.12132C16.3161 6.55871 16 5.79565 16 5C16 4.20435 16.3161 3.44129 16.8787 2.87868C17.4413 2.31607 18.2044 2 19 2C19.7956 2 20.5587 2.31607 21.1213 2.87868C21.6839 3.44129 22 4.20435 22 5Z" fill="#637381"/>
</svg>
