<svg width="33" height="33" viewBox="0 0 33 33" fill="none" xmlns="http://www.w3.org/2000/svg">
<rect x="0.627502" y="0.0125122" width="32" height="32" rx="12" fill="#00B8D9" fill-opacity="0.16"/>
<path fill-rule="evenodd" clip-rule="evenodd" d="M16.6275 6.01251C11.1047 6.01251 6.6275 10.4897 6.6275 16.0125C6.6275 21.5354 11.1047 26.0125 16.6275 26.0125C22.1504 26.0125 26.6275 21.5354 26.6275 16.0125C26.6275 13.3603 25.5739 10.8168 23.6986 8.94144C21.8232 7.06608 19.2797 6.01251 16.6275 6.01251ZM17.6275 20.0125C17.6275 20.5648 17.1798 21.0125 16.6275 21.0125C16.0752 21.0125 15.6275 20.5648 15.6275 20.0125V15.0125C15.6275 14.4602 16.0752 14.0125 16.6275 14.0125C17.1798 14.0125 17.6275 14.4602 17.6275 15.0125V20.0125ZM15.6275 12.0125C15.6275 12.5648 16.0752 13.0125 16.6275 13.0125C17.1798 13.0125 17.6275 12.5648 17.6275 12.0125C17.6275 11.4602 17.1798 11.0125 16.6275 11.0125C16.0752 11.0125 15.6275 11.4602 15.6275 12.0125Z" fill="#00B8D9"/>
</svg>
