<svg width="24" height="25" viewBox="0 0 24 25" fill="none" xmlns="http://www.w3.org/2000/svg">
<path d="M17.9746 11.3368V15.2923C17.9746 15.5494 17.9647 15.7967 17.9351 16.034C17.7076 18.704 16.1353 20.0291 13.2378 20.0291H12.8423C12.5951 20.0291 12.3577 20.1477 12.2094 20.3455L11.0227 21.9278C10.4986 22.6299 9.64818 22.6299 9.12407 21.9278L7.93739 20.3455C7.80883 20.1774 7.52207 20.0291 7.30452 20.0291H6.90897C3.75441 20.0291 2.17218 19.2479 2.17218 15.2923V11.3368C2.17218 8.43932 3.50719 6.86698 6.1673 6.63954C6.40463 6.60987 6.65186 6.59998 6.90897 6.59998H13.2378C16.3924 6.59998 17.9746 8.18221 17.9746 11.3368Z" fill="#F5F5F5" stroke="#637381" stroke-width="1.48333" stroke-miterlimit="10" stroke-linecap="round" stroke-linejoin="round"/>
<path opacity="0.4" d="M21.9302 7.3812V11.3368C21.9302 14.2441 20.5952 15.8065 17.9351 16.034C17.9647 15.7966 17.9746 15.5494 17.9746 15.2923V11.3368C17.9746 8.1822 16.3924 6.59996 13.2378 6.59996H6.90896C6.65185 6.59996 6.40463 6.60986 6.1673 6.63953C6.39474 3.97942 7.96708 2.64441 10.8645 2.64441H17.1934C20.348 2.64441 21.9302 4.22664 21.9302 7.3812Z" fill="#F5F5F5" stroke="#637381" stroke-width="1.48333" stroke-miterlimit="10" stroke-linecap="round" stroke-linejoin="round"/>
<g opacity="0.4">
<path fill-rule="evenodd" clip-rule="evenodd" d="M13.54 13.7693H13.5489Z" fill="#F5F5F5"/>
<path d="M13.54 13.7693H13.5489" stroke="#637381" stroke-width="1.97778" stroke-linecap="round" stroke-linejoin="round"/>
</g>
<path opacity="0.4" d="M10.0789 13.7693H10.0878" stroke="#637381" stroke-width="1.97778" stroke-linecap="round" stroke-linejoin="round"/>
<path opacity="0.4" d="M6.61774 13.7693H6.62664" stroke="#637381" stroke-width="1.97778" stroke-linecap="round" stroke-linejoin="round"/>
</svg>
