<svg width="24" height="25" viewBox="0 0 24 25" fill="none" xmlns="http://www.w3.org/2000/svg">
<path d="M21.9203 18.6597C21.9203 19.0157 21.8412 19.3816 21.6731 19.7376C21.505 20.0936 21.2874 20.4298 21.0007 20.7462C20.5161 21.2802 19.9821 21.6659 19.3789 21.9131C18.7855 22.1603 18.1428 22.2889 17.4505 22.2889C16.4419 22.2889 15.364 22.0516 14.2268 21.567C13.0895 21.0824 11.9523 20.4298 10.825 19.609C9.68777 18.7783 8.60988 17.8587 7.58143 16.8401C6.56288 15.8117 5.64321 14.7338 4.82243 13.6064C4.01154 12.4791 3.35888 11.3518 2.88421 10.2343C2.40954 9.107 2.17221 8.02911 2.17221 7.00066C2.17221 6.32822 2.29088 5.68544 2.52821 5.09211C2.76554 4.48889 3.14132 3.93511 3.66543 3.44066C4.29832 2.81766 4.99054 2.51111 5.72232 2.51111C5.99921 2.51111 6.2761 2.57044 6.52332 2.68911C6.78043 2.80778 7.00788 2.98578 7.18588 3.24289L9.4801 6.47655C9.6581 6.72378 9.78665 6.95122 9.87565 7.16877C9.96465 7.37644 10.0141 7.58411 10.0141 7.772C10.0141 8.00933 9.94488 8.24666 9.80643 8.47411C9.67788 8.70155 9.48999 8.93889 9.25265 9.17622L8.5011 9.95744C8.39232 10.0662 8.34288 10.1948 8.34288 10.353C8.34288 10.4321 8.35277 10.5013 8.37254 10.5804C8.40221 10.6596 8.43188 10.7189 8.45166 10.7782C8.62966 11.1046 8.93621 11.5298 9.37132 12.044C9.81632 12.5582 10.291 13.0823 10.8052 13.6064C11.3392 14.1306 11.8534 14.6151 12.3775 15.0601C12.8918 15.4952 13.317 15.7919 13.6532 15.9699C13.7027 15.9897 13.762 16.0193 13.8312 16.049C13.9103 16.0787 13.9894 16.0886 14.0784 16.0886C14.2465 16.0886 14.3751 16.0292 14.4839 15.9204L15.2354 15.1788C15.4827 14.9316 15.72 14.7437 15.9474 14.625C16.1749 14.4866 16.4023 14.4173 16.6495 14.4173C16.8374 14.4173 17.0352 14.4569 17.2528 14.5459C17.4703 14.6349 17.6978 14.7634 17.945 14.9316L21.2182 17.2554C21.4753 17.4334 21.6533 17.6411 21.7621 17.8883C21.861 18.1356 21.9203 18.3828 21.9203 18.6597Z" fill="#3AA9D0" fill-opacity="0.14" stroke="#637381" stroke-width="1.48333" stroke-miterlimit="10"/>
<g opacity="0.4">
<path d="M18.4889 9.43328C18.4889 8.83995 18.0241 7.93017 17.3319 7.1885C16.699 6.50617 15.8584 5.97217 15.0278 5.97217" fill="#3AA9D0" fill-opacity="0.14"/>
<path d="M18.4889 9.43328C18.4889 8.83995 18.0241 7.93017 17.3319 7.1885C16.699 6.50617 15.8584 5.97217 15.0278 5.97217" stroke="#637381" stroke-width="1.48333" stroke-linecap="round" stroke-linejoin="round"/>
</g>
<g opacity="0.4">
<path d="M21.95 9.43333C21.95 5.60633 18.8548 2.51111 15.0278 2.51111Z" fill="#3AA9D0" fill-opacity="0.14"/>
<path d="M21.95 9.43333C21.95 5.60633 18.8548 2.51111 15.0278 2.51111" stroke="#637381" stroke-width="1.48333" stroke-linecap="round" stroke-linejoin="round"/>
</g>
</svg>
