<svg width="24" height="25" viewBox="0 0 24 25" fill="none" xmlns="http://www.w3.org/2000/svg">
<path d="M12.061 12.1777C14.7918 12.1777 17.0055 9.964 17.0055 7.23326C17.0055 4.50252 14.7918 2.28882 12.061 2.28882C9.33028 2.28882 7.11658 4.50252 7.11658 7.23326C7.11658 9.964 9.33028 12.1777 12.061 12.1777Z" fill="#F6F8FB" stroke="#637381" stroke-width="1.48333" stroke-linecap="round" stroke-linejoin="round"/>
<g opacity="0.4">
<path d="M3.56653 22.0666C3.56653 18.2396 7.37378 15.1444 12.0611 15.1444Z" fill="#F6F8FB"/>
<path d="M3.56653 22.0666C3.56653 18.2396 7.37378 15.1444 12.0611 15.1444" stroke="#637381" stroke-width="1.48333" stroke-linecap="round" stroke-linejoin="round"/>
</g>
<path d="M18.1922 21.4733C19.9398 21.4733 21.3566 20.0565 21.3566 18.3089C21.3566 16.5612 19.9398 15.1444 18.1922 15.1444C16.4445 15.1444 15.0277 16.5612 15.0277 18.3089C15.0277 20.0565 16.4445 21.4733 18.1922 21.4733Z" fill="#F6F8FB" stroke="#637381" stroke-width="1.48333" stroke-linecap="round" stroke-linejoin="round"/>
<path d="M21.9499 22.0666L20.9611 21.0778" stroke="#637381" stroke-width="1.48333" stroke-linecap="round" stroke-linejoin="round"/>
</svg>
