<svg width="58" height="58" viewBox="0 0 58 58" fill="none" xmlns="http://www.w3.org/2000/svg">
<circle cx="28.6049" cy="29.075" r="26.6" stroke="#FFAB00" stroke-width="4"/>
<path opacity="0.4" d="M29.0053 33.075V36.075" stroke="#FFD785" stroke-width="1.5" stroke-miterlimit="10" stroke-linecap="round" stroke-linejoin="round"/>
<path d="M29.0053 40.075C30.1098 40.075 31.0053 39.1796 31.0053 38.075C31.0053 36.9704 30.1098 36.075 29.0053 36.075C27.9007 36.075 27.0053 36.9704 27.0053 38.075C27.0053 39.1796 27.9007 40.075 29.0053 40.075Z" stroke="#FFD785" stroke-width="1.5" stroke-miterlimit="10" stroke-linecap="round" stroke-linejoin="round"/>
<path opacity="0.4" d="M35.0053 38.075H31.0053" stroke="#FFD785" stroke-width="1.5" stroke-miterlimit="10" stroke-linecap="round" stroke-linejoin="round"/>
<path opacity="0.4" d="M27.0053 38.075H23.0053" stroke="#FFD785" stroke-width="1.5" stroke-miterlimit="10" stroke-linecap="round" stroke-linejoin="round"/>
<path d="M36.0053 25.3751V29.575C36.0053 32.375 35.3053 33.075 32.5053 33.075H25.5053C22.7053 33.075 22.0053 32.375 22.0053 29.575V22.575C22.0053 19.775 22.7053 19.075 25.5053 19.075H26.5553C27.6053 19.075 27.8353 19.385 28.2353 19.915L29.2853 21.315C29.5553 21.665 29.7053 21.8751 30.4053 21.8751H32.5053C35.3053 21.8751 36.0053 22.5751 36.0053 25.3751Z" stroke="#FFD785" stroke-width="1.5" stroke-miterlimit="10"/>
</svg>
