<svg width="59" height="58" viewBox="0 0 59 58" fill="none" xmlns="http://www.w3.org/2000/svg">
<g opacity="0.48">
<circle cx="29.523" cy="29.075" r="26.6" stroke="#919EAB" stroke-opacity="0.16" stroke-width="4"/>
<path d="M2.92303 29.075C2.92303 43.7658 14.8323 55.675 29.523 55.675C44.2138 55.675 56.123 43.7658 56.123 29.075C56.123 14.3843 44.2138 2.47504 29.523 2.47504" stroke="#00B8D9" stroke-width="4" stroke-linecap="round" stroke-linejoin="round"/>
</g>
<path d="M29.9234 29.075C32.6848 29.075 34.9234 26.8364 34.9234 24.075C34.9234 21.3136 32.6848 19.075 29.9234 19.075C27.162 19.075 24.9234 21.3136 24.9234 24.075C24.9234 26.8364 27.162 29.075 29.9234 29.075Z" stroke="#00B8D9" stroke-width="1.5" stroke-linecap="round" stroke-linejoin="round"/>
<path opacity="0.4" d="M38.5134 39.075C38.5134 35.205 34.6634 32.075 29.9234 32.075C25.1834 32.075 21.3334 35.205 21.3334 39.075" stroke="#00B8D9" stroke-width="1.5" stroke-linecap="round" stroke-linejoin="round"/>
</svg>
