<?xml version="1.0" encoding="utf-8"?>
<!-- Generator: Adobe Illustrator 22.0.1, SVG Export Plug-In . SVG Version: 6.00 Build 0)  -->
<svg version="1.1" id="katman_1" xmlns="http://www.w3.org/2000/svg" xmlns:xlink="http://www.w3.org/1999/xlink" x="0px" y="0px"
	 viewBox="0 0 841.9 595.3" style="enable-background:new 0 0 841.9 595.3;" xml:space="preserve">
<style type="text/css">
	.st0{fill:#312783;}
	.st1{fill:#1D71B8;}
	.st2{fill:#FFED00;}
	.st3{fill:#E30613;}
	.st4{fill:#009FE3;}
</style>
<g>
	<path class="st0" d="M299.1,259.4c3.7,0,7.4,0,11.1,0.1c-1,4.4-1.9,8.9-2.9,13.3h14.8c-1.3,3.7-2.7,7.5-4,11.2
		c-4.4,0-8.8-0.1-13.1-0.1l-3.1,14.8c-0.9,4.1-0.2,7.6,2.1,10.5c2.3,2.9,5.4,4.3,9.5,4.3c-0.1,3.7-0.1,7.3-0.2,11
		c-2,0.2-8.3,0.7-13.9-3c-2.8-1.8-4.6-4.1-5-4.5c-4-5-5.2-11.1-3.7-18.3C293.6,285.5,296.4,272.4,299.1,259.4z"/>
	<path class="st0" d="M370,280.7c-4-5-9.5-7.6-16.7-7.6c-7.1,0-13.8,2.5-19.9,7.6c-6.1,5-9.9,11.1-11.5,18.3
		c-1.5,7.1-0.3,13.2,3.7,18.3c4,5,9.5,7.6,16.7,7.6c7.1,0,13.8-2.5,19.9-7.6c2.4-2,4.5-4.1,6.2-6.5h-14.2c-3,2-6.1,3-9.5,3
		c-3.5,0-7-1.3-9.3-4c-2-2.3-2.8-5.5-2.6-8.6c0.3-6.4,4.7-12,10.2-14.9c1.5-0.8,3-1.4,4.6-1.7c1.1-0.2,2.2-0.3,3.4-0.3
		c4.1,0,7.3,1.4,9.5,4.3c1.2,1.5,1.9,3.1,2.2,4.9c-11.9,0.1-19.6,0.1-19.6,0.1c0,0,0,0,0,0c0,0-0.1,0-0.1,0c-0.1,0-1.4,0.8-2.4,4.7
		c-0.3,1.4-0.7,3.5-0.6,6.2c10.6,0,21.3,0,31.9,0c0.7-1.8,1.3-3.6,1.7-5.5C375.2,291.8,373.9,285.7,370,280.7z"/>
	<path class="st0" d="M423.9,324.8h-11.1l1-4.6c-4.9,3.1-10.2,4.6-15.7,4.6c-7.1,0-12.7-2.5-16.7-7.6c-4-5-5.2-11.1-3.7-18.3
		c1.5-7.1,5.3-13.2,11.5-18.3c6.1-5,12.7-7.6,19.9-7.6c7.1,0,12.7,2.5,16.7,7.6c4,5,5.2,11.1,3.7,18.3L423.9,324.8z M411.8,309.4
		c3.5-2.9,5.7-6.4,6.5-10.5c0.9-4.1,0.2-7.6-2.1-10.5c-2.3-2.9-5.4-4.3-9.5-4.3c-4.1,0-7.9,1.4-11.4,4.3c-3.5,2.9-5.7,6.4-6.5,10.5
		c-0.9,4.1-0.2,7.6,2.1,10.5c2.3,2.9,5.4,4.3,9.5,4.3C404.5,313.7,408.3,312.3,411.8,309.4z"/>
	<path class="st0" d="M446.6,299l-5.5,25.8h-11.1l5.5-25.8c1.5-7.1,5.3-13.2,11.5-18.3c6.1-5,12.7-7.6,19.9-7.6
		c7.1,0,12.7,2.5,16.7,7.6c0.6,0.7,1.1,1.5,1.6,2.3c0.8-0.8,1.6-1.5,2.5-2.3c6.1-5,12.7-7.6,19.9-7.6s12.7,2.5,16.7,7.6
		c4,5,5.2,11.1,3.7,18.3l-5.5,25.8h-11.1l5.5-25.8c0.9-4.1,0.2-7.6-2.1-10.5c-2.3-2.9-5.4-4.3-9.5-4.3c-4.1,0-7.9,1.4-11.4,4.3
		c-3.5,2.9-5.7,6.4-6.5,10.5l-5.5,25.8h-11.1l5.5-25.8c0.9-4.1,0.2-7.6-2.1-10.5c-2.3-2.9-5.4-4.3-9.5-4.3c-4.1,0-7.9,1.4-11.4,4.3
		C449.7,291.4,447.5,294.9,446.6,299z"/>
	<path class="st1" d="M536.2,299c1.5-7.1,5.3-13.2,11.5-18.3c6.1-5,12.7-7.6,19.9-7.6c7.1,0,12.7,2.5,16.7,7.6
		c4,5,5.2,11.1,3.7,18.3c-1.5,7.1-5.3,13.2-11.5,18.3s-12.7,7.6-19.9,7.6c-5.6,0-10.2-1.5-13.8-4.6l-3.3,15.7h-11.1L536.2,299z
		 M558.9,313.7c4.1,0,7.9-1.4,11.4-4.3c3.5-2.9,5.7-6.4,6.5-10.5c0.9-4.1,0.2-7.6-2.1-10.5c-2.3-2.9-5.4-4.3-9.5-4.3
		c-4.1,0-7.9,1.4-11.4,4.3c-3.5,2.9-5.7,6.4-6.5,10.5c-0.9,4.1-0.2,7.6,2.1,10.5C551.6,312.3,554.8,313.7,558.9,313.7z"/>
	<path class="st1" d="M610.9,262l-13.3,62.8h-11.1l13.3-62.8H610.9z"/>
	<path class="st1" d="M655.1,280.7c4,5,5.2,11.1,3.7,18.3c-1.5,7.1-5.3,13.2-11.5,18.3c-6.1,5-12.7,7.6-19.9,7.6
		c-7.1,0-12.7-2.5-16.7-7.6c-4-5-5.2-11.1-3.7-18.3c1.5-7.1,5.3-13.2,11.5-18.3c6.1-5,12.7-7.6,19.9-7.6
		C645.5,273.1,651.1,275.7,655.1,280.7z M636.1,284.2c-4.1,0-7.9,1.4-11.4,4.3c-3.5,2.9-5.7,6.4-6.5,10.5c-0.9,4.1-0.2,7.6,2.1,10.5
		c2.3,2.9,5.4,4.3,9.5,4.3c4.1,0,7.9-1.4,11.4-4.3c3.5-2.9,5.7-6.4,6.5-10.5c0.9-4.1,0.2-7.6-2.1-10.5
		C643.3,285.6,640.1,284.2,636.1,284.2z"/>
</g>
<g>
	<g>
		<path class="st2" d="M161.1,266.6c2.6,0,5.1,0,7.7,0.1c-0.9,1.9-1.8,3.8-2.7,5.7c-2.5,0-5,0-7.5,0
			C159.4,270.4,160.3,268.5,161.1,266.6z"/>
		<path class="st2" d="M167.3,265.3c0.2-1.6,0.4-3.3,0.7-4.9c-0.8,0-1.7,0-2.6,0c0.1-0.7,0.2-1.5,0.3-2.2c0.9,0,1.8,0,2.7,0
			c-0.1,0.7-0.2,1.4-0.3,2.1c2,0,4,0.1,6.1,0.1c-0.3,1.6-0.5,3.3-0.8,4.9C171.4,265.3,169.3,265.3,167.3,265.3z"/>
		<path class="st3" d="M168.8,266.6c-0.9,1.9-1.8,3.8-2.7,5.7c-2.5,0-5,0-7.5,0c0.9-1.9,1.7-3.9,2.6-5.8
			C163.7,266.6,166.2,266.6,168.8,266.6z"/>
		<path class="st0" d="M195.7,311.7c-0.4-0.4-1.8-1.8-2.1-3.8c-0.2-1.5,0.6-3.4,0.6-3.4s3.2-5.9,9.5-17.4h53.7l-5.3-9.1h-43.4
			c4.1-7.4,9-16.4,14.7-26.8h-24.7c-5.2,8.9-10.3,17.9-15.5,26.8h-4.9c-0.5,0-0.9,0-1.4,0c1.2-2.7,2.5-5.5,3.7-8.2
			c-3.9,0-7.9,0-11.8,0.1c-1.6,3.4-3.2,6.8-4.8,10.2h7.9h1.9c-0.3,0.4-0.6,0.9-0.9,1.3l-4,5.7h9c-2.5,4.3-5,8.6-7.5,12.9
			c-4.4,7.6-1.7,16.5,4.6,21c2.4,1.7,5.2,2.7,8.4,2.9c0.2,0,0.5,0,0.8,0h42.7c1.8-3.8,3.7-7.5,5.5-11.3c-11.8,0.1-23.5,0.1-35.3,0.2
			C196.7,312.5,196.2,312.2,195.7,311.7z"/>
		<path class="st4" d="M174.2,260.5c-0.3,1.6-0.5,3.3-0.8,4.9c-2,0-4.1,0-6.1-0.1c0.2-1.6,0.4-3.3,0.7-4.9c-0.8,0-1.7,0-2.6,0
			c0.1-0.7,0.2-1.5,0.3-2.2c0.9,0,1.8,0,2.7,0c-0.1,0.7-0.2,1.4-0.3,2.1C170.1,260.4,172.1,260.4,174.2,260.5z"/>
	</g>
	<g>
		<path class="st0" d="M151.6,241.5c1.6-0.5,2.8-0.7,3.8-1.2c1.5-0.7,2.5-2,2.8-3.5c0-0.1,0.1-0.3,0.1-0.4c0-0.1,0-0.1,0-0.2
			c0-0.2,0.1-0.4,0.1-0.5c0-2.9-2.3-5.2-5.2-5.2c-0.1,0-0.2,0-0.3,0c0,0-0.1,0-0.1,0c-0.2,0-0.4,0-0.6,0.1c0,0,0,0,0,0
			c-2.3,0.4-4,2.1-4.2,4.6c-0.1,1.4-0.5,2.4-1.4,3.5c-14.4,17.5-20.1,37.6-17,60.1c1.8,13.6,7.3,25.6,15.6,36.4
			c1.6,2.1,3.5,4.2,5.4,6c0.7,0.7,2.1,1.3,3.1,1.1c2.2-0.3,3-2.8,1.5-4.6c-1.4-1.7-3.1-3.2-4.5-5c-13.1-16.3-18.2-34.9-15.3-55.6
			C137.3,263.5,143,251.8,151.6,241.5z"/>
		<path class="st1" d="M246,221.7c-0.1,0-0.1,0-0.2,0c-0.8-0.1-1.8,0-2.8,0.2c-15.6-8.9-32-12.2-49.6-9.8
			c-10.6,1.5-20.4,5.1-29.5,10.7c-0.3,0.2-0.6,0.4-0.8,0.6c-1.3,1.1-1.6,2.5-0.9,3.8c0.7,1.2,2.2,1.6,3.7,1c0.9-0.3,1.6-0.9,2.4-1.4
			c9.3-5.5,19.4-8.7,30.2-9.6c6.9-0.6,13.8-0.2,20.6,1.4c7.3,1.7,14.3,4.3,20.7,8.1c0.5,1.3,1,2.3,1.6,3.1c0.1,0.2,0.3,0.4,0.4,0.5
			c0,0.1,0.1,0.1,0.1,0.2c1,1.1,2.4,1.8,4,1.8c3,0,5.4-2.4,5.4-5.4S248.9,221.7,246,221.7z"/>
		<path class="st0" d="M279.3,274.2c-2.6-14.8-9.2-27.7-19.4-38.8c-0.6-0.7-1.3-1.4-2-1.9c-1.3-1-2.8-0.8-3.8,0.3
			c-1.1,1.2-1.1,2.4,0,3.8c1.3,1.5,2.6,3,3.9,4.5c10.7,12.6,16.1,27.4,16.8,43.8c0.3,7.2-0.8,14.3-2.8,21.2
			c-2.9,10.1-7.7,19.1-14.7,26.9c-0.6,0.1-1.2,0.2-1.7,0.3c-2.8,0.2-5,2.5-5,5.3c0,3,2.4,5.4,5.4,5.4c0.9,0,1.7-0.2,2.4-0.6
			c1.4-0.6,2.5-1.8,2.8-3.3c0.1-0.2,0.1-0.4,0.1-0.6c0.3-2.3,1.5-3.9,2.8-5.6c10.2-13,15.4-27.7,16.4-44.1
			C280.9,285.2,280.3,279.7,279.3,274.2z"/>
		<path class="st1" d="M248.3,347c-0.8-1-1.7-1.6-3-1.1c-1,0.4-1.9,1-2.8,1.5c-2.8,1.5-5.5,3.2-8.4,4.5c-12.2,5.6-25,7.4-38.4,5.6
			c-9.8-1.3-18.9-4.5-27.5-9.7c-0.2-0.7-0.2-1.1-0.4-1.6c-0.1-0.3-0.2-0.5-0.3-0.7c-0.7-2.1-2.7-3.6-5-3.6c-3,0-5.4,2.4-5.4,5.4
			s2.4,5.4,5.4,5.4c0.1,0,0.3,0,0.4,0c0.1,0,0.2,0,0.4,0c1.2,0,2.2,0.2,3.3,0.8c15.1,8.7,31.3,12,48.7,9.8
			c11.2-1.5,21.6-5.3,31.1-11.4c0.7-0.4,1.3-1,1.9-1.6C249.1,349.3,249.1,348.1,248.3,347z"/>
	</g>
</g>
</svg>
