<?xml version="1.0" encoding="utf-8"?>
<!-- Generator: Adobe Illustrator 22.0.1, SVG Export Plug-In . SVG Version: 6.00 Build 0)  -->
<svg version="1.1" id="katman_1" xmlns="http://www.w3.org/2000/svg" xmlns:xlink="http://www.w3.org/1999/xlink" x="0px" y="0px"
	 viewBox="0 0 841.9 595.3" style="enable-background:new 0 0 841.9 595.3;" xml:space="preserve">
<style type="text/css">
	.st0{fill:#F6F6F6;}
	.st1{fill:#1D71B8;}
	.st2{fill:#FFED00;}
	.st3{fill:#E30613;}
	.st4{fill:#009FE3;}
</style>
<rect x="-6.4" y="-10.9" width="862.5" height="613.5"/>
<g>
	<path class="st0" d="M320.8,258.7c3.7,0,7.4,0,11.1,0.1c-1,4.4-1.9,8.9-2.9,13.3h14.8c-1.3,3.7-2.7,7.5-4,11.2
		c-4.4,0-8.8-0.1-13.1-0.1l-3.1,14.8c-0.9,4.1-0.2,7.6,2.1,10.5c2.3,2.9,5.4,4.3,9.5,4.3c-0.1,3.7-0.1,7.3-0.2,11
		c-2,0.2-8.3,0.7-13.9-3c-2.8-1.8-4.6-4.1-5-4.5c-4-5-5.2-11.1-3.7-18.3C315.3,284.9,318.1,271.8,320.8,258.7z"/>
	<path class="st0" d="M391.7,280c-4-5-9.5-7.6-16.7-7.6c-7.1,0-13.8,2.5-19.9,7.6c-6.1,5-9.9,11.1-11.5,18.3
		c-1.5,7.1-0.3,13.2,3.7,18.3c4,5,9.5,7.6,16.7,7.6c7.1,0,13.8-2.5,19.9-7.6c2.4-2,4.5-4.1,6.2-6.5h-14.2c-3,2-6.1,3-9.5,3
		c-3.5,0-7-1.3-9.3-4c-2-2.3-2.8-5.5-2.6-8.6c0.3-6.4,4.7-12,10.2-14.9c1.5-0.8,3-1.4,4.6-1.7c1.1-0.2,2.2-0.3,3.4-0.3
		c4.1,0,7.3,1.4,9.5,4.3c1.2,1.5,1.9,3.1,2.2,4.9c-11.9,0.1-19.6,0.1-19.6,0.1c0,0,0,0,0,0c0,0-0.1,0-0.1,0c-0.1,0-1.4,0.8-2.4,4.7
		c-0.3,1.4-0.7,3.5-0.6,6.2c10.6,0,21.3,0,31.9,0c0.7-1.8,1.3-3.6,1.7-5.5C396.9,291.2,395.6,285.1,391.7,280z"/>
	<path class="st0" d="M445.6,324.2h-11.1l1-4.6c-4.9,3.1-10.2,4.6-15.7,4.6c-7.1,0-12.7-2.5-16.7-7.6c-4-5-5.2-11.1-3.7-18.3
		c1.5-7.1,5.3-13.2,11.5-18.3c6.1-5,12.7-7.6,19.9-7.6c7.1,0,12.7,2.5,16.7,7.6c4,5,5.2,11.1,3.7,18.3L445.6,324.2z M433.5,308.8
		c3.5-2.9,5.7-6.4,6.5-10.5c0.9-4.1,0.2-7.6-2.1-10.5c-2.3-2.9-5.4-4.3-9.5-4.3c-4.1,0-7.9,1.4-11.4,4.3c-3.5,2.9-5.7,6.4-6.5,10.5
		c-0.9,4.1-0.2,7.6,2.1,10.5c2.3,2.9,5.4,4.3,9.5,4.3C426.2,313.1,430,311.6,433.5,308.8z"/>
	<path class="st0" d="M468.3,298.3l-5.5,25.8h-11.1l5.5-25.8c1.5-7.1,5.3-13.2,11.5-18.3c6.1-5,12.7-7.6,19.9-7.6
		c7.1,0,12.7,2.5,16.7,7.6c0.6,0.7,1.1,1.5,1.6,2.3c0.8-0.8,1.6-1.5,2.5-2.3c6.1-5,12.7-7.6,19.9-7.6s12.7,2.5,16.7,7.6
		c4,5,5.2,11.1,3.7,18.3l-5.5,25.8H533l5.5-25.8c0.9-4.1,0.2-7.6-2.1-10.5c-2.3-2.9-5.4-4.3-9.5-4.3s-7.9,1.4-11.4,4.3
		c-3.5,2.9-5.7,6.4-6.5,10.5l-5.5,25.8h-11.1l5.5-25.8c0.9-4.1,0.2-7.6-2.1-10.5c-2.3-2.9-5.4-4.3-9.5-4.3c-4.1,0-7.9,1.4-11.4,4.3
		C471.4,290.7,469.2,294.2,468.3,298.3z"/>
	<path class="st1" d="M557.9,298.3c1.5-7.1,5.3-13.2,11.5-18.3c6.1-5,12.7-7.6,19.9-7.6c7.1,0,12.7,2.5,16.7,7.6
		c4,5,5.2,11.1,3.7,18.3c-1.5,7.1-5.3,13.2-11.5,18.3c-6.1,5-12.7,7.6-19.9,7.6c-5.6,0-10.2-1.5-13.8-4.6l-3.3,15.7H550L557.9,298.3
		z M580.6,313.1c4.1,0,7.9-1.4,11.4-4.3c3.5-2.9,5.7-6.4,6.5-10.5c0.9-4.1,0.2-7.6-2.1-10.5c-2.3-2.9-5.4-4.3-9.5-4.3
		c-4.1,0-7.9,1.4-11.4,4.3c-3.5,2.9-5.7,6.4-6.5,10.5c-0.9,4.1-0.2,7.6,2.1,10.5C573.3,311.6,576.5,313.1,580.6,313.1z"/>
	<path class="st1" d="M632.6,261.4l-13.3,62.8h-11.1l13.3-62.8H632.6z"/>
	<path class="st1" d="M676.8,280c4,5,5.2,11.1,3.7,18.3c-1.5,7.1-5.3,13.2-11.5,18.3c-6.1,5-12.7,7.6-19.9,7.6
		c-7.1,0-12.7-2.5-16.7-7.6c-4-5-5.2-11.1-3.7-18.3c1.5-7.1,5.3-13.2,11.5-18.3c6.1-5,12.7-7.6,19.9-7.6
		C667.3,272.5,672.8,275,676.8,280z M657.8,283.5c-4.1,0-7.9,1.4-11.4,4.3c-3.5,2.9-5.7,6.4-6.5,10.5c-0.9,4.1-0.2,7.6,2.1,10.5
		c2.3,2.9,5.4,4.3,9.5,4.3c4.1,0,7.9-1.4,11.4-4.3c3.5-2.9,5.7-6.4,6.5-10.5c0.9-4.1,0.2-7.6-2.1-10.5
		C665,285,661.8,283.5,657.8,283.5z"/>
</g>
<g>
	<path class="st2" d="M173.4,276.6c2.6,0,5.1,0,7.7,0.1c-0.9,1.9-1.8,3.8-2.7,5.7c-2.5,0-5,0-7.5,0
		C171.6,280.4,172.5,278.5,173.4,276.6z"/>
	<path class="st2" d="M179.5,275.3c0.2-1.6,0.4-3.3,0.7-4.9c-0.8,0-1.7,0-2.6,0c0.1-0.7,0.2-1.5,0.3-2.2c0.9,0,1.8,0,2.7,0
		c-0.1,0.7-0.2,1.4-0.3,2.1c2,0,4,0.1,6.1,0.1c-0.3,1.6-0.5,3.3-0.8,4.9C183.6,275.3,181.6,275.3,179.5,275.3z"/>
	<path class="st3" d="M181,276.6c-0.9,1.9-1.8,3.8-2.7,5.7c-2.5,0-5,0-7.5,0c0.9-1.9,1.7-3.9,2.6-5.8
		C175.9,276.6,178.5,276.6,181,276.6z"/>
	<path class="st0" d="M207.9,321.7c-0.4-0.4-1.8-1.8-2.1-3.8c-0.2-1.5,0.6-3.4,0.6-3.4s3.2-5.9,9.5-17.4h53.7l-5.3-9.1H221
		c4.1-7.4,9-16.4,14.7-26.8H211c-5.2,8.9-10.3,17.9-15.5,26.8h-4.9c-0.5,0-0.9,0-1.4,0c1.2-2.7,2.5-5.5,3.7-8.2
		c-3.9,0-7.9,0-11.8,0.1c-1.6,3.4-3.2,6.8-4.8,10.2h7.9h1.9c-0.3,0.4-0.6,0.9-0.9,1.3l-4,5.7h9c-2.5,4.3-5,8.6-7.5,12.9
		c-4.4,7.6-1.7,16.5,4.6,21c2.4,1.7,5.2,2.7,8.4,2.9c0.2,0,0.5,0,0.8,0h42.7c1.8-3.8,3.7-7.5,5.5-11.3c-11.8,0.1-23.5,0.1-35.3,0.2
		C208.9,322.5,208.4,322.2,207.9,321.7z"/>
	<path class="st4" d="M186.4,270.5c-0.3,1.6-0.5,3.3-0.8,4.9c-2,0-4.1,0-6.1-0.1c0.2-1.6,0.4-3.3,0.7-4.9c-0.8,0-1.7,0-2.6,0
		c0.1-0.7,0.2-1.5,0.3-2.2c0.9,0,1.8,0,2.7,0c-0.1,0.7-0.2,1.4-0.3,2.1C182.3,270.4,184.4,270.4,186.4,270.5z"/>
	<path class="st0" d="M163.9,251.5c1.6-0.5,2.8-0.7,3.8-1.2c1.5-0.7,2.5-2,2.8-3.5c0-0.1,0.1-0.3,0.1-0.4c0-0.1,0-0.1,0-0.2
		c0-0.2,0.1-0.4,0.1-0.5c0-2.9-2.3-5.2-5.2-5.2c-0.1,0-0.2,0-0.3,0c0,0-0.1,0-0.1,0c-0.2,0-0.4,0-0.6,0.1c0,0,0,0,0,0
		c-2.3,0.4-4,2.1-4.2,4.6c-0.1,1.4-0.5,2.4-1.4,3.5c-14.4,17.5-20.1,37.6-17,60.1c1.8,13.6,7.3,25.6,15.6,36.4
		c1.6,2.1,3.5,4.2,5.4,6c0.7,0.7,2.1,1.3,3.1,1.1c2.2-0.3,3-2.8,1.5-4.6c-1.4-1.7-3.1-3.2-4.5-5c-13.1-16.3-18.2-34.9-15.3-55.6
		C149.5,273.5,155.3,261.8,163.9,251.5z"/>
	<path class="st1" d="M258.2,231.7c-0.1,0-0.1,0-0.2,0c-0.8-0.1-1.8,0-2.8,0.2c-15.6-8.9-32-12.2-49.6-9.8
		c-10.6,1.5-20.4,5.1-29.5,10.7c-0.3,0.2-0.6,0.4-0.8,0.6c-1.3,1.1-1.6,2.5-0.9,3.8c0.7,1.2,2.2,1.6,3.7,1c0.9-0.3,1.6-0.9,2.4-1.4
		c9.3-5.5,19.4-8.7,30.2-9.6c6.9-0.6,13.8-0.2,20.6,1.4c7.3,1.7,14.3,4.3,20.7,8.1c0.5,1.3,1,2.3,1.6,3.1c0.1,0.2,0.3,0.4,0.4,0.5
		c0,0.1,0.1,0.1,0.1,0.2c1,1.1,2.4,1.8,4,1.8c3,0,5.4-2.4,5.4-5.4S261.2,231.7,258.2,231.7z"/>
	<path class="st0" d="M291.6,284.2c-2.6-14.8-9.2-27.7-19.4-38.8c-0.6-0.7-1.3-1.4-2-1.9c-1.3-1-2.8-0.8-3.8,0.3
		c-1.1,1.2-1.1,2.4,0,3.8c1.3,1.5,2.6,3,3.9,4.5c10.7,12.6,16.1,27.4,16.8,43.8c0.3,7.2-0.8,14.3-2.8,21.2
		c-2.9,10.1-7.7,19.1-14.7,26.9c-0.6,0.1-1.2,0.2-1.7,0.3c-2.8,0.2-5,2.5-5,5.3c0,3,2.4,5.4,5.4,5.4c0.9,0,1.7-0.2,2.4-0.6
		c1.4-0.6,2.5-1.8,2.8-3.3c0.1-0.2,0.1-0.4,0.1-0.6c0.3-2.3,1.5-3.9,2.8-5.6c10.2-13,15.4-27.7,16.4-44.1
		C293.2,295.2,292.5,289.7,291.6,284.2z"/>
	<path class="st1" d="M260.5,357c-0.8-1-1.7-1.6-3-1.1c-1,0.4-1.9,1-2.8,1.5c-2.8,1.5-5.5,3.2-8.4,4.5c-12.2,5.6-25,7.4-38.4,5.6
		c-9.8-1.3-18.9-4.5-27.5-9.7c-0.2-0.7-0.2-1.1-0.4-1.6c-0.1-0.3-0.2-0.5-0.3-0.7c-0.7-2.1-2.7-3.6-5-3.6c-3,0-5.4,2.4-5.4,5.4
		s2.4,5.4,5.4,5.4c0.1,0,0.3,0,0.4,0c0.1,0,0.2,0,0.4,0c1.2,0,2.2,0.2,3.3,0.8c15.1,8.7,31.3,12,48.7,9.8
		c11.2-1.5,21.6-5.3,31.1-11.4c0.7-0.4,1.3-1,1.9-1.6C261.4,359.3,261.3,358.1,260.5,357z"/>
</g>
</svg>
