<svg width="25" height="24" viewBox="0 0 25 24" fill="none" xmlns="http://www.w3.org/2000/svg">
<path opacity="0.4" d="M12.9754 6.44V9.77" stroke="#292D32" stroke-width="1.5" stroke-miterlimit="10" stroke-linecap="round"/>
<path d="M12.9954 2C9.31536 2 6.33536 4.98 6.33536 8.66V10.76C6.33536 11.44 6.05536 12.46 5.70536 13.04L4.43536 15.16C3.65536 16.47 4.19536 17.93 5.63536 18.41C10.4154 20 15.5854 20 20.3654 18.41C21.7154 17.96 22.2954 16.38 21.5654 15.16L20.2954 13.04C19.9454 12.46 19.6654 11.43 19.6654 10.76V8.66C19.6554 5 16.6554 2 12.9954 2Z" stroke="#292D32" stroke-width="1.5" stroke-miterlimit="10" stroke-linecap="round"/>
<path opacity="0.4" d="M16.3054 18.82C16.3054 20.65 14.8054 22.15 12.9754 22.15C12.0654 22.15 11.2254 21.77 10.6254 21.17C10.0254 20.57 9.64536 19.73 9.64536 18.82" stroke="#292D32" stroke-width="1.5" stroke-miterlimit="10"/>
</svg>
