<svg width="25" height="24" viewBox="0 0 25 24" fill="none" xmlns="http://www.w3.org/2000/svg">
<path opacity="0.34" d="M12.9504 15C14.6072 15 15.9504 13.6569 15.9504 12C15.9504 10.3431 14.6072 9 12.9504 9C11.2935 9 9.95036 10.3431 9.95036 12C9.95036 13.6569 11.2935 15 12.9504 15Z" stroke="#292D32" stroke-width="1.5" stroke-miterlimit="10" stroke-linecap="round" stroke-linejoin="round"/>
<path d="M2.95036 12.88V11.12C2.95036 10.08 3.80036 9.22 4.85036 9.22C6.66036 9.22 7.40036 7.94 6.49036 6.37C5.97036 5.47 6.28036 4.3 7.19036 3.78L8.92036 2.79C9.71036 2.32 10.7304 2.6 11.2004 3.39L11.3104 3.58C12.2104 5.15 13.6904 5.15 14.6004 3.58L14.7104 3.39C15.1804 2.6 16.2004 2.32 16.9904 2.79L18.7204 3.78C19.6304 4.3 19.9404 5.47 19.4204 6.37C18.5104 7.94 19.2504 9.22 21.0604 9.22C22.1004 9.22 22.9604 10.07 22.9604 11.12V12.88C22.9604 13.92 22.1104 14.78 21.0604 14.78C19.2504 14.78 18.5104 16.06 19.4204 17.63C19.9404 18.54 19.6304 19.7 18.7204 20.22L16.9904 21.21C16.2004 21.68 15.1804 21.4 14.7104 20.61L14.6004 20.42C13.7004 18.85 12.2204 18.85 11.3104 20.42L11.2004 20.61C10.7304 21.4 9.71036 21.68 8.92036 21.21L7.19036 20.22C6.28036 19.7 5.97036 18.53 6.49036 17.63C7.40036 16.06 6.66036 14.78 4.85036 14.78C3.80036 14.78 2.95036 13.92 2.95036 12.88Z" stroke="#292D32" stroke-width="1.5" stroke-miterlimit="10" stroke-linecap="round" stroke-linejoin="round"/>
</svg>
