<svg width="32" height="42" viewBox="0 0 32 42" fill="none" xmlns="http://www.w3.org/2000/svg">
<path d="M30.5863 26.1301L20.241 22.2104V18.1622L21.2048 16.6843C21.3976 16.4272 21.4618 16.106 21.4618 15.7204V11.865C21.7189 11.865 21.9759 11.865 22.1687 11.8007C22.8112 11.608 23.3253 11.1582 23.6466 10.4513C24.9317 7.68829 25.0602 5.37504 24.0964 3.57584C22.6185 0.941303 19.3414 0.491503 19.2128 0.427246C18.9558 0.427246 18.8273 0.491504 18.6988 0.684275C18.5703 0.877046 18.5703 1.13407 18.6988 1.32685C18.8916 1.71239 18.8916 2.22644 18.6345 2.61199C18.3775 2.99753 17.9277 3.31881 17.4779 3.25456L12.1446 3.12604C10.6024 3.06179 9.18875 3.76861 8.35341 4.98949C7.3253 6.4674 7.00401 7.88106 7.32529 9.23046C7.83935 11.1582 9.57429 12.3791 10.2811 12.8288V15.5919C10.2811 15.9132 10.3454 16.2345 10.5381 16.4915L11.6948 18.2907V22.0176C11.6305 22.0176 11.5663 22.0176 11.5663 22.0819L1.3494 25.873C0.51406 26.1943 0 26.9654 0 27.8007V37.6963C0 38.8529 0.963863 39.7525 2.05623 39.7525H12.7229C13.0442 39.7525 13.3012 39.4955 13.3012 39.1742C13.3012 38.8529 13.0442 38.5959 12.7229 38.5959H7.00401V30.8208C7.00401 30.4995 6.74699 30.2425 6.4257 30.2425C6.10441 30.2425 5.84739 30.4995 5.84739 30.8208V38.5959H2.05623C1.54218 38.5959 1.15664 38.1461 1.15664 37.6963V27.9935C1.15664 27.608 1.41366 27.2867 1.73495 27.0939L10.7309 23.7525V23.8168L12.8514 27.4794C12.9157 27.608 13.0442 27.7365 13.2369 27.7365C13.3012 27.7365 13.3012 27.7365 13.3655 27.7365C13.494 27.7365 13.6225 27.6722 13.6868 27.608L13.9438 27.4152L14.1365 27.8007L12.6586 36.861C12.6586 36.9895 12.6586 37.1823 12.7871 37.3108L15.4859 41.1662C15.6145 41.2947 15.743 41.4232 15.9357 41.4232C16.1285 41.4232 16.3213 41.359 16.3855 41.1662L19.1486 37.3108C19.2129 37.1823 19.2771 37.0537 19.2771 36.861L17.8635 27.608C17.8635 27.5437 17.8635 27.4794 17.7992 27.4794L17.9277 27.3509L18.249 27.5437C18.3775 27.608 18.5703 27.6722 18.6988 27.608C18.8273 27.5437 19.0201 27.4794 19.0843 27.3509L21.2048 23.6883L30.2651 27.0939C30.6506 27.2224 30.8434 27.608 30.8434 27.9935V37.7606C30.8434 38.2746 30.4578 38.6602 29.9438 38.6602H26.0883V30.8851C26.0883 30.5638 25.8313 30.3068 25.51 30.3068C25.1888 30.3068 24.9317 30.5638 24.9317 30.8851V38.6602H19.3414C19.0201 38.6602 18.7631 38.9172 18.7631 39.2385C18.7631 39.5598 19.0201 39.8168 19.3414 39.8168H29.9438C31.1004 39.8168 32 38.8529 32 37.7606V27.9935C31.9357 27.2224 31.3574 26.4513 30.5863 26.1301ZM18.8916 22.2746L15.8715 23.624L12.7229 22.3389V20.0899C13.0442 20.2827 13.3655 20.4112 13.751 20.4112H17.8635C18.3133 20.4112 18.6988 20.2184 19.0201 19.9614V22.2746C18.9558 22.2104 18.9558 22.2104 18.8916 22.2746ZM8.28915 9.03769C8.03212 8.00957 8.28916 6.85295 9.1245 5.69632C9.76707 4.79673 10.8594 4.28267 11.9518 4.34692L17.2851 4.47544C18.1847 4.47544 19.0201 4.02564 19.4699 3.25456C19.7269 2.80476 19.8554 2.35496 19.8554 1.8409C20.8193 2.16219 22.2329 2.80476 23.004 4.15415C23.7751 5.63207 23.6466 7.55978 22.5542 9.93728C22.4257 10.2586 22.1044 10.5156 21.7831 10.6441C21.6546 10.7084 21.5261 10.7084 21.3976 10.6441V10.2586V10.1301C21.3976 9.1662 20.6265 8.39512 19.6626 8.39512H11.8875C10.9237 8.39512 10.1526 9.1662 10.1526 10.1301V10.6441V11.4795C9.51005 11.0297 8.61043 10.1943 8.28915 9.03769ZM11.3092 15.7204V12.5718V10.7084V10.1943C11.3092 9.87303 11.5663 9.616 11.8875 9.616H19.6626C19.9839 9.616 20.241 9.87303 20.241 10.1943V10.3228V11.0939V15.7847C20.241 15.9132 20.241 15.9774 20.1767 16.106L18.3132 18.9975C18.1847 19.1903 18.0562 19.2545 17.7992 19.2545H13.6868C13.494 19.2545 13.3012 19.126 13.1727 18.9975L11.3092 16.0417C11.3092 15.9132 11.3092 15.7847 11.3092 15.7204ZM11.6948 23.367L11.8233 23.3027H11.8875C11.9518 23.3027 12.0161 23.367 12.1446 23.367C12.1446 23.367 12.1446 23.367 12.2088 23.367L15.6787 24.7807C15.743 24.7807 15.8072 24.8449 15.8715 24.8449C15.743 24.8449 15.6787 24.9092 15.5502 24.9734L13.494 26.4513L11.6948 23.367ZM17.992 36.9252L15.8715 39.881L13.751 36.9252L15.1647 28.379H16.7068L17.992 36.9252ZM16.5141 27.2224H15.0361L14.8434 26.8369L15.9357 26.0658L16.8996 26.7726L16.5141 27.2224ZM18.249 26.3228L16.1928 24.8449C16.1285 24.7806 16 24.7807 15.8715 24.7164C15.9357 24.7164 16 24.7164 16.0643 24.6521L19.2771 23.2385H19.3414C19.4056 23.2385 19.4699 23.3027 19.5341 23.3027C19.5984 23.3027 19.5984 23.3027 19.6626 23.3027L19.9197 23.4313L18.249 26.3228Z" fill="white"/>
</svg>
