<svg width="32" height="33" viewBox="0 0 32 33" fill="none" xmlns="http://www.w3.org/2000/svg">
<path opacity="0.2" d="M11.5595 16.0293C12.5968 18.1499 14.3158 19.8611 16.4412 20.8888C16.5967 20.9625 16.7687 20.9944 16.9403 20.9814C17.1119 20.9684 17.2771 20.911 17.4198 20.8147L20.5492 18.7279C20.6877 18.6356 20.8469 18.5793 21.0126 18.5641C21.1782 18.5489 21.3451 18.5753 21.498 18.6408L27.3526 21.1499C27.5515 21.2344 27.7175 21.3812 27.8257 21.5683C27.9339 21.7553 27.9783 21.9725 27.9524 22.187C27.7673 23.635 27.0608 24.9659 25.9652 25.9305C24.8695 26.8951 23.4598 27.4273 22 27.4274C17.4913 27.4274 13.1673 25.6363 9.97919 22.4482C6.79107 19.2601 5 14.936 5 10.4274C5.00008 8.96759 5.53224 7.55788 6.49685 6.46221C7.46146 5.36654 8.79237 4.66004 10.2404 4.47499C10.4549 4.44903 10.672 4.49349 10.8591 4.60167C11.0461 4.70985 11.193 4.87589 11.2775 5.07477L13.7888 10.9345C13.8537 11.0861 13.8802 11.2514 13.8658 11.4156C13.8514 11.5799 13.7967 11.7381 13.7064 11.876L11.6268 15.0535C11.5322 15.1964 11.4762 15.3615 11.4644 15.5325C11.4526 15.7035 11.4854 15.8747 11.5595 16.0293Z" fill="white"/>
<path d="M11.5595 16.0293C12.5968 18.1499 14.3158 19.8611 16.4412 20.8888C16.5967 20.9625 16.7687 20.9944 16.9403 20.9814C17.1119 20.9684 17.2771 20.911 17.4198 20.8147L20.5492 18.7279C20.6877 18.6356 20.8469 18.5793 21.0126 18.5641C21.1782 18.5489 21.3451 18.5753 21.498 18.6408L27.3526 21.1499C27.5515 21.2344 27.7175 21.3812 27.8257 21.5683C27.9339 21.7553 27.9783 21.9725 27.9524 22.187C27.7673 23.635 27.0608 24.9659 25.9652 25.9305C24.8695 26.8951 23.4598 27.4273 22 27.4274C17.4913 27.4274 13.1673 25.6363 9.97919 22.4482C6.79107 19.2601 5 14.936 5 10.4274C5.00008 8.96759 5.53224 7.55788 6.49685 6.46221C7.46146 5.36654 8.79237 4.66004 10.2404 4.47499C10.4549 4.44903 10.672 4.49349 10.8591 4.60167C11.0461 4.70985 11.193 4.87589 11.2775 5.07477L13.7888 10.9345C13.8537 11.0861 13.8802 11.2514 13.8658 11.4156C13.8514 11.5799 13.7967 11.7381 13.7064 11.876L11.6268 15.0535C11.5322 15.1964 11.4762 15.3615 11.4644 15.5325C11.4526 15.7035 11.4854 15.8747 11.5595 16.0293V16.0293Z" stroke="white" stroke-width="2" stroke-linecap="round" stroke-linejoin="round"/>
<path d="M19.9272 5.42737C21.6225 5.88329 23.1682 6.77664 24.4095 8.01796C25.6508 9.25927 26.5441 10.805 27.0001 12.5002" stroke="white" stroke-width="2" stroke-linecap="round" stroke-linejoin="round"/>
<path d="M18.8916 9.29199C19.9087 9.56554 20.8362 10.1016 21.5809 10.8463C22.3257 11.5911 22.8617 12.5185 23.1353 13.5357" stroke="white" stroke-width="2" stroke-linecap="round" stroke-linejoin="round"/>
</svg>
