<svg width="32" height="33" viewBox="0 0 32 33" fill="none" xmlns="http://www.w3.org/2000/svg">
<path opacity="0.2" d="M16 3.42737C13.3478 3.42737 10.8043 4.48095 8.92894 6.35631C7.05358 8.23167 6.00001 10.7752 6 13.4274C6 22.4274 16 29.4274 16 29.4274C16 29.4274 26 22.4274 26 13.4274C26 10.7752 24.9464 8.23167 23.0711 6.35631C21.1957 4.48095 18.6522 3.42737 16 3.42737ZM16 17.4274C15.2089 17.4274 14.4355 17.1928 13.7777 16.7532C13.1199 16.3137 12.6072 15.689 12.3045 14.9581C12.0017 14.2272 11.9225 13.4229 12.0769 12.647C12.2312 11.8711 12.6122 11.1584 13.1716 10.5989C13.731 10.0395 14.4437 9.65857 15.2196 9.50423C15.9956 9.34989 16.7998 9.4291 17.5307 9.73185C18.2616 10.0346 18.8864 10.5473 19.3259 11.2051C19.7654 11.8629 20 12.6362 20 13.4274C20 14.4882 19.5786 15.5056 18.8284 16.2558C18.0783 17.0059 17.0609 17.4274 16 17.4274Z" fill="white"/>
<path d="M7 29.4274H25" stroke="white" stroke-width="2" stroke-linecap="round" stroke-linejoin="round"/>
<path d="M16 17.4274C18.2091 17.4274 20 15.6365 20 13.4274C20 11.2182 18.2091 9.42737 16 9.42737C13.7909 9.42737 12 11.2182 12 13.4274C12 15.6365 13.7909 17.4274 16 17.4274Z" stroke="white" stroke-width="2" stroke-linecap="round" stroke-linejoin="round"/>
<path d="M26 13.4274C26 22.4274 16 29.4274 16 29.4274C16 29.4274 6 22.4274 6 13.4274C6 10.7752 7.05357 8.23166 8.92893 6.3563C10.8043 4.48094 13.3478 3.42737 16 3.42737C18.6522 3.42737 21.1957 4.48094 23.0711 6.3563C24.9464 8.23166 26 10.7752 26 13.4274V13.4274Z" stroke="white" stroke-width="2" stroke-linecap="round" stroke-linejoin="round"/>
</svg>
