<svg width="44" height="45" viewBox="0 0 44 45" fill="none" xmlns="http://www.w3.org/2000/svg">
<rect y="0.0703125" width="44" height="44" rx="8" fill="#E9F8F3"/>
<path d="M22 17.0703C22.5523 17.0703 23 16.6226 23 16.0703C23 15.518 22.5523 15.0703 22 15.0703C21.4477 15.0703 21 15.518 21 16.0703C21 16.6226 21.4477 17.0703 22 17.0703Z" fill="#257157"/>
<path d="M16 27.0703H28V29.0703H16V27.0703ZM20 21.9003L22.792 24.6943L26.724 20.7593L28 22.0703V18.0703H24L25.31 19.3453L22.791 21.8643L20 19.0703L16 23.0703L17.414 24.4843L20 21.9003Z" fill="#257157"/>
<path d="M29 13.0703H25.702C25.6038 12.9224 25.497 12.7805 25.382 12.6453L25.372 12.6333C24.6373 11.7776 23.6036 11.2346 22.482 11.1153C22.1635 11.0547 21.8365 11.0547 21.518 11.1153C20.3964 11.2346 19.3627 11.7776 18.628 12.6333L18.618 12.6453C18.5031 12.7802 18.3962 12.9218 18.298 13.0693L15 13.0703C14.2046 13.0711 13.442 13.3874 12.8796 13.9499C12.3171 14.5123 12.0008 15.2749 12 16.0703V30.0703C12.0008 30.8657 12.3171 31.6283 12.8796 32.1907C13.442 32.7532 14.2046 33.0695 15 33.0703H29C29.7954 33.0695 30.558 32.7532 31.1204 32.1907C31.6829 31.6283 31.9992 30.8657 32 30.0703V16.0703C31.9992 15.2749 31.6829 14.5123 31.1204 13.9499C30.558 13.3874 29.7954 13.0711 29 13.0703ZM30 30.0703C30 30.3355 29.8946 30.5899 29.7071 30.7774C29.5196 30.9649 29.2652 31.0703 29 31.0703H15C14.7349 31.07 14.4807 30.9646 14.2932 30.7771C14.1057 30.5896 14.0003 30.3354 14 30.0703V16.0703C14.0003 15.8052 14.1057 15.551 14.2932 15.3635C14.4807 15.176 14.7349 15.0706 15 15.0703H19.55C19.6648 14.5052 19.9714 13.9971 20.4179 13.6321C20.8644 13.2672 21.4233 13.0678 22 13.0678C22.5767 13.0678 23.1356 13.2672 23.5821 13.6321C24.0286 13.9971 24.3352 14.5052 24.45 15.0703H29C29.2651 15.0706 29.5193 15.176 29.7068 15.3635C29.8943 15.551 29.9997 15.8052 30 16.0703V30.0703Z" fill="#257157"/>
</svg>
