<svg width="44" height="45" viewBox="0 0 44 45" fill="none" xmlns="http://www.w3.org/2000/svg">
<rect y="0.0703125" width="44" height="44" rx="8" fill="#F0F7FF"/>
<path d="M22 26.9453C24.0711 26.9453 25.75 25.2664 25.75 23.1953C25.75 21.1242 24.0711 19.4453 22 19.4453C19.9289 19.4453 18.25 21.1242 18.25 23.1953C18.25 25.2664 19.9289 26.9453 22 26.9453Z" stroke="#0075FD" stroke-width="1.5" stroke-linecap="round" stroke-linejoin="round"/>
<path d="M28.375 20.9453C29.2485 20.9439 30.1103 21.1465 30.8916 21.5372C31.6729 21.9278 32.3521 22.4956 32.875 23.1953" stroke="#0075FD" stroke-width="1.5" stroke-linecap="round" stroke-linejoin="round"/>
<path d="M11.125 23.1953C11.6479 22.4956 12.3271 21.9278 13.1084 21.5372C13.8897 21.1465 14.7515 20.9439 15.625 20.9453" stroke="#0075FD" stroke-width="1.5" stroke-linecap="round" stroke-linejoin="round"/>
<path d="M16.6 30.3204C17.0939 29.3089 17.862 28.4564 18.8167 27.8602C19.7714 27.2639 20.8744 26.9478 22 26.9478C23.1256 26.9478 24.2286 27.2639 25.1833 27.8602C26.1381 28.4564 26.9061 29.3089 27.4 30.3204" stroke="#0075FD" stroke-width="1.5" stroke-linecap="round" stroke-linejoin="round"/>
<path d="M15.625 20.9453C15.0556 20.9459 14.4978 20.7844 14.0168 20.4797C13.5357 20.1751 13.1513 19.7398 12.9085 19.2248C12.6656 18.7098 12.5744 18.1363 12.6454 17.5713C12.7163 17.0064 12.9466 16.4733 13.3093 16.0344C13.672 15.5954 14.1521 15.2688 14.6936 15.0926C15.235 14.9164 15.8155 14.8979 16.367 15.0393C16.9186 15.1807 17.4185 15.4762 17.8084 15.8912C18.1983 16.3061 18.462 16.8235 18.5687 17.3828" stroke="#0075FD" stroke-width="1.5" stroke-linecap="round" stroke-linejoin="round"/>
<path d="M25.4312 17.3828C25.538 16.8235 25.8017 16.3061 26.1916 15.8912C26.5815 15.4762 27.0814 15.1807 27.633 15.0393C28.1845 14.8979 28.7649 14.9164 29.3064 15.0926C29.8478 15.2688 30.328 15.5954 30.6907 16.0344C31.0534 16.4733 31.2837 17.0064 31.3546 17.5713C31.4256 18.1363 31.3344 18.7098 31.0915 19.2248C30.8487 19.7398 30.4643 20.1751 29.9832 20.4797C29.5022 20.7844 28.9444 20.9459 28.375 20.9453" stroke="#0075FD" stroke-width="1.5" stroke-linecap="round" stroke-linejoin="round"/>
</svg>
