<svg width="285" height="168" viewBox="0 0 285 168" fill="none" xmlns="http://www.w3.org/2000/svg">
<g filter="url(#filter0_d_207_4218)">
<rect x="48" y="48" width="197" height="80" rx="8" fill="white" shape-rendering="crispEdges"/>
<rect x="68" y="66" width="44" height="44" rx="6" fill="#E9F8F3"/>
<path d="M90.4125 93.8781L95.1375 96.8781C95.7469 97.2625 96.4969 96.6906 96.3187 95.9875L94.95 90.6063C94.913 90.4571 94.9189 90.3005 94.967 90.1546C95.0151 90.0086 95.1034 89.8792 95.2219 89.7813L99.4594 86.2469C100.012 85.7875 99.7312 84.8594 99.0094 84.8125L93.4781 84.4563C93.3272 84.4475 93.1821 84.3949 93.0606 84.305C92.939 84.2151 92.8463 84.0918 92.7937 83.95L90.7312 78.7563C90.6767 78.6062 90.5772 78.4765 90.4464 78.3849C90.3156 78.2933 90.1597 78.2441 90 78.2441C89.8403 78.2441 89.6844 78.2933 89.5536 78.3849C89.4228 78.4765 89.3233 78.6062 89.2687 78.7563L87.2062 83.95C87.1537 84.0918 87.061 84.2151 86.9394 84.305C86.8179 84.3949 86.6728 84.4475 86.5219 84.4563L80.9906 84.8125C80.2687 84.8594 79.9875 85.7875 80.5406 86.2469L84.7781 89.7813C84.8966 89.8792 84.9849 90.0086 85.033 90.1546C85.0811 90.3005 85.087 90.4571 85.05 90.6063L83.7844 95.5938C83.5687 96.4375 84.4687 97.1219 85.1906 96.6625L89.5875 93.8781C89.7108 93.7997 89.8539 93.7581 90 93.7581C90.1461 93.7581 90.2892 93.7997 90.4125 93.8781Z" fill="#20B486" stroke="#20B486" stroke-width="1.5" stroke-linecap="round" stroke-linejoin="round"/>
<path d="M126.34 80.54H134.97L134.92 82.14H127.92L127.55 86.81C128.03 86.3633 128.553 86.0467 129.12 85.86C129.693 85.6667 130.313 85.57 130.98 85.57C131.853 85.57 132.657 85.75 133.39 86.11C134.13 86.4633 134.723 86.99 135.17 87.69C135.617 88.3833 135.84 89.2433 135.84 90.27C135.84 91.27 135.623 92.14 135.19 92.88C134.757 93.62 134.147 94.1967 133.36 94.61C132.573 95.0167 131.65 95.22 130.59 95.22C129.697 95.22 128.87 95.0633 128.11 94.75C127.35 94.4367 126.697 94 126.15 93.44C125.61 92.88 125.213 92.2367 124.96 91.51L126.56 90.84C126.8 91.3867 127.1 91.8733 127.46 92.3C127.827 92.7267 128.26 93.06 128.76 93.3C129.26 93.54 129.827 93.66 130.46 93.66C131.487 93.66 132.31 93.3633 132.93 92.77C133.557 92.17 133.87 91.3567 133.87 90.33C133.87 89.69 133.723 89.1333 133.43 88.66C133.137 88.18 132.74 87.8067 132.24 87.54C131.747 87.2733 131.2 87.14 130.6 87.14C130.207 87.14 129.84 87.1767 129.5 87.25C129.16 87.3167 128.823 87.45 128.49 87.65C128.157 87.85 127.807 88.1533 127.44 88.56C127.4 88.58 127.37 88.59 127.35 88.59C127.33 88.5833 127.297 88.57 127.25 88.55L125.69 88.06L126.34 80.54ZM137.913 95V92.64H140.113V95H137.913ZM147.454 80.34C149.021 80.34 150.268 80.97 151.194 82.23C152.128 83.4833 152.594 85.34 152.594 87.8C152.594 90.2467 152.131 92.0967 151.204 93.35C150.278 94.5967 149.021 95.22 147.434 95.22C145.854 95.22 144.601 94.6 143.674 93.36C142.748 92.1133 142.284 90.27 142.284 87.83C142.284 86.1833 142.498 84.8033 142.924 83.69C143.351 82.5767 143.951 81.74 144.724 81.18C145.498 80.62 146.408 80.34 147.454 80.34ZM147.454 93.62C148.488 93.62 149.268 93.1667 149.794 92.26C150.328 91.3467 150.594 89.8633 150.594 87.81C150.594 85.7167 150.324 84.21 149.784 83.29C149.251 82.3633 148.471 81.9 147.444 81.9C146.424 81.9 145.638 82.3667 145.084 83.3C144.538 84.2267 144.264 85.73 144.264 87.81C144.264 89.8567 144.538 91.3367 145.084 92.25C145.631 93.1633 146.421 93.62 147.454 93.62ZM175.039 95H173.079L170.439 88.77H166.549V95H164.699V80.54H170.299C171.339 80.54 172.209 80.7 172.909 81.02C173.609 81.3333 174.132 81.7867 174.479 82.38C174.826 82.9667 174.999 83.67 174.999 84.49C174.999 85.2767 174.859 85.93 174.579 86.45C174.306 86.97 173.956 87.39 173.529 87.71C173.102 88.0233 172.659 88.2667 172.199 88.44L175.039 95ZM169.699 87.24C170.786 87.24 171.626 87.02 172.219 86.58C172.812 86.1333 173.109 85.4733 173.109 84.6C173.109 83.7467 172.842 83.11 172.309 82.69C171.782 82.2633 171.059 82.05 170.139 82.05H166.549V87.24H169.699ZM180.519 95.2C179.852 95.2 179.262 95.0833 178.749 94.85C178.236 94.61 177.832 94.2667 177.539 93.82C177.252 93.3733 177.109 92.8333 177.109 92.2C177.109 91.0533 177.509 90.2 178.309 89.64C179.109 89.08 180.392 88.78 182.159 88.74L184.009 88.69V87.88C184.009 87.2467 183.819 86.7467 183.439 86.38C183.059 86.0067 182.469 85.82 181.669 85.82C181.076 85.8267 180.552 85.9667 180.099 86.24C179.652 86.5133 179.362 86.96 179.229 87.58H177.599C177.639 86.9067 177.829 86.34 178.169 85.88C178.509 85.4133 178.982 85.06 179.589 84.82C180.202 84.58 180.926 84.46 181.759 84.46C182.659 84.46 183.406 84.5867 183.999 84.84C184.599 85.0933 185.046 85.4667 185.339 85.96C185.639 86.4533 185.789 87.06 185.789 87.78V95H184.209L184.079 93.06C183.679 93.8667 183.169 94.4267 182.549 94.74C181.936 95.0467 181.259 95.2 180.519 95.2ZM181.079 93.87C181.426 93.87 181.769 93.8067 182.109 93.68C182.456 93.5533 182.772 93.3833 183.059 93.17C183.346 92.95 183.572 92.7067 183.739 92.44C183.912 92.1667 184.002 91.8867 184.009 91.6V89.83L182.469 89.86C181.682 89.8733 181.022 89.9533 180.489 90.1C179.962 90.2467 179.566 90.4767 179.299 90.79C179.039 91.1033 178.909 91.5133 178.909 92.02C178.909 92.6 179.109 93.0533 179.509 93.38C179.916 93.7067 180.439 93.87 181.079 93.87ZM193.713 86.01H191.383V92.44C191.383 92.8067 191.42 93.0767 191.493 93.25C191.573 93.4167 191.703 93.5233 191.883 93.57C192.07 93.6167 192.323 93.64 192.643 93.64H193.773V94.88C193.646 94.9267 193.453 94.9667 193.193 95C192.94 95.0333 192.623 95.05 192.243 95.05C191.53 95.05 190.976 94.9533 190.583 94.76C190.19 94.5667 189.913 94.28 189.753 93.9C189.6 93.52 189.523 93.0533 189.523 92.5V86.01H187.843V84.66H189.573L190.023 81.65H191.383V84.65H193.713V86.01ZM198.37 84.66V95H196.58V84.66H198.37ZM198.41 80.55V82.47H196.52V80.55H198.41ZM201.741 95V84.66H203.531V86.16C203.698 85.8733 203.928 85.6033 204.221 85.35C204.521 85.0967 204.881 84.8933 205.301 84.74C205.728 84.5867 206.218 84.51 206.771 84.51C207.424 84.51 208.024 84.64 208.571 84.9C209.124 85.16 209.564 85.5667 209.891 86.12C210.224 86.6667 210.391 87.3733 210.391 88.24V95H208.541V88.42C208.541 87.6133 208.328 87.0167 207.901 86.63C207.481 86.2367 206.934 86.04 206.261 86.04C205.794 86.04 205.358 86.1167 204.951 86.27C204.544 86.4167 204.214 86.6433 203.961 86.95C203.708 87.25 203.581 87.63 203.581 88.09V95H201.741ZM217.644 98.42C216.017 98.42 214.751 98.1833 213.844 97.71C212.944 97.2433 212.494 96.5733 212.494 95.7C212.494 95.3267 212.581 95.01 212.754 94.75C212.927 94.4833 213.134 94.2633 213.374 94.09C213.614 93.9167 213.837 93.78 214.044 93.68C214.251 93.5733 214.384 93.4967 214.444 93.45C214.331 93.3833 214.187 93.3 214.014 93.2C213.847 93.1 213.701 92.9667 213.574 92.8C213.447 92.6333 213.384 92.4167 213.384 92.15C213.384 91.8233 213.537 91.5233 213.844 91.25C214.151 90.9767 214.604 90.7733 215.204 90.64C214.597 90.3333 214.124 89.9267 213.784 89.42C213.444 88.9133 213.274 88.3633 213.274 87.77C213.274 87.1033 213.454 86.5233 213.814 86.03C214.181 85.5367 214.701 85.16 215.374 84.9C216.047 84.6333 216.847 84.5 217.774 84.5C218.447 84.5 219.014 84.58 219.474 84.74C219.934 84.8933 220.361 85.1133 220.754 85.4C220.861 85.3533 221.027 85.2833 221.254 85.19C221.487 85.09 221.744 84.9833 222.024 84.87C222.304 84.7567 222.564 84.65 222.804 84.55C223.051 84.4433 223.247 84.3633 223.394 84.31L223.384 86.02L221.574 86.36C221.674 86.5733 221.754 86.8067 221.814 87.06C221.881 87.3133 221.914 87.55 221.914 87.77C221.914 88.3767 221.754 88.9267 221.434 89.42C221.121 89.9133 220.644 90.3067 220.004 90.6C219.364 90.8933 218.564 91.04 217.604 91.04C217.524 91.04 217.421 91.04 217.294 91.04C217.174 91.0333 217.071 91.0267 216.984 91.02C216.277 91.04 215.791 91.12 215.524 91.26C215.257 91.3933 215.124 91.5433 215.124 91.71C215.124 91.9033 215.274 92.0367 215.574 92.11C215.874 92.1833 216.384 92.2467 217.104 92.3C217.364 92.3133 217.684 92.33 218.064 92.35C218.451 92.37 218.877 92.3967 219.344 92.43C220.431 92.4967 221.267 92.7733 221.854 93.26C222.441 93.7467 222.734 94.4033 222.734 95.23C222.734 96.17 222.314 96.9367 221.474 97.53C220.634 98.1233 219.357 98.42 217.644 98.42ZM217.974 97.23C218.927 97.23 219.657 97.0867 220.164 96.8C220.671 96.5133 220.924 96.08 220.924 95.5C220.924 95.0867 220.767 94.75 220.454 94.49C220.147 94.2233 219.677 94.07 219.044 94.03L216.144 93.84C215.884 93.8267 215.614 93.8933 215.334 94.04C215.054 94.18 214.814 94.3767 214.614 94.63C214.421 94.8833 214.324 95.17 214.324 95.49C214.324 96.0367 214.621 96.4633 215.214 96.77C215.814 97.0767 216.734 97.23 217.974 97.23ZM217.654 89.85C218.401 89.85 219.001 89.6767 219.454 89.33C219.914 88.9833 220.144 88.47 220.144 87.79C220.144 87.09 219.914 86.5567 219.454 86.19C219.001 85.8233 218.401 85.64 217.654 85.64C216.901 85.64 216.291 85.8267 215.824 86.2C215.364 86.5667 215.134 87.0967 215.134 87.79C215.134 88.4433 215.354 88.95 215.794 89.31C216.234 89.67 216.854 89.85 217.654 89.85Z" fill="#52565C"/>
</g>
<defs>
<filter id="filter0_d_207_4218" x="0" y="0" width="285" height="168" filterUnits="userSpaceOnUse" color-interpolation-filters="sRGB">
<feFlood flood-opacity="0" result="BackgroundImageFix"/>
<feColorMatrix in="SourceAlpha" type="matrix" values="0 0 0 0 0 0 0 0 0 0 0 0 0 0 0 0 0 0 127 0" result="hardAlpha"/>
<feOffset dx="-4" dy="-4"/>
<feGaussianBlur stdDeviation="22"/>
<feComposite in2="hardAlpha" operator="out"/>
<feColorMatrix type="matrix" values="0 0 0 0 0 0 0 0 0 0 0 0 0 0 0 0 0 0 0.08 0"/>
<feBlend mode="normal" in2="BackgroundImageFix" result="effect1_dropShadow_207_4218"/>
<feBlend mode="normal" in="SourceGraphic" in2="effect1_dropShadow_207_4218" result="shape"/>
</filter>
</defs>
</svg>
