<svg width="24" height="25" viewBox="0 0 24 25" fill="none" xmlns="http://www.w3.org/2000/svg">
<path d="M12.8649 3.06647C12.4796 2.40232 11.5204 2.40232 11.1351 3.06647L8.42101 7.74378C8.23064 8.07187 7.90159 8.29576 7.52653 8.35241L2.44021 9.12063C1.58593 9.24966 1.28627 10.3283 1.95158 10.8795L5.74067 14.0187C6.09141 14.3093 6.25633 14.7676 6.17113 15.2151L5.17996 20.4202C5.02327 21.2431 5.88706 21.8824 6.62821 21.4921L11.4176 18.9703C11.7821 18.7784 12.2178 18.7784 12.5824 18.9703L17.3718 21.4921C18.1129 21.8824 18.9767 21.2431 18.82 20.4202L17.8289 15.2151C17.7437 14.7676 17.9086 14.3093 18.2593 14.0187L22.0484 10.8795C22.7137 10.3283 22.4141 9.24966 21.5598 9.12063L16.4735 8.35241C16.0984 8.29576 15.7694 8.07187 15.579 7.74378L12.8649 3.06647Z" fill="#FF8800"/>
</svg>
