<?xml version="1.0" standalone="no"?>
<!DOCTYPE svg PUBLIC "-//W3C//DTD SVG 20010904//EN"
 "http://www.w3.org/TR/2001/REC-SVG-20010904/DTD/svg10.dtd">
<svg version="1.0" xmlns="http://www.w3.org/2000/svg"
 width="226.000000pt" height="59.000000pt" viewBox="0 0 226.000000 59.000000"
 preserveAspectRatio="xMidYMid meet">

<g transform="translate(0.000000,59.000000) scale(0.100000,-0.100000)"
fill="#000000" stroke="none">
<path d="M166 460 c-55 -17 -107 -80 -119 -147 -6 -32 -5 -33 27 -33 31 0 34
3 40 40 11 67 66 100 169 100 43 0 47 2 47 25 0 24 -2 25 -67 24 -38 0 -81 -5
-97 -9z"/>
<path d="M529 447 c-65 -34 -89 -76 -89 -152 0 -48 5 -70 23 -95 34 -51 97
-80 174 -80 61 0 63 1 63 25 0 24 -3 25 -54 25 -72 0 -102 12 -126 52 -59 97
9 198 135 198 41 0 45 2 45 25 0 24 -2 25 -63 25 -47 0 -75 -6 -108 -23z"/>
<path d="M800 446 c0 -23 3 -24 94 -28 75 -3 99 -8 115 -22 29 -26 26 -60 -5
-85 -23 -18 -41 -21 -115 -21 l-89 0 0 -85 0 -85 30 0 30 0 0 60 0 60 44 0
c28 0 46 -5 49 -14 3 -7 20 -34 39 -59 27 -38 39 -46 66 -46 31 -1 42 11 23
24 -12 7 -71 93 -71 103 0 4 13 14 29 24 42 23 58 81 37 131 -21 52 -61 67
-181 67 -93 0 -95 0 -95 -24z"/>
<path d="M1300 295 l0 -175 30 0 30 0 0 175 0 175 -30 0 -30 0 0 -175z"/>
<path d="M1570 441 l0 -29 145 -1 145 -2 0 31 0 30 -145 0 -145 0 0 -29z"/>
<path d="M1960 445 c0 -24 2 -25 75 -25 111 0 154 -30 133 -91 -13 -36 -47
-49 -133 -49 l-75 0 0 -80 0 -80 30 0 c30 0 30 1 30 55 l0 55 43 0 c103 0 167
47 167 121 0 86 -49 119 -180 119 -89 0 -90 0 -90 -25z"/>
<path d="M1680 235 l0 -115 35 0 35 0 0 115 0 115 -35 0 -35 0 0 -115z"/>
<path d="M260 280 c0 -34 -28 -79 -60 -95 -17 -9 -56 -15 -95 -15 -63 0 -65
-1 -65 -26 l0 -26 83 3 c71 3 90 8 125 31 44 29 65 61 77 116 6 31 6 32 -29
32 -30 0 -36 -4 -36 -20z"/>
</g>
</svg>
