<svg width="34" height="34" viewBox="0 0 34 34" fill="none" xmlns="http://www.w3.org/2000/svg">
<path d="M22.991 21.4257L21.5453 32.3887C21.5088 32.6521 21.3925 32.8981 21.212 33.0936C21.0316 33.289 20.7957 33.4246 20.536 33.482C20.2762 33.5395 20.0051 33.5161 19.7591 33.4149C19.5131 33.3138 19.3039 33.1398 19.1597 32.9163L13.2258 23.5854C13.1227 23.4248 12.9859 23.2884 12.825 23.1858C12.664 23.0831 12.4827 23.0166 12.2935 22.9908L1.33061 21.5452C1.06713 21.5086 0.821132 21.3923 0.625676 21.2119C0.43022 21.0315 0.294665 20.7955 0.237223 20.5358C0.179781 20.2761 0.203203 20.005 0.304343 19.759C0.405482 19.5129 0.579494 19.3038 0.803001 19.1595L10.1339 13.2256C10.2945 13.1225 10.4309 12.9858 10.5335 12.8248C10.6362 12.6639 10.7027 12.4826 10.7284 12.2934L12.1741 1.33047C12.2106 1.06698 12.3269 0.82099 12.5074 0.625534C12.6878 0.430078 12.9237 0.294523 13.1835 0.237081C13.4432 0.179639 13.7143 0.203061 13.9603 0.304201C14.2063 0.40534 14.4155 0.579352 14.5597 0.802859L20.4936 10.1337C20.5967 10.2944 20.7335 10.4307 20.8945 10.5334C21.0554 10.636 21.2367 10.7025 21.4259 10.7283L32.3888 12.174C32.6523 12.2105 32.8983 12.3268 33.0937 12.5072C33.2892 12.6877 33.4247 12.9236 33.4822 13.1833C33.5396 13.443 33.5162 13.7141 33.4151 13.9602C33.3139 14.2062 33.1399 14.4154 32.9164 14.5596L23.5855 20.4935C23.4249 20.5966 23.2885 20.7334 23.1859 20.8943C23.0832 21.0553 23.0167 21.2366 22.991 21.4257V21.4257Z" fill="#FFC27A"/>
</svg>
