<svg width="274" height="201" viewBox="0 0 274 201" fill="none" xmlns="http://www.w3.org/2000/svg">
<path opacity="0.16" fill-rule="evenodd" clip-rule="evenodd" d="M102.397 71.1581V92.1315C102.397 94.9027 103.773 97.4938 106.141 99.0125C113.463 103.707 129.604 113.486 137 113.486C144.397 113.486 160.537 103.707 167.859 99.0125C170.227 97.4938 171.603 94.9027 171.603 92.1315V71.1581C171.603 64.145 165.794 58.4597 158.627 58.4597H115.373C108.207 58.4597 102.397 64.145 102.397 71.1581ZM118.617 71.1583C116.826 71.1583 115.373 72.5797 115.373 74.3329C115.373 76.0862 116.826 77.5075 118.617 77.5075H138.081C139.873 77.5075 141.326 76.0862 141.326 74.3329C141.326 72.5797 139.873 71.1583 138.081 71.1583H118.617ZM118.617 85.9732C116.826 85.9732 115.373 87.3945 115.373 89.1478C115.373 90.901 116.826 92.3224 118.617 92.3224H151.058C152.849 92.3224 154.302 90.901 154.302 89.1478C154.302 87.3945 152.849 85.9732 151.058 85.9732H118.617Z" fill="#36B37E"/>
<path d="M115.373 74.3331C115.373 72.5798 116.826 71.1584 118.617 71.1584H138.081C139.873 71.1584 141.325 72.5798 141.325 74.3331C141.325 76.0863 139.873 77.5077 138.081 77.5077H118.617C116.826 77.5077 115.373 76.0863 115.373 74.3331Z" fill="#919EAB" fill-opacity="0.48"/>
<path d="M115.373 89.1479C115.373 87.3946 116.826 85.9733 118.617 85.9733H151.058C152.849 85.9733 154.302 87.3946 154.302 89.1479C154.302 90.9011 152.849 92.3225 151.058 92.3225H118.617C116.826 92.3225 115.373 90.9011 115.373 89.1479Z" fill="#919EAB" fill-opacity="0.48"/>
<path d="M102.397 76.4536C100.193 78.0544 98.2456 79.5185 96.6829 80.7144C94.079 82.707 92.4468 85.6456 92.2265 88.8731C91.9268 93.265 91.5835 100.638 91.5835 111.37C91.5835 121.519 92.1975 128.664 92.7712 133.125C93.2443 136.803 95.7605 139.719 99.4704 140.469C105.419 141.67 116.778 143.116 137 143.116C157.223 143.116 168.582 141.67 174.53 140.469C178.24 139.719 180.756 136.803 181.229 133.125C181.803 128.664 182.417 121.519 182.417 111.37C182.417 100.638 182.074 93.265 181.774 88.8731C181.553 85.6456 179.921 82.707 177.317 80.7144C175.755 79.5185 173.807 78.0544 171.603 76.4536V92.1317C171.603 94.9029 170.227 97.494 167.859 99.0128C160.537 103.707 144.397 113.486 137 113.486C129.604 113.486 113.463 103.707 106.142 99.0128C103.773 97.494 102.397 94.9029 102.397 92.1317V76.4536Z" fill="#2EB67D"/>
</svg>
