<?xml version="1.0" encoding="UTF-8"?>
<svg version="1.1" xmlns="http://www.w3.org/2000/svg" width="1328" height="855">
<path d="M0 0 C0.82862045 0.00359528 1.65724091 0.00719055 2.51097107 0.01089478 C3.81329178 0.01067574 3.81329178 0.01067574 5.141922 0.01045227 C8.02594967 0.01115171 10.9099136 0.01894554 13.79393005 0.02676392 C15.78790247 0.02862799 17.78187535 0.03005194 19.77584839 0.03105164 C25.03498082 0.03487769 30.29408583 0.04470871 35.5532074 0.05575562 C40.91534555 0.06596786 46.27748811 0.07054885 51.63963318 0.07559204 C62.16894213 0.0863309 72.69823069 0.10340837 83.2275238 0.12442017 C81.9655923 2.65731509 80.70267171 5.1897089 79.43919373 7.72183228 C78.90941547 8.78556187 78.90941547 8.78556187 78.36893463 9.87078094 C75.20619292 16.20593289 71.91025204 22.45934595 68.5400238 28.68692017 C67.64066101 30.35416138 67.64066101 30.35416138 66.72312927 32.05508423 C62.38117143 40.07293652 57.91527022 48.01398196 53.39202881 55.93058777 C48.71607502 64.1618765 44.2530535 72.49876728 39.8134613 80.85879517 C39.07295232 82.25062988 38.3323118 83.64239462 37.59153748 85.03408813 C35.80202074 88.39673018 34.01426805 91.7603042 32.2275238 95.12442017 C33.39924385 95.1064452 33.39924385 95.1064452 34.59463501 95.08810711 C53.61573029 94.80081043 72.63639178 94.58579353 91.65919495 94.45086193 C100.8587086 94.3838717 110.05677275 94.29257539 119.25535583 94.14370728 C127.27450501 94.01398894 135.29260452 93.9302318 143.3127737 93.90126973 C147.55874036 93.88434169 151.8017048 93.84467905 156.04670715 93.74992943 C160.04666388 93.6613764 164.04239765 93.63452119 168.0432415 93.65402031 C169.50754242 93.65045647 170.97199078 93.62475393 172.43544197 93.57474899 C176.98679917 93.42691951 180.9392453 93.53046387 185.2275238 95.12442017 C188.88918868 99.09505314 190.95436668 103.21736143 193.2275238 108.12442017 C194.26969084 109.92152254 195.32820574 111.70943259 196.4150238 113.47988892 C197.35430244 115.08952942 198.29184671 116.70018343 199.2275238 118.31192017 C199.71607849 119.14272095 200.20463318 119.97352173 200.70799255 120.82949829 C201.39828552 122.01769165 201.39828552 122.01769165 202.1025238 123.22988892 C202.71740662 124.28406006 202.71740662 124.28406006 203.3447113 125.35952759 C204.2275238 127.12442017 204.2275238 127.12442017 204.2275238 129.12442017 C140.8675238 129.12442017 77.5075238 129.12442017 12.2275238 129.12442017 C11.2375238 132.09442017 11.2375238 132.09442017 10.2275238 135.12442017 C9.44922049 136.66995005 8.62279849 138.19215644 7.7509613 139.68692017 C7.00338562 140.98436157 7.00338562 140.98436157 6.2407074 142.30801392 C5.70010681 143.23742798 5.15950623 144.16684204 4.6025238 145.12442017 C-0.89291613 154.70798886 -6.19616434 164.37893621 -11.3974762 174.12442017 C-11.74449585 174.77185181 -12.0915155 175.41928345 -12.4490509 176.08633423 C-13.44816828 177.95146395 -14.44306712 179.81877818 -15.4365387 181.68692017 C-16.00839905 182.76070923 -16.5802594 183.83449829 -17.16944885 184.94082642 C-20.93510085 192.41936769 -23.66955816 198.97230125 -21.08106995 207.36660767 C-19.00686691 211.96630477 -16.30981411 215.70046078 -11.7724762 218.12442017 C-7.66333897 218.87364725 -3.60083003 218.81467592 0.56687927 218.78384399 C1.80645889 218.7943277 3.04603851 218.8048114 4.32318115 218.81561279 C7.70953234 218.83942429 11.09454757 218.84130031 14.48088217 218.83331895 C18.02438234 218.83018833 21.56768226 218.85524437 25.11109924 218.87727356 C31.81517828 218.91468861 38.51905448 218.92686002 45.22322762 218.92989796 C52.85814368 218.93459158 60.49285691 218.96752452 68.1276834 219.00279582 C83.8276156 219.07469531 99.52742585 219.11124144 115.2275238 219.12442017 C114.15540999 222.44266315 113.07834232 225.66794359 111.54759216 228.8031311 C111.23063889 229.45690735 110.91368561 230.11068359 110.58712769 230.78427124 C110.08234642 231.81116058 110.08234642 231.81116058 109.56736755 232.85879517 C109.2174324 233.57803162 108.86749725 234.29726807 108.50695801 235.03829956 C107.39644565 237.31871561 106.28081272 239.59658202 105.1650238 241.87442017 C104.41143079 243.4198284 103.65817218 244.96539976 102.90525818 246.51113892 C97.91733147 256.74480484 97.91733147 256.74480484 96.2275238 260.12442017 C75.59065892 260.19464879 54.95381387 260.24747603 34.31685352 260.27985668 C24.73373216 260.29529437 15.15068525 260.31632435 5.56761169 260.35073853 C-2.78961038 260.38073606 -11.14677851 260.40001766 -19.50405294 260.40668565 C-23.92498255 260.41058044 -28.34575787 260.41966842 -32.7666378 260.44161034 C-36.93709716 260.46213949 -41.10734029 260.46822117 -45.27784538 260.46374321 C-46.79948862 260.46456113 -48.32113993 260.47042819 -49.84273911 260.48203659 C-67.85503327 260.61258561 -83.29349262 257.06329508 -96.60890198 244.42837524 C-107.28811217 233.83617558 -113.72723889 220.44727466 -114.01515198 205.25186157 C-114.08884484 183.21769556 -103.08799416 166.69144368 -92.06642151 148.29190063 C-89.73948789 144.3940673 -87.44613992 140.47646495 -85.1474762 136.56192017 C-82.9818512 132.88035767 -82.9818512 132.88035767 -80.7724762 129.12442017 C-91.0024762 129.12442017 -101.2324762 129.12442017 -111.7724762 129.12442017 C-110.23544494 125.28184203 -109.12748798 122.96542759 -106.76856995 119.76895142 C-106.19300354 118.98197876 -105.61743713 118.1950061 -105.02442932 117.38418579 C-104.42565979 116.57658813 -103.82689026 115.76899048 -103.2099762 114.93692017 C-102.01998925 113.31930155 -100.83113051 111.70085218 -99.64356995 110.08145142 C-99.11690735 109.36964722 -98.59024475 108.65784302 -98.04762268 107.92446899 C-96.72147038 106.14915694 -96.72147038 106.14915694 -95.7724762 104.12442017 C-106.6624762 104.12442017 -117.5524762 104.12442017 -128.7724762 104.12442017 C-127.84103654 99.4672219 -126.36862444 95.67375241 -124.39356995 91.41738892 C-124.09970398 90.77370361 -123.80583801 90.13001831 -123.50306702 89.46682739 C-122.41115929 87.0792023 -121.31002774 84.69580411 -120.2099762 82.31192017 C-117.7556012 76.97004517 -115.3012262 71.62817017 -112.7724762 66.12442017 C-98.2524762 66.12442017 -83.7324762 66.12442017 -68.7724762 66.12442017 C-74.52093299 81.07040782 -74.52093299 81.07040782 -77.5849762 87.43692017 C-78.6368512 89.64379517 -79.6887262 91.85067017 -80.7724762 94.12442017 C-74.1724762 94.12442017 -67.5724762 94.12442017 -60.7724762 94.12442017 C-59.86368713 92.54918579 -58.95489807 90.97395142 -58.01856995 89.35098267 C-52.66700745 80.074941 -47.31544495 70.79889933 -41.96388245 61.52285767 C-41.35310852 60.46413452 -40.74233459 59.40541138 -40.11305237 58.31460571 C-38.88031109 56.17795228 -37.64739938 54.04139717 -36.4143219 51.90493774 C-33.2093923 46.35148531 -30.00775757 40.79617239 -26.8115387 35.23770142 C-15.5726767 15.70256137 -15.5726767 15.70256137 -10.3974762 7.06192017 C-10.0341217 6.45453003 -9.67076721 5.84713989 -9.29640198 5.22134399 C-6.35580776 0.34829681 -5.80906321 0.01064402 0 0 Z " fill="#352B85" transform="translate(644.7724761962891,145.87557983398438)"/>
<path d="M0 0 C4.25203287 4.14587949 7.6003827 8.77071614 10.81640625 13.74609375 C14.76842221 12.06336189 17.84140691 9.38005099 21.12890625 6.68359375 C39.67150711 -8.13241565 61.77129849 -18.31496316 85.81640625 -19.25390625 C86.64785156 -19.29386719 87.47929688 -19.33382812 88.3359375 -19.375 C109.59800969 -19.90421702 128.90576797 -14.20055583 144.5078125 0.4765625 C145.65056641 1.59998047 145.65056641 1.59998047 146.81640625 2.74609375 C147.44417969 3.36097656 148.07195312 3.97585938 148.71875 4.609375 C162.29118417 18.98199803 167.37393862 37.69164641 167.02267456 57.11924744 C166.88505257 61.50548969 166.32400264 65.72021675 165.56298828 70.03735352 C165.4304471 70.80860093 165.29790592 71.57984835 165.16134834 72.3744669 C163.54933625 81.55601533 161.59132303 90.66345142 159.62109375 99.7734375 C159.22390181 101.62375838 158.82702703 103.47414736 158.43045044 105.32460022 C157.60768806 109.1595752 156.78225008 112.99396001 155.95458984 116.82788086 C154.8936067 121.74291972 153.83784267 126.65906155 152.78382683 131.57559872 C151.96857611 135.37706563 151.1514875 139.17813545 150.33374405 142.97906685 C149.94344208 144.79350391 149.55351359 146.60802136 149.16396713 148.42262077 C148.62261393 150.94220241 148.07899265 153.46128349 147.53466797 155.98022461 C147.37466309 156.72662201 147.2146582 157.47301941 147.04980469 158.24203491 C146.42205094 161.13742933 145.75421619 163.93266392 144.81640625 166.74609375 C131.61640625 166.74609375 118.41640625 166.74609375 104.81640625 166.74609375 C105.44127081 159.87258357 106.08167342 153.60160166 107.58227539 146.96435547 C107.75798569 146.16100266 107.93369598 145.35764984 108.11473083 144.529953 C108.49226683 142.80636493 108.87264574 141.08339746 109.25566292 139.36101913 C109.864312 136.61832958 110.46256778 133.87355465 111.05796814 131.12796021 C112.75034175 123.32867285 114.45428099 115.5320144 116.1809082 107.74023438 C117.24117008 102.95210175 118.2838409 98.1604041 119.31606865 93.36615372 C119.70863309 91.55897821 120.10755706 89.75317009 120.5134449 87.94894028 C124.08907097 72.04013993 127.3560705 55.30476526 118.49609375 40.546875 C112.12506041 31.40809766 104.28317127 25.87699099 93.48828125 23.16015625 C77.2708653 20.64693097 61.76027912 24.13077207 48.2734375 33.515625 C46.07260133 35.20772517 43.94212804 36.96116904 41.81640625 38.74609375 C40.30046875 39.85984375 40.30046875 39.85984375 38.75390625 40.99609375 C25.49907438 52.30492538 21.01632523 69.2550022 17.69140625 85.55859375 C17.32380658 87.30053748 16.95461794 89.04214653 16.58398438 90.78344727 C15.77044238 94.6167176 14.96577023 98.45171247 14.16699219 102.28808594 C11.86527349 113.32389395 9.49317444 124.34482881 7.13189697 135.36801147 C6.32221787 139.1564019 5.51774299 142.94586659 4.71435547 146.7355957 C4.21717231 149.07113693 3.71994154 151.40666802 3.22265625 153.7421875 C2.87951889 155.36901962 2.87951889 155.36901962 2.52944946 157.02871704 C2.31799286 158.01882782 2.10653625 159.0089386 1.88867188 160.02905273 C1.61295349 161.32914528 1.61295349 161.32914528 1.33166504 162.65550232 C0.81640625 164.74609375 0.81640625 164.74609375 -0.18359375 166.74609375 C-13.38359375 166.74609375 -26.58359375 166.74609375 -40.18359375 166.74609375 C-39.5134114 160.71445264 -38.72981432 155.02683993 -37.43359375 149.14379883 C-37.25948975 148.33591919 -37.08538574 147.52803955 -36.90600586 146.69567871 C-36.53086586 144.95697046 -36.15377606 143.21868194 -35.77490234 141.48078346 C-35.17310375 138.71745724 -34.57784638 135.95279373 -33.984375 133.18766785 C-32.29720819 125.33098831 -30.60077883 117.47633716 -28.89453125 109.6237793 C-27.84775433 104.80406031 -26.8104753 99.98237375 -25.77880859 95.15939903 C-25.38692046 93.33644433 -24.99150309 91.51424418 -24.59228516 89.69288063 C-20.77404799 72.26635152 -17.28496261 56.08731343 -26.8046875 39.78125 C-32.67938989 31.11065525 -40.84189535 25.54030938 -51.10546875 23.1796875 C-68.45587054 20.73565882 -84.80162989 24.42862166 -98.89013672 35.03027344 C-112.64182383 46.25362346 -121.09461264 59.11860575 -124.97265625 76.4609375 C-125.21585602 77.50998764 -125.45905579 78.55903778 -125.70962524 79.63987732 C-129.36321611 95.60853174 -132.66759373 111.65799514 -136.01257324 127.69342041 C-137.09897672 132.89676604 -138.19093464 138.09894882 -139.28190613 143.3013382 C-140.91994008 151.11539852 -142.55113792 158.93085687 -144.18359375 166.74609375 C-157.71359375 166.74609375 -171.24359375 166.74609375 -185.18359375 166.74609375 C-184.05847812 157.74516868 -184.05847812 157.74516868 -183.42036438 154.69171143 C-183.2762059 153.99441422 -183.13204742 153.297117 -182.98352051 152.57868958 C-182.82822876 151.84405991 -182.67293701 151.10943024 -182.51293945 150.35253906 C-182.34686691 149.55444321 -182.18079437 148.75634735 -182.00968933 147.93406677 C-181.4631764 145.31335107 -180.91166643 142.69372238 -180.359375 140.07421875 C-179.97157324 138.22785271 -179.58381255 136.38147804 -179.1960907 134.53509521 C-178.38230841 130.66463471 -177.56561251 126.79480109 -176.74731445 122.92529297 C-175.71181647 118.02591224 -174.68716602 113.1243339 -173.6652956 108.22209549 C-172.86715778 104.40267891 -172.06116877 100.5849477 -171.25319481 96.76760101 C-170.87294487 94.96493742 -170.49541336 93.16169772 -170.12093544 91.35782623 C-168.13708493 81.81681013 -165.9272499 72.39290789 -163.17260742 63.04199219 C-162.94002133 62.24162663 -162.70743525 61.44126106 -162.46780109 60.616642 C-155.61939933 38.0987957 -139.68779418 18.798559 -121.18359375 4.74609375 C-120.03503906 3.85664062 -120.03503906 3.85664062 -118.86328125 2.94921875 C-84.29632769 -22.59517405 -34.37506122 -29.44513066 0 0 Z " fill="#362C86" transform="translate(686.18359375,641.25390625)"/>
<path d="M0 0 C14.01899395 13.15252681 22.94475632 30.23557919 23.8125 49.6875 C23.8640625 50.38101563 23.915625 51.07453125 23.96875 51.7890625 C25.17557801 81.05464186 11.72870938 107.93756019 -7.0625 129.375 C-12.02312955 134.71190022 -17.39115055 139.28563462 -23.1875 143.6875 C-23.95320312 144.28046875 -24.71890625 144.8734375 -25.5078125 145.484375 C-49.44353188 163.17246593 -77.92324278 170.64651615 -107.37890625 166.375 C-119.20002422 164.24113665 -129.60982801 159.96441159 -139.1875 152.6875 C-139.40889648 153.68378418 -139.63029297 154.68006836 -139.85839844 155.70654297 C-143.63476562 172.70019531 -147.41113281 189.69384766 -151.1875 206.6875 C-164.7175 206.6875 -178.2475 206.6875 -192.1875 206.6875 C-188.91170563 189.44674908 -185.48438358 172.25289281 -181.84375 155.0859375 C-181.60082718 153.93823505 -181.35790436 152.79053261 -181.10762024 151.6080513 C-179.82721743 145.55892523 -178.54403761 139.51039684 -177.25830078 133.46240234 C-175.94369214 127.27602076 -174.63858771 121.08767355 -173.33557892 114.89883995 C-172.31806016 110.07437817 -171.29363484 105.25140124 -170.26737976 100.42879105 C-169.78329145 98.14828636 -169.30170249 95.86724944 -168.8228302 93.58564377 C-161.92837702 60.77040089 -161.92837702 60.77040089 -155.3125 48.375 C-154.96864258 47.71459717 -154.62478516 47.05419434 -154.27050781 46.3737793 C-153.2632796 44.46631186 -152.23222338 42.57464184 -151.1875 40.6875 C-150.64351562 39.70007813 -150.09953125 38.71265625 -149.5390625 37.6953125 C-140.54840423 22.56469248 -125.9716338 8.98621036 -111.1875 -0.3125 C-110.34324463 -0.84423828 -110.34324463 -0.84423828 -109.48193359 -1.38671875 C-96.55115784 -9.4072899 -82.35724371 -15.25241135 -67.1875 -17.3125 C-65.98287109 -17.47685547 -65.98287109 -17.47685547 -64.75390625 -17.64453125 C-40.90622543 -20.43482152 -18.40765112 -15.86191214 0 0 Z M-110.1875 46.6875 C-120.11874498 58.87730807 -125.81562354 73.83661763 -125.1875 89.6875 C-124.10864064 97.50449852 -121.49272997 104.10703773 -117.1875 110.6875 C-116.630625 111.55375 -116.07375 112.42 -115.5 113.3125 C-106.90440132 122.14041216 -96.49676918 126.64653923 -84.18188477 127.10766602 C-66.76346855 127.25445623 -51.65496438 120.75321262 -39.19458008 108.74926758 C-37.84604983 107.40813033 -36.51616206 106.04832332 -35.1875 104.6875 C-34.51074219 104.03136719 -33.83398438 103.37523437 -33.13671875 102.69921875 C-23.02162726 92.22527701 -18.21512879 77.47567497 -17.75 63.1875 C-18.05692559 50.6802821 -22.19772149 41.7563484 -30.9140625 32.94140625 C-40.39718006 24.25937396 -51.42092624 22.01871814 -63.96484375 22.3828125 C-82.32985056 23.40052069 -98.23987052 33.16770847 -110.1875 46.6875 Z " fill="#1473B8" transform="translate(1043.1875,640.3125)"/>
<path d="M0 0 C13.88141789 12.96182869 22.84168282 29.84274364 23.85546875 48.96484375 C24.36019381 65.84133414 21.75234239 79.62305028 15.4765625 95.3125 C-22.4734375 95.3125 -60.4234375 95.3125 -99.5234375 95.3125 C-99.5234375 82.79971748 -98.95251409 70.39792985 -92.5234375 59.3125 C-91.96024055 58.2798703 -91.96024055 58.2798703 -91.38566589 57.22637939 C-89.5234375 55.3125 -89.5234375 55.3125 -86.46723938 54.83148193 C-85.21259384 54.84036438 -83.9579483 54.84924683 -82.6652832 54.85839844 C-81.97234161 54.85781433 -81.27940002 54.85723022 -80.56546021 54.85662842 C-78.27620251 54.85941408 -75.98824879 54.89052596 -73.69921875 54.921875 C-72.11167614 54.92933575 -70.52412432 54.93502947 -68.93656921 54.93902588 C-64.75896764 54.95429551 -60.58192271 54.99358818 -56.40454102 55.0378418 C-52.14151541 55.07876619 -47.87839981 55.0970308 -43.61523438 55.1171875 C-35.25104668 55.16008168 -26.88731134 55.22834843 -18.5234375 55.3125 C-19.31440387 53.37683909 -20.10915534 51.44272456 -20.90551758 49.50927734 C-21.34769119 48.43205414 -21.78986481 47.35483093 -22.24543762 46.2449646 C-26.61046644 36.22908532 -34.1054657 30.68197596 -43.78515625 26.28515625 C-57.52255899 21.22400787 -72.85525065 24.14634923 -85.859375 29.75 C-101.40502867 37.43051298 -114.5802974 50.92384093 -120.5234375 67.3125 C-124.87805765 80.37636044 -124.87705235 92.53343793 -119.5234375 105.3125 C-113.84567781 116.22623404 -106.01081573 121.38425485 -94.5234375 125.3125 C-82.89627096 128.2565582 -70.5923806 126.46632919 -59.5234375 122.3125 C-58.20435353 121.46597647 -56.88879362 120.61394788 -55.57592773 119.7578125 C-49.81195034 116.52991055 -44.52693991 116.67404109 -38.05078125 116.82421875 C-36.8871254 116.83129349 -35.72346954 116.83836823 -34.52455139 116.84565735 C-30.8360048 116.87347351 -27.14901932 116.93619236 -23.4609375 117 C-20.94858975 117.02509919 -18.43621802 117.0479095 -15.92382812 117.06835938 C-9.78983888 117.12325839 -3.65674976 117.20675737 2.4765625 117.3125 C-0.85506636 123.00233344 -5.0347068 127.50578673 -9.5234375 132.3125 C-10.13058594 132.98539063 -10.73773438 133.65828125 -11.36328125 134.3515625 C-31.0758325 155.31501963 -59.55809107 167.36723142 -88.09863281 168.40625 C-108.92832715 168.59683813 -128.7648985 163.33664747 -144.26977539 148.78295898 C-157.74049099 135.4383273 -165.78303273 117.94063347 -165.99169922 98.92700195 C-165.98154785 97.85796631 -165.97139648 96.78893066 -165.9609375 95.6875 C-165.95336426 94.55594482 -165.94579102 93.42438965 -165.93798828 92.25854492 C-165.31857296 60.38578378 -149.85243566 34.63036141 -127.41015625 12.89453125 C-94.27095792 -18.25812114 -37.37235943 -31.32159647 0 0 Z " fill="#352B85" transform="translate(279.5234375,639.6875)"/>
<path d="M0 0 C2.56516636 2.23819523 5.01833209 4.55068512 7.44921875 6.93359375 C8.15046875 7.59875 8.85171875 8.26390625 9.57421875 8.94921875 C22.50533828 22.18341139 27.74849393 41.1352168 27.69317436 59.22235012 C27.60091645 64.32492131 27.08111636 69.20257192 26.19580078 74.22485352 C26.0632596 74.99610093 25.93071842 75.76734835 25.79416084 76.5619669 C24.18214875 85.74351533 22.22413553 94.85095142 20.25390625 103.9609375 C19.85671431 105.81125838 19.45983953 107.66164736 19.06326294 109.51210022 C18.24050056 113.3470752 17.41506258 117.18146001 16.58740234 121.01538086 C15.5264192 125.93041972 14.47065517 130.84656155 13.41663933 135.76309872 C12.60138861 139.56456563 11.7843 143.36563545 10.96655655 147.16656685 C10.57625458 148.98100391 10.18632609 150.79552136 9.79677963 152.61012077 C9.25542643 155.12970241 8.71180515 157.64878349 8.16748047 160.16772461 C8.00747559 160.91412201 7.8474707 161.66051941 7.68261719 162.42953491 C7.05486344 165.32492933 6.38702869 168.12016392 5.44921875 170.93359375 C-7.75078125 170.93359375 -20.95078125 170.93359375 -34.55078125 170.93359375 C-33.55078125 159.93359375 -33.55078125 159.93359375 -32.55078125 155.93359375 C-33.50855469 156.45308594 -34.46632813 156.97257813 -35.453125 157.5078125 C-59.39698284 170.1793206 -86.9753426 175.30235869 -113.43969727 167.31030273 C-125.21026397 163.47541953 -133.76453836 157.54642395 -142.55078125 148.93359375 C-143.25203125 148.2684375 -143.95328125 147.60328125 -144.67578125 146.91796875 C-157.68221484 133.60669687 -162.81021524 114.64731795 -162.79956055 96.47680664 C-162.3204591 66.03146105 -147.8980997 38.95281411 -126.55078125 17.93359375 C-118.6137592 10.41470504 -110.11739499 4.26599028 -100.55078125 -1.06640625 C-99.45121094 -1.68386719 -98.35164063 -2.30132813 -97.21875 -2.9375 C-68.07006108 -18.42794611 -26.92444421 -21.81168604 0 0 Z M-97.55078125 41.93359375 C-98.54078125 42.65546875 -99.53078125 43.37734375 -100.55078125 44.12109375 C-111.21182744 53.21259703 -119.33731025 68.0688439 -120.77026367 82.07958984 C-121.42617984 94.39211268 -120.39651713 105.14694369 -112.3046875 115.0234375 C-104.01379424 124.0529404 -95.42825692 129.4279763 -82.984375 130.13671875 C-65.17838926 130.34558662 -51.31378359 125.48567202 -37.55078125 113.93359375 C-36.56078125 113.21171875 -35.57078125 112.48984375 -34.55078125 111.74609375 C-23.88973506 102.65459047 -15.76425225 87.7983436 -14.33129883 73.78759766 C-13.67538266 61.47507482 -14.70504537 50.72024381 -22.796875 40.84375 C-31.08776826 31.8142471 -39.67330558 26.4392112 -52.1171875 25.73046875 C-69.92317324 25.52160088 -83.78777891 30.38151548 -97.55078125 41.93359375 Z " fill="#352B85" transform="translate(474.55078125,637.06640625)"/>
<path d="M0 0 C4.03543097 3.79624889 7.38237359 7.89587038 10.5703125 12.41796875 C11.11429688 13.18625 11.65828125 13.95453125 12.21875 14.74609375 C23.74840744 32.42100008 25.20332704 55.10067803 20.9453125 75.35546875 C16.31465611 95.56652859 6.62758266 113.29870774 -7.4296875 128.41796875 C-8.20828125 129.27777344 -8.986875 130.13757813 -9.7890625 131.0234375 C-30.68080886 153.07194163 -58.47210721 165.84356576 -88.71875 167.546875 C-111.03809126 168.1067247 -130.72414398 161.394494 -147 145.984375 C-160.92823328 131.65149886 -167.39766137 113.44725188 -167.46875 93.59130859 C-167.13003449 74.74602443 -161.58197196 57.75938629 -152.4296875 41.41796875 C-151.61371094 39.95617187 -151.61371094 39.95617187 -150.78125 38.46484375 C-135.07134526 12.25612462 -107.59785719 -8.14365988 -78.0390625 -15.83984375 C-50.32914682 -21.53777014 -22.18881799 -18.86997769 0 0 Z M-108.4296875 44.41796875 C-109.10644531 45.07410156 -109.78320312 45.73023438 -110.48046875 46.40625 C-120.61657993 56.90195715 -125.40449883 71.66603808 -125.8671875 85.98046875 C-125.59776565 97.44846853 -121.38458024 106.92648128 -113.65234375 115.35546875 C-103.95896852 124.55327265 -92.74751872 126.93193985 -79.76953125 126.6953125 C-61.52570688 125.87696644 -46.39796449 116.1006304 -34.1796875 103.10546875 C-23.62664833 90.62779744 -17.96143656 75.82548182 -18.4296875 59.41796875 C-19.93939756 48.3556685 -24.78872244 37.49699631 -33.8046875 30.6015625 C-59.208275 13.3170193 -88.68858642 24.19901953 -108.4296875 44.41796875 Z " fill="#1473B8" transform="translate(1296.4296875,640.58203125)"/>
<path d="M0 0 C1.49853516 -0.00290039 1.49853516 -0.00290039 3.02734375 -0.00585938 C4.63609375 0.0009082 4.63609375 0.0009082 6.27734375 0.0078125 C7.35886719 0.00974609 8.44039062 0.01167969 9.5546875 0.01367188 C18.14137107 0.0595627 26.65741886 0.42808339 35.21484375 1.1328125 C34.57688159 6.82372498 33.6260005 12.3455099 32.40234375 17.9375 C32.22856201 18.74269073 32.05478027 19.54788147 31.87573242 20.37747192 C31.51096523 22.06353743 31.14448864 23.74923397 30.77636719 25.43457031 C30.21207829 28.02048551 29.65450299 30.60778566 29.09765625 33.1953125 C28.74128095 34.83862749 28.38452385 36.48185975 28.02734375 38.125 C27.86065186 38.89891083 27.69395996 39.67282166 27.5222168 40.47018433 C26.33015625 45.9021875 26.33015625 45.9021875 25.21484375 48.1328125 C42.37484375 48.1328125 59.53484375 48.1328125 77.21484375 48.1328125 C76.4419379 53.54315346 75.39922916 57.97342403 73.52734375 63 C73.26477783 63.72019318 73.00221191 64.44038635 72.73168945 65.18240356 C72.18014355 66.69114387 71.62532741 68.19869237 71.06738281 69.70507812 C70.21054106 72.0194342 69.36424627 74.33744366 68.51953125 76.65625 C67.98107535 78.12522249 67.44203392 79.59398052 66.90234375 81.0625 C66.64815674 81.75721405 66.39396973 82.4519281 66.13208008 83.16769409 C64.33143803 88.01621822 64.33143803 88.01621822 63.21484375 89.1328125 C61.74130027 89.22585268 60.26333784 89.25027515 58.78686523 89.24633789 C57.84596542 89.24626236 56.90506561 89.24618683 55.93565369 89.24610901 C54.91274734 89.24094772 53.889841 89.23578644 52.8359375 89.23046875 C51.79413834 89.2290538 50.75233917 89.22763885 49.67897034 89.22618103 C46.33673281 89.2205633 42.99456118 89.2080078 39.65234375 89.1953125 C37.39257909 89.19029978 35.13281338 89.18573648 32.87304688 89.18164062 C27.32028984 89.17058811 21.7675715 89.15383274 16.21484375 89.1328125 C16.0969751 90.39778564 15.97910645 91.66275879 15.85766602 92.96606445 C15.25824103 98.33927311 14.12924467 103.53418368 12.9296875 108.80078125 C12.47662241 110.84947874 12.02416771 112.89831129 11.57226562 114.94726562 C10.86548192 118.12987178 10.15439237 121.31129203 9.43237305 124.49047852 C3.53616263 149.80582502 3.53616263 149.80582502 10.9453125 174.11328125 C17.0978704 183.21317227 24.52896633 188.5957567 35.21484375 191.1328125 C39.20284436 191.89862421 43.1981719 192.53952929 47.21484375 193.1328125 C47.28332163 202.25083197 47.08343506 211.33512988 46.71484375 220.4453125 C46.66714844 221.67443359 46.61945313 222.90355469 46.5703125 224.16992188 C46.45405859 227.15764738 46.33553982 230.14526373 46.21484375 233.1328125 C22.77277861 233.92714808 3.29785845 231.01875165 -15.03515625 214.85546875 C-28.44718779 201.57679548 -36.8514297 184.36915256 -37.43832397 165.42037964 C-37.50228884 146.89833999 -33.77744821 129.59707986 -29.74005127 111.60806274 C-28.75570907 107.19427067 -27.80323425 102.7736071 -26.84765625 98.35351562 C-25.28453624 91.13947581 -23.70430221 83.92939811 -22.11230469 76.72167969 C-19.88543002 66.63173981 -17.72131365 56.52904776 -15.57421875 46.421875 C-14.92694934 43.38029563 -14.27917732 40.33882337 -13.63134766 37.29736328 C-13.47658903 36.57075689 -13.32183041 35.84415051 -13.16238213 35.09552574 C-12.70346309 32.94125466 -12.24435971 30.78702297 -11.78515625 28.6328125 C-11.558922 27.57128086 -11.558922 27.57128086 -11.32811737 26.48830414 C-10.34063506 21.85808199 -9.34585387 17.22948642 -8.34765625 12.6015625 C-8.10052887 11.44210114 -7.85340149 10.28263977 -7.5987854 9.08804321 C-7.37282684 8.0451413 -7.14686829 7.00223938 -6.9140625 5.92773438 C-6.7188501 5.01954956 -6.5236377 4.11136475 -6.32250977 3.17565918 C-5.32234389 -0.62665249 -3.63285196 0.00456102 0 0 Z " fill="#362C86" transform="translate(39.78515625,572.8671875)"/>
<path d="M0 0 C13.04090011 3.43298909 23.48992238 21.22118808 31.28515625 31.6015625 C31.76742676 32.24335449 32.24969727 32.88514648 32.74658203 33.54638672 C59.80128793 69.90198458 76.08857717 111.69505726 83.09765625 156.2890625 C83.20315796 156.95865997 83.30865967 157.62825745 83.4173584 158.31814575 C92.17899567 214.68323302 80.99342556 273.36919198 54.28515625 323.6015625 C53.91165039 324.31521973 53.53814453 325.02887695 53.15332031 325.76416016 C46.32280362 338.76261636 38.4788265 350.90183418 29.2890625 362.3671875 C23.46692464 369.73363572 19.73753086 376.4196882 17.20947266 385.52514648 C15.69836648 390.93903332 14.04421342 394.98864633 8.953125 397.96484375 C2.36169113 400.48723498 -2.44180816 401.73019546 -9.33984375 399.3515625 C-15.23272015 396.29599696 -19.0133259 393.0873823 -21.40234375 386.7890625 C-22.42920431 379.60103855 -21.87055533 374.61116937 -17.71484375 368.6015625 C-13.90391219 363.77801199 -10.4852525 362.42462678 -4.46484375 361.5390625 C4.41925179 359.79688321 8.35406359 353.56162458 13.28515625 346.6015625 C14.03152344 345.59738281 14.77789063 344.59320313 15.546875 343.55859375 C45.84766868 301.50740252 63.4927876 250.47727844 63.53515625 198.5390625 C63.53583099 197.79134583 63.53650574 197.04362915 63.53720093 196.27325439 C63.51765694 182.54168491 62.55533116 169.16119443 60.28515625 155.6015625 C60.12950195 154.64233887 59.97384766 153.68311523 59.81347656 152.69482422 C51.82037832 105.1590234 29.73719552 62.50853896 -2.56640625 27.03125 C-12.32522932 15.99490827 -12.32522932 15.99490827 -13.15234375 10.9140625 C-12.61652864 6.8571767 -11.39941373 4.91199643 -8.6171875 1.97265625 C-5.73343525 -0.10577709 -3.49340578 -0.31493141 0 0 Z " fill="#3A3088" transform="translate(845.71484375,80.3984375)"/>
<path d="M0 0 C4.71237559 2.68052134 7.95035893 6.16357679 9.6875 11.375 C10.39452847 18.19277454 10.48874009 24.04099798 6.2890625 29.6953125 C1.90834929 34.28971904 -2.35403397 36.25700327 -8.5625 37.25 C-17.16812732 39.3686745 -21.52396846 47.49570117 -26.3125 54.375 C-26.96001221 55.28137207 -26.96001221 55.28137207 -27.62060547 56.20605469 C-56.8201547 97.18347754 -72.68366609 145.13565397 -74.3125 195.375 C-74.33441406 196.04708496 -74.35632813 196.71916992 -74.37890625 197.41162109 C-76.15338358 261.01184623 -52.4955558 324.88783598 -8.875 371.375 C-8.37871094 371.89102783 -7.88242187 372.40705566 -7.37109375 372.9387207 C1.26064383 381.98759997 1.26064383 381.98759997 1.25 387.9375 C1.06622702 391.3373002 0.64820388 392.43711322 -1.25 395.4375 C-4.77437207 397.66720478 -6.85879325 397.9341168 -10.93359375 397.94140625 C-23.45025252 394.9612494 -33.98893976 378.23110116 -41.3125 368.375 C-41.78268555 367.74916016 -42.25287109 367.12332031 -42.73730469 366.47851562 C-85.82928954 308.76968284 -103.98171352 235.94386244 -94.79077148 164.54296875 C-90.72117303 136.52440002 -82.73221662 109.80634719 -70.3125 84.375 C-69.94463379 83.60945801 -69.57676758 82.84391602 -69.19775391 82.05517578 C-60.46129133 64.03550483 -49.2757042 47.26658817 -36.70922852 31.69848633 C-31.88780034 25.68880336 -29.57050629 20.72855748 -27.875 13.25 C-26.61417404 7.90328883 -25.43837925 5.03202933 -21.3125 1.375 C-14.6231048 -2.55993835 -7.12076615 -3.21106247 0 0 Z " fill="#393088" transform="translate(486.3125,73.625)"/>
<path d="M0 0 C1.6874269 0.00015917 3.37485866 0.00585622 5.06225586 0.01586914 C6.39189613 0.01799156 6.39189613 0.01799156 7.74839783 0.02015686 C10.59133215 0.02577324 13.43418892 0.03832848 16.27709961 0.05102539 C18.19962452 0.05603828 20.12215065 0.06060155 22.04467773 0.06469727 C26.7680151 0.07574798 31.49129419 0.09302356 36.21459961 0.11352539 C35.55699018 7.17985322 34.30673522 13.98473326 32.81640625 20.91943359 C32.57174496 22.07482006 32.32708366 23.23020653 32.07500839 24.42060471 C31.40333257 27.58818181 30.72778768 30.75490343 30.05049348 33.92128301 C29.32755233 37.30561817 28.60960755 40.6910134 27.89103699 44.07627869 C26.50388359 50.60743 25.11210364 57.13758675 23.71868151 63.66740316 C22.11772281 71.17070288 20.52167371 78.67504435 18.92573714 86.17941356 C9.07361435 132.50179613 -0.83004501 178.81322178 -10.78540039 225.11352539 C-24.31540039 225.11352539 -37.84540039 225.11352539 -51.78540039 225.11352539 C-50.43036353 216.9833042 -48.97977102 208.95321708 -47.2578125 200.90356445 C-46.88822182 199.16032158 -46.88822182 199.16032158 -46.51116467 197.38186169 C-45.83834893 194.21091965 -45.16322241 191.04048056 -44.48705721 187.87025142 C-43.76449137 184.47959086 -43.04501385 181.08827492 -42.32516479 177.69703674 C-40.93865594 171.16745034 -39.54943843 164.63844335 -38.15916777 158.10965699 C-36.56263694 150.61192242 -34.96844042 143.11369221 -33.37447059 135.61541283 C-32.57689259 131.86349396 -31.7792387 128.11159122 -30.98155212 124.35969543 C-30.82405654 123.61891571 -30.66656096 122.87813599 -30.50429279 122.1149084 C-29.39307568 116.88861201 -28.28125061 111.66244517 -27.16920471 106.43632507 C-23.70675934 90.16329155 -20.25300367 73.88847478 -16.81586266 57.61007309 C-15.62066535 51.95080595 -14.42361994 46.29192938 -13.22667408 40.63303185 C-12.3254367 36.37118152 -11.42553416 32.10905778 -10.52853394 27.84631348 C-9.71013177 23.95717267 -8.8884198 20.06874741 -8.06393814 16.18089104 C-7.7703511 14.79330354 -7.4780739 13.40543814 -7.18722153 12.01727486 C-6.79994364 10.1694885 -6.4077059 8.32274366 -6.01513672 6.47607422 C-5.69214348 4.94482658 -5.69214348 4.94482658 -5.36262512 3.38264465 C-4.40395392 -0.38597295 -4.20758407 0.12618682 0 0 Z " fill="#1573B8" transform="translate(1109.785400390625,582.886474609375)"/>
<path d="M0 0 C5.6865174 3.07473752 8.20628628 7.38851257 10.875 13.125 C11.21402344 14.26582031 11.55304687 15.40664063 11.90234375 16.58203125 C14.13172245 21.78321051 19.15660257 23.58061463 24 25.9375 C25.0204541 26.44885498 26.0409082 26.96020996 27.09228516 27.48706055 C53.07264502 40.25951691 80.2186818 48.95196107 108.875 53.125 C110.06875244 53.30071533 110.06875244 53.30071533 111.28662109 53.47998047 C143.23353575 57.94710566 175.76906931 55.25037771 206.875 47.125 C207.61476074 46.93711914 208.35452148 46.74923828 209.11669922 46.55566406 C232.45626783 40.55084957 254.68505764 29.89020833 275.28515625 17.515625 C275.91744141 17.13736572 276.54972656 16.75910645 277.20117188 16.36938477 C278.78356834 15.40619659 280.34796045 14.41358631 281.91015625 13.41796875 C285.89770382 11.67899873 288.54016069 11.77821286 292.875 12.125 C295.96751553 13.94017216 297.46188714 15.41144142 299.25 18.5 C300.10061464 22.07258147 300.17909531 23.62453365 298.875 27.125 C291.9528854 35.83037404 280.49813407 40.99493277 270.875 46.125 C269.95686523 46.61548828 269.03873047 47.10597656 268.09277344 47.61132812 C243.28556906 60.64807068 216.51560805 69.55982257 188.875 74.125 C188.01503418 74.28436035 187.15506836 74.4437207 186.26904297 74.60791016 C157.62012377 79.86156465 124.40614912 79.84672385 95.875 74.125 C94.94365234 73.94807617 94.01230469 73.77115234 93.05273438 73.58886719 C63.7948616 67.96832693 35.72845244 58.17582944 9.796875 43.3671875 C2.63575841 39.40368179 -3.41173269 38.23988664 -11.4609375 37.64453125 C-18.02032463 36.7144689 -21.85551817 33.98665034 -25.86328125 28.9375 C-29.30772197 23.98944893 -29.48355941 19.46360283 -28.72265625 13.65625 C-27.57369458 8.79005938 -25.36448015 4.81934353 -21.34375 1.77734375 C-14.1349714 -2.4837775 -7.66302151 -3.28250092 0 0 Z " fill="#1875B9" transform="translate(519.125,470.875)"/>
<path d="M0 0 C0.81430481 -0.00067474 1.62860962 -0.00134949 2.46759033 -0.00204468 C45.69709587 0.05451492 93.24640484 9.89642175 130.68139648 32.61157227 C135.98631299 35.82284856 139.83304981 36.89301218 146 36.8125 C157.65980036 37.11426517 157.65980036 37.11426517 162.4375 41.25 C167.59391213 46.98079728 168.75498963 51.89958007 168.64453125 59.53125 C168.23138487 64.95671948 165.95921232 67.95984959 162.0625 71.5 C157.13591469 75.42074081 153.06223844 76.73618447 146.7734375 76.55859375 C140.36503587 75.71199889 135.75442208 72.29850132 131.80688477 67.32202148 C130.40226956 65.19669268 129.75183983 63.32957772 128.96875 60.91796875 C126.23210338 54.64787357 121.12340072 52.58584708 115.1875 49.75 C114.07431396 49.19812012 112.96112793 48.64624023 111.81420898 48.07763672 C81.5832747 33.40068563 47.214393 23.15574909 13.4375 22.25 C12.25244873 22.21132813 12.25244873 22.21132813 11.04345703 22.171875 C-38.24737465 20.74341402 -89.90515724 32.24869494 -131.33789062 59.86279297 C-135.81867468 62.65689031 -140.41774766 63.04427755 -145.5625 62.25 C-148.94132179 59.8566679 -150.23323608 58.21721278 -151.5625 54.3125 C-151.5625 49.89345106 -150.3198305 47.06455483 -147.22045898 43.86425781 C-142.14063799 39.38229088 -136.58379886 36.18389172 -130.625 33 C-129.57521973 32.43716309 -128.52543945 31.87432617 -127.44384766 31.29443359 C-96.53578028 15.02727218 -63.20686199 5.23535998 -28.5625 1.25 C-27.7573999 1.15428711 -26.9522998 1.05857422 -26.12280273 0.95996094 C-17.43352976 0.04087946 -8.72796423 0.00653142 0 0 Z " fill="#1975B9" transform="translate(658.5625,3.75)"/>
<path d="M0 0 C9.57 0 19.14 0 29 0 C26.75 6.75 26.75 6.75 25.2734375 9.8671875 C24.99419434 10.46128418 24.71495117 11.05538086 24.42724609 11.66748047 C24.08000488 12.39596191 23.73276367 13.12444336 23.375 13.875 C22.26125 16.22625 21.1475 18.5775 20 21 C10.76 21 1.52 21 -8 21 C-7.29646184 17.48230922 -6.77035071 15.14096614 -5.37109375 12.01171875 C-5.08935303 11.37451904 -4.8076123 10.73731934 -4.51733398 10.08081055 C-3.98281616 8.89612183 -3.98281616 8.89612183 -3.4375 7.6875 C-2.303125 5.150625 -1.16875 2.61375 0 0 Z " fill="#E4131F" transform="translate(504,201)"/>
<path d="M0 0 C3.63 0 7.26 0 11 0 C10.67 2.31 10.34 4.62 10 7 C16.93 7.33 23.86 7.66 31 8 C30.52614856 14.09237561 30.00539275 19.9676435 29 26 C21.41 26 13.82 26 6 26 C6.875 12.375 6.875 12.375 8 9 C5.03 9 2.06 9 -1 9 C-0.67 6.03 -0.34 3.06 0 0 Z " fill="#0DA4E4" transform="translate(521,171)"/>
<path d="M0 0 C3.63 0 7.26 0 11 0 C10.67 2.31 10.34 4.62 10 7 C11.32 7.33 12.64 7.66 14 8 C12.35 8 10.7 8 9 8 C8.67 8.99 8.34 9.98 8 11 C8 10.34 8 9.68 8 9 C5.03 9 2.06 9 -1 9 C-0.67 6.03 -0.34 3.06 0 0 Z " fill="#33B2E8" transform="translate(521,171)"/>
<path d="M0 0 C0.495 0.99 0.495 0.99 1 2 C-0.29546249 2.00213753 -0.29546249 2.00213753 -1.61709595 2.00431824 C-9.7682401 2.0221702 -17.91884275 2.06384853 -26.06972694 2.13209057 C-30.25993591 2.16633744 -34.44978119 2.19146689 -38.64013672 2.19555664 C-42.68644857 2.19984465 -46.73194034 2.2283478 -50.77799606 2.27343178 C-52.31925042 2.28639093 -53.86060299 2.29072003 -55.40190506 2.28615379 C-57.56651886 2.28123588 -59.72874657 2.30738539 -61.89306641 2.34057617 C-63.12328522 2.34723801 -64.35350403 2.35389984 -65.6210022 2.36076355 C-70.06513381 3.20150127 -71.77478151 4.89722574 -75 8 C-73.92598892 5.08482708 -73.22189824 3.22189824 -71 1 C-68.0640564 0.7215271 -68.0640564 0.7215271 -64.25537109 0.68115234 C-63.21617775 0.66608391 -63.21617775 0.66608391 -62.1559906 0.65071106 C-59.86181482 0.61977447 -57.56775627 0.60281524 -55.2734375 0.5859375 C-53.68444808 0.56723423 -52.09546867 0.54766146 -50.50650024 0.5272522 C-46.32098282 0.47583591 -42.13543317 0.43626123 -37.94976807 0.39910889 C-33.67997197 0.35912857 -29.41031105 0.30800907 -25.140625 0.2578125 C-16.76050887 0.16094085 -8.38032607 0.07657228 0 0 Z " fill="#645BA0" transform="translate(261,694)"/>
<path d="M0 0 C0.66 0.33 1.32 0.66 2 1 C-4.27 7.27 -10.54 13.54 -17 20 C-17.66 19.67 -18.32 19.34 -19 19 C-12.98348207 12.26459665 -7.02537494 5.71692402 0 0 Z " fill="#736CAA" transform="translate(356,648)"/>
<path d="M0 0 C0.66 0.33 1.32 0.66 2 1 C-3.94 6.94 -9.88 12.88 -16 19 C-16.66 18.67 -17.32 18.34 -18 18 C-12.31481712 11.5575694 -6.66474693 5.45466718 0 0 Z " fill="#7973AE" transform="translate(562,648)"/>
<path d="M0 0 C0.66 0.33 1.32 0.66 2 1 C-3.61 6.61 -9.22 12.22 -15 18 C-15.66 17.67 -16.32 17.34 -17 17 C-11.6749489 10.87372593 -6.27309565 5.16205691 0 0 Z " fill="#5E9FCE" transform="translate(1172,649)"/>
<path d="M0 0 C1.38294718 0.01329757 2.76582404 0.03715018 4.1484375 0.0703125 C4.85484375 0.07933594 5.56125 0.08835937 6.2890625 0.09765625 C8.03399848 0.12123647 9.77876045 0.15710789 11.5234375 0.1953125 C11.5234375 0.5253125 11.5234375 0.8553125 11.5234375 1.1953125 C10.22019531 1.21658203 10.22019531 1.21658203 8.890625 1.23828125 C1.24989084 1.3250534 1.24989084 1.3250534 -5.2890625 4.7578125 C-6.0109375 5.5621875 -6.7328125 6.3665625 -7.4765625 7.1953125 C-4.92764946 0.27683424 -4.92764946 0.27683424 0 0 Z " fill="#8984B8" transform="translate(193.4765625,694.8046875)"/>
<path d="M0 0 C0.66 0.33 1.32 0.66 2 1 C-0.64 3.64 -3.28 6.28 -6 9 C-6.33 8.34 -6.66 7.68 -7 7 C-4.78071806 4.09197539 -3.07030857 2.04687238 0 0 Z " fill="#6AA6D2" transform="translate(500,471)"/>
<path d="M0 0 C0.99 0.33 1.98 0.66 3 1 C-0.465 3.97 -0.465 3.97 -4 7 C-3.04065919 3.16263678 -2.76390737 2.40339772 0 0 Z " fill="#6D66A7" transform="translate(465,75)"/>
</svg>
