<?xml version="1.0" encoding="UTF-8"?>
<svg id="katman_1" data-name="katman 1" xmlns="http://www.w3.org/2000/svg" viewBox="0 0 530.52 152.54">
  <defs>
    <style>
      .cls-1 {
        fill: #312783;
      }

      .cls-1, .cls-2, .cls-3, .cls-4, .cls-5 {
        stroke-width: 0px;
      }

      .cls-2 {
        fill: #ffed00;
      }

      .cls-3 {
        fill: #e30613;
      }

      .cls-4 {
        fill: #009fe3;
      }

      .cls-5 {
        fill: #1d71b8;
      }
    </style>
  </defs>
  <g>
    <path class="cls-1" d="M170.27,48c3.71.02,7.42.04,11.12.06-.97,4.44-1.94,8.88-2.91,13.32h14.77c-1.33,3.73-2.66,7.45-3.99,11.18-4.38-.03-8.76-.07-13.14-.1l-3.14,14.77c-.87,4.09-.17,7.57,2.1,10.45,2.27,2.88,5.44,4.32,9.53,4.32-.06,3.66-.12,7.32-.18,10.98-1.97.21-8.26.65-13.89-2.98-2.79-1.8-4.62-4.07-4.95-4.5-3.98-5.05-5.2-11.14-3.68-18.28,2.79-13.08,5.57-26.16,8.36-39.23Z"/>
    <path class="cls-1" d="M241.09,69.33c-3.97-5.05-9.53-7.57-16.67-7.57s-13.77,2.52-19.89,7.57c-6.12,5.05-9.94,11.14-11.46,18.28-1.52,7.14-.29,13.23,3.68,18.28,3.97,5.05,9.53,7.57,16.67,7.57s13.77-2.52,19.89-7.57c2.41-1.99,4.46-4.14,6.15-6.46h-14.19c-2.97,1.96-6.13,2.95-9.5,2.95s-7.02-1.26-9.32-4c-1.96-2.35-2.79-5.52-2.64-8.57.31-6.43,4.71-11.96,10.23-14.93,1.45-.78,3.02-1.36,4.64-1.7,1.1-.23,2.22-.34,3.36-.34,4.09,0,7.26,1.44,9.53,4.32,1.16,1.48,1.91,3.12,2.24,4.91-11.91.05-19.56.08-19.56.08,0,0,0,0,0,0-.02.03-.11,0-.11,0-.07-.02-1.44.8-2.4,4.75-.35,1.43-.71,3.54-.63,6.21,10.64.01,21.27.02,31.91.04.75-1.77,1.32-3.62,1.73-5.54,1.52-7.14.29-13.23-3.69-18.28Z"/>
    <path class="cls-1" d="M295.02,113.46h-11.08l.97-4.58c-4.93,3.05-10.18,4.58-15.75,4.58-7.14,0-12.7-2.52-16.67-7.57-3.98-5.05-5.2-11.14-3.69-18.28,1.52-7.14,5.34-13.23,11.46-18.28,6.12-5.05,12.75-7.57,19.89-7.57s12.7,2.52,16.67,7.57c3.97,5.05,5.2,11.14,3.69,18.28l-5.5,25.85ZM282.9,98.06c3.49-2.88,5.67-6.36,6.54-10.45.87-4.09.17-7.57-2.1-10.45-2.27-2.88-5.45-4.32-9.53-4.32s-7.88,1.44-11.37,4.32c-3.49,2.88-5.67,6.37-6.54,10.45-.87,4.09-.17,7.57,2.1,10.45,2.27,2.88,5.44,4.32,9.53,4.32s7.88-1.44,11.37-4.32Z"/>
    <path class="cls-1" d="M317.77,87.61l-5.5,25.85h-11.08l5.49-25.85c1.52-7.14,5.34-13.23,11.46-18.28,6.12-5.05,12.75-7.57,19.89-7.57s12.7,2.52,16.67,7.57c.58.74,1.1,1.49,1.55,2.25.78-.76,1.61-1.52,2.51-2.25,6.12-5.05,12.75-7.57,19.89-7.57s12.7,2.52,16.67,7.57c3.97,5.05,5.2,11.14,3.68,18.28l-5.49,25.85h-11.08l5.5-25.85c.87-4.09.17-7.57-2.1-10.45-2.27-2.88-5.45-4.32-9.53-4.32s-7.88,1.44-11.37,4.32c-3.49,2.88-5.67,6.37-6.54,10.45l-5.5,25.85h-11.08l5.5-25.85c.87-4.09.17-7.57-2.1-10.45-2.27-2.88-5.45-4.32-9.53-4.32s-7.88,1.44-11.37,4.32c-3.49,2.88-5.67,6.37-6.54,10.45Z"/>
    <path class="cls-5" d="M407.32,87.61c1.52-7.14,5.34-13.23,11.46-18.28,6.12-5.05,12.75-7.57,19.89-7.57s12.7,2.52,16.67,7.57c3.97,5.05,5.2,11.14,3.69,18.28-1.52,7.14-5.34,13.23-11.46,18.28-6.12,5.05-12.75,7.57-19.89,7.57-5.56,0-10.16-1.53-13.8-4.58l-3.33,15.66h-11.08l7.85-36.93ZM430.04,102.38c4.09,0,7.88-1.44,11.37-4.32,3.49-2.88,5.67-6.36,6.54-10.45.87-4.09.17-7.57-2.1-10.45-2.27-2.88-5.45-4.32-9.53-4.32s-7.88,1.44-11.37,4.32c-3.49,2.88-5.67,6.37-6.54,10.45-.87,4.09-.17,7.57,2.1,10.45,2.27,2.88,5.44,4.32,9.53,4.32Z"/>
    <path class="cls-5" d="M482,50.68l-13.34,62.78h-11.08l13.34-62.78h11.08Z"/>
    <path class="cls-5" d="M526.21,69.33c3.97,5.05,5.2,11.14,3.68,18.28-1.52,7.14-5.34,13.23-11.46,18.28-6.12,5.05-12.75,7.57-19.89,7.57s-12.7-2.52-16.67-7.57c-3.98-5.05-5.2-11.14-3.68-18.28,1.52-7.14,5.34-13.23,11.46-18.28,6.12-5.05,12.75-7.57,19.89-7.57s12.7,2.52,16.67,7.57ZM507.19,72.84c-4.09,0-7.88,1.44-11.37,4.32-3.49,2.88-5.67,6.37-6.54,10.45-.87,4.09-.17,7.57,2.1,10.45,2.27,2.88,5.44,4.32,9.53,4.32s7.88-1.44,11.37-4.32c3.49-2.88,5.67-6.36,6.54-10.45.87-4.09.17-7.57-2.1-10.45-2.27-2.88-5.45-4.32-9.53-4.32Z"/>
  </g>
  <g>
    <path class="cls-2" d="M32.27,55.21c2.55.02,5.11.04,7.66.07-.92,1.9-1.83,3.81-2.75,5.71-2.51,0-5.02,0-7.53,0,.87-1.92,1.74-3.85,2.62-5.77Z"/>
    <path class="cls-2" d="M38.43,53.91c.22-1.63.44-3.26.66-4.88-.85,0-1.7,0-2.55,0,.11-.72.2-1.45.31-2.18.89.02,1.78.03,2.67.04-.1.69-.2,1.39-.3,2.08,2.03.04,4.05.08,6.08.12-.26,1.63-.51,3.26-.76,4.88-2.03-.03-4.07-.04-6.1-.07Z"/>
    <path class="cls-3" d="M39.93,55.28c-.92,1.9-1.83,3.81-2.75,5.71-2.51,0-5.02,0-7.53,0,.87-1.92,1.74-3.85,2.62-5.77,2.55.02,5.11.04,7.66.07Z"/>
    <path class="cls-1" d="M66.85,100.38c-.43-.39-1.78-1.76-2.06-3.83-.18-1.47.58-3.41.58-3.41,0,0,3.25-5.93,9.53-17.4h53.67l-5.28-9.13h-43.39c4.08-7.45,8.99-16.4,14.71-26.84h-24.66c-5.16,8.94-10.33,17.88-15.49,26.84h-4.87c-.47,0-.94.02-1.41.02,1.23-2.73,2.46-5.47,3.69-8.2-3.93.02-7.87.04-11.8.06-1.58,3.41-3.18,6.82-4.76,10.23h9.8l-.91,1.33-4.05,5.69h9.05c-2.48,4.3-4.97,8.6-7.46,12.91-4.37,7.56-1.74,16.47,4.56,20.96,2.36,1.68,5.22,2.75,8.44,2.91.25.02.52.02.79.02h42.67c1.82-3.76,3.66-7.53,5.47-11.3-11.75.06-23.51.11-35.26.16-.61-.27-1.09-.59-1.56-1.01Z"/>
    <path class="cls-4" d="M45.29,49.1c-.26,1.63-.51,3.26-.76,4.88-2.03-.03-4.07-.04-6.1-.07.22-1.63.44-3.26.66-4.88-.85,0-1.7,0-2.55,0,.11-.72.2-1.45.31-2.18.89.02,1.78.03,2.67.04-.1.69-.2,1.39-.3,2.08,2.03.04,4.05.08,6.08.12Z"/>
  </g>
  <path class="cls-1" d="M22.77,30.18c1.63-.48,2.81-.68,3.85-1.16,1.52-.71,2.5-2.04,2.81-3.53.04-.15.06-.3.08-.45,0-.07.02-.15.02-.22.02-.18.06-.36.06-.55,0-2.86-2.32-5.18-5.18-5.18-.1,0-.19.02-.29.03-.04,0-.08,0-.12,0-.21,0-.4.05-.6.08-.01,0-.03,0-.04,0-2.26.36-3.97,2.07-4.18,4.58-.11,1.36-.48,2.4-1.35,3.47C3.43,44.79-2.23,64.82.79,87.3c1.82,13.58,7.28,25.62,15.62,36.4,1.65,2.13,3.45,4.16,5.39,6.03.73.71,2.09,1.26,3.06,1.13,2.2-.29,2.96-2.76,1.47-4.64-1.38-1.74-3.1-3.22-4.49-4.96-13.07-16.33-18.23-34.86-15.3-55.61,1.91-13.5,7.62-25.24,16.23-35.48Z"/>
  <path class="cls-5" d="M117.11,10.34c-.06,0-.11.01-.16.02-.84-.07-1.77,0-2.8.19C98.58,1.67,82.14-1.69,64.57.79c-10.58,1.49-20.4,5.1-29.47,10.73-.3.18-.59.39-.85.63-1.27,1.14-1.58,2.52-.86,3.75.69,1.18,2.17,1.65,3.72,1.02.86-.35,1.63-.92,2.44-1.4,9.32-5.55,19.44-8.69,30.19-9.59,6.9-.58,13.82-.18,20.62,1.37,7.35,1.67,14.32,4.27,20.65,8.13.47,1.3,1.02,2.33,1.62,3.15.12.19.26.35.41.52.05.05.09.11.13.16.98,1.08,2.38,1.77,3.95,1.77,2.96,0,5.35-2.4,5.35-5.35s-2.4-5.35-5.35-5.35Z"/>
  <path class="cls-1" d="M150.47,62.88c-2.64-14.83-9.2-27.7-19.39-38.75-.64-.69-1.28-1.39-2.03-1.94-1.34-.98-2.79-.82-3.8.28-1.07,1.17-1.12,2.39.02,3.79,1.26,1.54,2.65,2.98,3.94,4.5,10.75,12.62,16.07,27.35,16.78,43.79.31,7.19-.79,14.27-2.77,21.17-2.9,10.05-7.72,19.08-14.67,26.88-.61.11-1.17.2-1.7.3-2.77.21-4.95,2.49-4.95,5.31s2.4,5.35,5.35,5.35c.86,0,1.65-.22,2.37-.58,1.39-.6,2.45-1.76,2.76-3.34.06-.21.11-.43.14-.65.32-2.31,1.52-3.88,2.84-5.57,10.15-12.95,15.42-27.74,16.37-44.1.32-5.52-.29-11-1.26-16.44Z"/>
  <path class="cls-5" d="M119.45,135.68c-.76-1.03-1.74-1.64-3.02-1.11-.97.4-1.86.99-2.78,1.49-2.79,1.5-5.5,3.15-8.37,4.46-12.25,5.57-25.05,7.41-38.42,5.64-9.81-1.29-18.85-4.54-27.52-9.68-.17-.66-.23-1.13-.4-1.56-.1-.26-.22-.48-.34-.71-.73-2.09-2.7-3.6-5.04-3.6-2.96,0-5.35,2.4-5.35,5.35s2.4,5.35,5.35,5.35c.13,0,.26-.03.39-.04.12,0,.24.02.37.02,1.23-.03,2.24.18,3.32.79,15.14,8.71,31.35,12.04,48.71,9.76,11.24-1.47,21.56-5.34,31.08-11.41.68-.44,1.33-.97,1.89-1.56.94-.99.93-2.11.13-3.2Z"/>
  <path class="cls-1" d="M506.53,116.21c-1.61-1.08-3.79-.64-4.87.97-.81,1.22-.76,2.76,0,3.91-.52.48-1.03.96-1.56,1.43-7.54,6.66-16.42,10.05-26.39,10.66-4.36.26-8.67-.32-12.88-1.45-6.13-1.65-11.67-4.47-16.47-8.61-.06-.27-.1-.52-.15-.76.16-1.28-.39-2.6-1.53-3.36-1.61-1.08-3.79-.64-4.87.97-1.05,1.58-.66,3.69.86,4.79.38.38.87.65,1.45.76.13.03.26.06.39.08,1.4.17,2.37.88,3.41,1.67,7.97,6.02,17,9.05,26.94,9.45,3.36.13,6.67-.3,9.96-.94,8.97-1.76,16.71-5.88,23.3-12.19.32-.31.65-.62.93-.97.95-.14,1.85-.66,2.42-1.52,1.08-1.61.64-3.79-.97-4.87Z"/>
</svg>