<?xml version="1.0" encoding="utf-8"?>
<!-- Generator: Adobe Illustrator 22.0.1, SVG Export Plug-In . SVG Version: 6.00 Build 0)  -->
<svg version="1.1" id="katman_1" xmlns="http://www.w3.org/2000/svg" xmlns:xlink="http://www.w3.org/1999/xlink" x="0px" y="0px"
	 viewBox="0 0 841.9 595.3" style="enable-background:new 0 0 841.9 595.3;" xml:space="preserve">
<style type="text/css">
	.st0{fill:#FFED00;}
	.st1{fill:#E30613;}
	.st2{fill:#F6F6F6;}
	.st3{fill:#009FE3;}
	.st4{fill:#1D71B8;}
</style>
<rect x="-6.4" y="-10.9" width="862.5" height="613.5"/>
<path class="st0" d="M377.4,235.6c2.6,0,5.1,0,7.7,0.1c-0.9,1.9-1.8,3.8-2.7,5.7c-2.5,0-5,0-7.5,0
	C375.6,239.5,376.5,237.5,377.4,235.6z"/>
<path class="st0" d="M383.5,234.3c0.2-1.6,0.4-3.3,0.7-4.9c-0.8,0-1.7,0-2.6,0c0.1-0.7,0.2-1.5,0.3-2.2c0.9,0,1.8,0,2.7,0
	c-0.1,0.7-0.2,1.4-0.3,2.1c2,0,4,0.1,6.1,0.1c-0.3,1.6-0.5,3.3-0.8,4.9C387.6,234.3,385.6,234.3,383.5,234.3z"/>
<path class="st1" d="M385,235.7c-0.9,1.9-1.8,3.8-2.7,5.7c-2.5,0-5,0-7.5,0c0.9-1.9,1.7-3.9,2.6-5.8
	C379.9,235.6,382.5,235.6,385,235.7z"/>
<path class="st2" d="M411.9,280.8c-0.4-0.4-1.8-1.8-2.1-3.8c-0.2-1.5,0.6-3.4,0.6-3.4s3.2-5.9,9.5-17.4h53.7l-5.3-9.1H425
	c4.1-7.4,9-16.4,14.7-26.8H415c-5.2,8.9-10.3,17.9-15.5,26.8h-4.9c-0.5,0-0.9,0-1.4,0c1.2-2.7,2.5-5.5,3.7-8.2
	c-3.9,0-7.9,0-11.8,0.1c-1.6,3.4-3.2,6.8-4.8,10.2h7.9h1.9c-0.3,0.4-0.6,0.9-0.9,1.3l-4,5.7h9c-2.5,4.3-5,8.6-7.5,12.9
	c-4.4,7.6-1.7,16.5,4.6,21c2.4,1.7,5.2,2.7,8.4,2.9c0.2,0,0.5,0,0.8,0h42.7c1.8-3.8,3.7-7.5,5.5-11.3c-11.8,0.1-23.5,0.1-35.3,0.2
	C412.9,281.5,412.4,281.2,411.9,280.8z"/>
<path class="st3" d="M390.4,229.5c-0.3,1.6-0.5,3.3-0.8,4.9c-2,0-4.1,0-6.1-0.1c0.2-1.6,0.4-3.3,0.7-4.9c-0.8,0-1.7,0-2.6,0
	c0.1-0.7,0.2-1.5,0.3-2.2c0.9,0,1.8,0,2.7,0c-0.1,0.7-0.2,1.4-0.3,2.1C386.3,229.4,388.4,229.5,390.4,229.5z"/>
<path class="st2" d="M245.4,340.2c3.7,0,7.4,0,11.1,0.1c-1,4.4-1.9,8.9-2.9,13.3h14.8c-1.3,3.7-2.7,7.5-4,11.2
	c-4.4,0-8.8-0.1-13.1-0.1l-3.1,14.8c-0.9,4.1-0.2,7.6,2.1,10.5c2.3,2.9,5.4,4.3,9.5,4.3c-0.1,3.7-0.1,7.3-0.2,11
	c-2,0.2-8.3,0.7-13.9-3c-2.8-1.8-4.6-4.1-5-4.5c-4-5-5.2-11.1-3.7-18.3C239.8,366.4,242.6,353.3,245.4,340.2z"/>
<path class="st2" d="M316.2,361.5c-4-5-9.5-7.6-16.7-7.6c-7.1,0-13.8,2.5-19.9,7.6c-6.1,5-9.9,11.1-11.5,18.3
	c-1.5,7.1-0.3,13.2,3.7,18.3c4,5,9.5,7.6,16.7,7.6c7.1,0,13.8-2.5,19.9-7.6c2.4-2,4.5-4.1,6.2-6.5h-14.2c-3,2-6.1,3-9.5,3
	c-3.5,0-7-1.3-9.3-4c-2-2.3-2.8-5.5-2.6-8.6c0.3-6.4,4.7-12,10.2-14.9c1.5-0.8,3-1.4,4.6-1.7c1.1-0.2,2.2-0.3,3.4-0.3
	c4.1,0,7.3,1.4,9.5,4.3c1.2,1.5,1.9,3.1,2.2,4.9c-11.9,0.1-19.6,0.1-19.6,0.1c0,0,0,0,0,0c0,0-0.1,0-0.1,0c-0.1,0-1.4,0.8-2.4,4.7
	c-0.3,1.4-0.7,3.5-0.6,6.2c10.6,0,21.3,0,31.9,0c0.7-1.8,1.3-3.6,1.7-5.5C321.4,372.7,320.2,366.6,316.2,361.5z"/>
<path class="st2" d="M370.1,405.7H359l1-4.6c-4.9,3.1-10.2,4.6-15.7,4.6c-7.1,0-12.7-2.5-16.7-7.6c-4-5-5.2-11.1-3.7-18.3
	c1.5-7.1,5.3-13.2,11.5-18.3c6.1-5,12.7-7.6,19.9-7.6c7.1,0,12.7,2.5,16.7,7.6c4,5,5.2,11.1,3.7,18.3L370.1,405.7z M358,390.3
	c3.5-2.9,5.7-6.4,6.5-10.5c0.9-4.1,0.2-7.6-2.1-10.5c-2.3-2.9-5.4-4.3-9.5-4.3c-4.1,0-7.9,1.4-11.4,4.3c-3.5,2.9-5.7,6.4-6.5,10.5
	c-0.9,4.1-0.2,7.6,2.1,10.5c2.3,2.9,5.4,4.3,9.5,4.3C350.7,394.6,354.5,393.2,358,390.3z"/>
<path class="st2" d="M392.9,379.8l-5.5,25.8h-11.1l5.5-25.8c1.5-7.1,5.3-13.2,11.5-18.3c6.1-5,12.7-7.6,19.9-7.6
	c7.1,0,12.7,2.5,16.7,7.6c0.6,0.7,1.1,1.5,1.6,2.3c0.8-0.8,1.6-1.5,2.5-2.3c6.1-5,12.7-7.6,19.9-7.6c7.1,0,12.7,2.5,16.7,7.6
	c4,5,5.2,11.1,3.7,18.3l-5.5,25.8h-11.1l5.5-25.8c0.9-4.1,0.2-7.6-2.1-10.5c-2.3-2.9-5.4-4.3-9.5-4.3c-4.1,0-7.9,1.4-11.4,4.3
	c-3.5,2.9-5.7,6.4-6.5,10.5l-5.5,25.8h-11.1l5.5-25.8c0.9-4.1,0.2-7.6-2.1-10.5c-2.3-2.9-5.4-4.3-9.5-4.3c-4.1,0-7.9,1.4-11.4,4.3
	C395.9,372.3,393.7,375.7,392.9,379.8z"/>
<path class="st4" d="M482.4,379.8c1.5-7.1,5.3-13.2,11.5-18.3c6.1-5,12.7-7.6,19.9-7.6c7.1,0,12.7,2.5,16.7,7.6
	c4,5,5.2,11.1,3.7,18.3c-1.5,7.1-5.3,13.2-11.5,18.3s-12.7,7.6-19.9,7.6c-5.6,0-10.2-1.5-13.8-4.6l-3.3,15.7h-11.1L482.4,379.8z
	 M505.1,394.6c4.1,0,7.9-1.4,11.4-4.3c3.5-2.9,5.7-6.4,6.5-10.5c0.9-4.1,0.2-7.6-2.1-10.5c-2.3-2.9-5.4-4.3-9.5-4.3
	c-4.1,0-7.9,1.4-11.4,4.3c-3.5,2.9-5.7,6.4-6.5,10.5c-0.9,4.1-0.2,7.6,2.1,10.5C497.9,393.2,501,394.6,505.1,394.6z"/>
<path class="st4" d="M557.1,342.9l-13.3,62.8h-11.1l13.3-62.8H557.1z"/>
<path class="st4" d="M601.3,361.5c4,5,5.2,11.1,3.7,18.3c-1.5,7.1-5.3,13.2-11.5,18.3c-6.1,5-12.7,7.6-19.9,7.6
	c-7.1,0-12.7-2.5-16.7-7.6c-4-5-5.2-11.1-3.7-18.3c1.5-7.1,5.3-13.2,11.5-18.3c6.1-5,12.7-7.6,19.9-7.6
	C591.8,354,597.3,356.5,601.3,361.5z M582.3,365.1c-4.1,0-7.9,1.4-11.4,4.3c-3.5,2.9-5.7,6.4-6.5,10.5c-0.9,4.1-0.2,7.6,2.1,10.5
	c2.3,2.9,5.4,4.3,9.5,4.3c4.1,0,7.9-1.4,11.4-4.3c3.5-2.9,5.7-6.4,6.5-10.5c0.9-4.1,0.2-7.6-2.1-10.5
	C589.6,366.5,586.4,365.1,582.3,365.1z"/>
<path class="st2" d="M367.9,210.6c1.6-0.5,2.8-0.7,3.8-1.2c1.5-0.7,2.5-2,2.8-3.5c0-0.1,0.1-0.3,0.1-0.4c0-0.1,0-0.1,0-0.2
	c0-0.2,0.1-0.4,0.1-0.5c0-2.9-2.3-5.2-5.2-5.2c-0.1,0-0.2,0-0.3,0c0,0-0.1,0-0.1,0c-0.2,0-0.4,0-0.6,0.1c0,0,0,0,0,0
	c-2.3,0.4-4,2.1-4.2,4.6c-0.1,1.4-0.5,2.4-1.4,3.5c-14.4,17.5-20.1,37.6-17,60.1c1.8,13.6,7.3,25.6,15.6,36.4c1.6,2.1,3.5,4.2,5.4,6
	c0.7,0.7,2.1,1.3,3.1,1.1c2.2-0.3,3-2.8,1.5-4.6c-1.4-1.7-3.1-3.2-4.5-5c-13.1-16.3-18.2-34.9-15.3-55.6
	C353.5,232.6,359.3,220.8,367.9,210.6z"/>
<path class="st4" d="M462.2,190.7c-0.1,0-0.1,0-0.2,0c-0.8-0.1-1.8,0-2.8,0.2c-15.6-8.9-32-12.2-49.6-9.8
	c-10.6,1.5-20.4,5.1-29.5,10.7c-0.3,0.2-0.6,0.4-0.8,0.6c-1.3,1.1-1.6,2.5-0.9,3.8c0.7,1.2,2.2,1.6,3.7,1c0.9-0.3,1.6-0.9,2.4-1.4
	c9.3-5.5,19.4-8.7,30.2-9.6c6.9-0.6,13.8-0.2,20.6,1.4c7.3,1.7,14.3,4.3,20.7,8.1c0.5,1.3,1,2.3,1.6,3.1c0.1,0.2,0.3,0.4,0.4,0.5
	c0,0.1,0.1,0.1,0.1,0.2c1,1.1,2.4,1.8,4,1.8c3,0,5.4-2.4,5.4-5.4C467.6,193.1,465.2,190.7,462.2,190.7z"/>
<path class="st2" d="M495.6,243.3c-2.6-14.8-9.2-27.7-19.4-38.8c-0.6-0.7-1.3-1.4-2-1.9c-1.3-1-2.8-0.8-3.8,0.3
	c-1.1,1.2-1.1,2.4,0,3.8c1.3,1.5,2.6,3,3.9,4.5c10.7,12.6,16.1,27.4,16.8,43.8c0.3,7.2-0.8,14.3-2.8,21.2
	c-2.9,10.1-7.7,19.1-14.7,26.9c-0.6,0.1-1.2,0.2-1.7,0.3c-2.8,0.2-5,2.5-5,5.3c0,3,2.4,5.4,5.4,5.4c0.9,0,1.7-0.2,2.4-0.6
	c1.4-0.6,2.5-1.8,2.8-3.3c0.1-0.2,0.1-0.4,0.1-0.6c0.3-2.3,1.5-3.9,2.8-5.6c10.2-13,15.4-27.7,16.4-44.1
	C497.2,254.2,496.5,248.7,495.6,243.3z"/>
<path class="st4" d="M464.5,316.1c-0.8-1-1.7-1.6-3-1.1c-1,0.4-1.9,1-2.8,1.5c-2.8,1.5-5.5,3.2-8.4,4.5c-12.2,5.6-25,7.4-38.4,5.6
	c-9.8-1.3-18.9-4.5-27.5-9.7c-0.2-0.7-0.2-1.1-0.4-1.6c-0.1-0.3-0.2-0.5-0.3-0.7c-0.7-2.1-2.7-3.6-5-3.6c-3,0-5.4,2.4-5.4,5.4
	s2.4,5.4,5.4,5.4c0.1,0,0.3,0,0.4,0c0.1,0,0.2,0,0.4,0c1.2,0,2.2,0.2,3.3,0.8c15.1,8.7,31.3,12,48.7,9.8
	c11.2-1.5,21.6-5.3,31.1-11.4c0.7-0.4,1.3-1,1.9-1.6C465.4,318.3,465.3,317.2,464.5,316.1z"/>
</svg>
